<svg width="94" height="49" viewBox="0 0 94 49" fill="none" xmlns="http://www.w3.org/2000/svg">
<path d="M20.6207 43.298L19.8797 44.117C18.8527 42.804 17.3837 41.387 15.7197 40.1C14.8097 41.14 14.1727 41.738 13.2367 42.427C12.3397 43.077 11.6507 43.506 10.6887 43.987C10.4807 43.597 10.3767 43.454 10.0517 43.129C11.0527 42.726 11.6897 42.375 12.6907 41.634C14.7707 40.1 16.3827 38.046 17.3317 35.771C17.3577 35.693 17.3707 35.68 17.3967 35.615C17.4227 35.576 17.4227 35.563 17.4357 35.524C17.3187 35.537 17.2797 35.537 17.1237 35.537L12.7817 35.602C12.1967 35.615 11.8197 35.641 11.4427 35.706L11.4167 34.653C11.7677 34.705 12.0017 34.718 12.4437 34.718C12.4827 34.718 12.5997 34.718 12.7817 34.718L17.4227 34.666C17.8777 34.653 18.0337 34.64 18.2547 34.562L18.8007 35.121C18.6707 35.277 18.5797 35.433 18.4367 35.758C17.7087 37.37 17.0977 38.397 16.2917 39.398C17.9947 40.698 19.1387 41.725 20.6207 43.298ZM31.6962 36.863H29.8112C29.6682 38.774 29.5252 39.554 29.1092 40.516C28.6412 41.582 27.9002 42.492 26.8862 43.246C26.3402 43.649 25.8332 43.935 24.8842 44.403C24.7022 44 24.5852 43.844 24.2472 43.571C25.3782 43.142 26.1972 42.648 26.9902 41.881C28.1862 40.737 28.7322 39.281 28.8492 36.863H25.2612C24.5202 38.046 23.9352 38.761 22.9992 39.619C22.7652 39.32 22.6482 39.229 22.2322 39.008C23.4282 38.059 24.2862 36.954 25.0142 35.42C25.4042 34.588 25.5732 34.133 25.6772 33.6L26.6652 33.912C26.5482 34.146 26.5092 34.211 26.3402 34.627C26.0412 35.316 25.8202 35.797 25.6642 36.044C25.8722 36.031 25.8722 36.031 31.7092 36.031C32.5282 36.031 32.7752 36.018 33.3082 35.953V36.902C32.9572 36.876 32.9572 36.876 31.6962 36.863ZM37.1952 34.835L37.7022 34.055C38.9762 34.575 39.8212 35.004 40.9262 35.693L40.3932 36.564C39.4962 35.888 38.1442 35.173 37.1952 34.835ZM36.1682 37.955L36.6882 37.162C37.9232 37.669 38.8592 38.137 39.9902 38.852L39.4832 39.736C38.5342 39.034 37.3512 38.397 36.1682 37.955ZM44.0332 33.925L44.7092 33.587C45.2682 34.224 45.5802 34.666 46.0092 35.42L45.3462 35.771C44.8912 34.978 44.6182 34.588 44.0332 33.925ZM36.6102 44.169L36.3502 43.103C37.1952 43.103 38.5472 42.791 39.8472 42.297C41.4592 41.686 42.6942 40.763 43.7472 39.398C44.4752 38.449 44.9042 37.63 45.3072 36.473C45.6322 36.824 45.7622 36.928 46.1132 37.175C44.9822 39.879 43.3962 41.634 41.1082 42.778C40.1982 43.22 38.8852 43.675 37.8192 43.896C37.6112 43.935 37.3772 43.987 37.1172 44.039C36.8572 44.091 36.8052 44.104 36.6102 44.169ZM45.3072 33.275L45.9832 32.937C46.5292 33.548 46.8542 34.003 47.2832 34.757L46.6072 35.121C46.1652 34.328 45.8922 33.938 45.3072 33.275ZM54.6988 43.233H56.2458C56.8568 43.233 57.0778 43.22 57.4158 43.155V44.104C57.1038 44.052 56.7658 44.039 56.2328 44.039H49.8628C49.3038 44.039 48.9918 44.052 48.6798 44.104V43.155C49.0308 43.22 49.2388 43.233 49.8498 43.233H53.8018C54.1008 41.842 54.3998 39.931 54.5168 38.761H51.0458C50.3048 38.761 50.2398 38.761 49.9018 38.813V37.877C50.2138 37.929 50.5518 37.955 51.0588 37.955H54.5428C54.8548 37.955 54.9718 37.942 55.1538 37.864L55.5828 38.241C55.4788 38.462 55.4658 38.501 55.3748 39.151C55.0758 41.218 54.9718 41.868 54.6988 43.233ZM60.7438 39.541V38.475C61.1208 38.54 61.4718 38.553 62.3558 38.553H69.9088C70.8708 38.553 71.0788 38.54 71.4818 38.488V39.541C71.0658 39.502 70.7668 39.489 69.8958 39.489H62.3558C61.4068 39.489 61.1338 39.502 60.7438 39.541ZM75.5893 34.094L76.6683 34.159C76.6163 34.484 76.6163 34.484 76.5903 35.277C76.4863 38.8 76.3823 39.762 75.8883 41.075C75.4463 42.284 74.8223 43.155 73.6393 44.286C73.3793 43.948 73.2493 43.831 72.8593 43.584C73.9253 42.739 74.6273 41.803 75.0563 40.594C75.4593 39.463 75.6413 37.76 75.6413 35.017C75.6413 34.549 75.6283 34.393 75.5893 34.094ZM78.8263 34.003L79.8923 34.016C79.8273 34.328 79.8143 34.562 79.8143 35.16L79.7363 43.012C80.8153 42.609 81.4783 42.193 82.1543 41.504C82.8693 40.763 83.3763 39.905 83.6883 38.904C83.9613 39.255 84.0653 39.372 84.4163 39.658C83.7793 41.153 82.9213 42.232 81.8033 42.999C81.2313 43.389 80.7113 43.649 79.9443 43.948C79.7103 44.039 79.7103 44.039 79.5283 44.104C79.3723 44.169 79.3463 44.182 79.2293 44.247L78.7093 43.649C78.7873 43.428 78.8003 43.324 78.8003 42.765L78.8783 35.16C78.8783 34.315 78.8783 34.315 78.8263 34.003Z" fill="#676565"/>
<g clip-path="url(#clip0_133_144)">
<path fill-rule="evenodd" clip-rule="evenodd" d="M47 0C53.6274 0 59 5.37258 59 12C59 18.6274 53.6274 24 47 24C40.3726 24 35 18.6274 35 12C35 5.37258 40.3726 0 47 0ZM47 3.09677C42.0829 3.09677 38.0968 7.08288 38.0968 12C38.0968 16.9171 42.0829 20.9032 47 20.9032C51.9171 20.9032 55.9032 16.9171 55.9032 12C55.9032 7.08288 51.9171 3.09677 47 3.09677ZM48.157 6.07799C48.0979 5.27681 47.4292 4.64516 46.6129 4.64516C45.7578 4.64516 45.0645 5.3384 45.0645 6.19355V12.3871L45.0688 12.5027C45.1279 13.3038 45.7966 13.9355 46.6129 13.9355H52.0323L52.1478 13.9312C52.949 13.8721 53.5806 13.2034 53.5806 12.3871L53.5764 12.2715C53.5173 11.4704 52.8485 10.8387 52.0323 10.8387H48.1613V6.19355L48.157 6.07799Z" fill="#8C8C8C"/>
</g>
<defs>
<clipPath id="clip0_133_144">
<rect width="24" height="24" fill="white" transform="translate(35)"/>
</clipPath>
</defs>
</svg>
