<svg width="311" height="48" viewBox="0 0 311 48" fill="none" xmlns="http://www.w3.org/2000/svg">
<g clip-path="url(#clip0_139_68)">
<rect width="311" height="48" rx="24" fill="#0872ED"/>
<path d="M127.76 26.86H124.8C124.18 26.86 123.76 26.88 123.26 26.94C123.32 26.48 123.34 26.22 123.34 25.64V22.38C123.34 21.76 123.32 21.48 123.26 21.04C123.72 21.1 124.14 21.12 124.8 21.12H127.76V19.8H125.34C124.66 19.8 124.26 19.82 123.8 19.9V18.72C124.24 18.8 124.64 18.82 125.32 18.82H127.76C127.74 18.26 127.72 18.08 127.66 17.74H128.98C128.9 18.12 128.9 18.3 128.88 18.82H131.76C132.48 18.82 132.8 18.8 133.24 18.74V19.9C132.78 19.82 132.4 19.8 131.7 19.8H128.88V21.12H132.18C132.88 21.12 133.26 21.1 133.74 21.04C133.68 21.5 133.66 21.84 133.66 22.38V25.64C133.66 26.18 133.68 26.48 133.74 26.94C133.22 26.88 132.78 26.86 132.18 26.86H128.88V28.26H133.1C133.88 28.26 134.34 28.22 134.82 28.16V29.38C134.26 29.3 133.84 29.28 133.1 29.28H128.88V29.54C128.88 30.14 128.92 30.78 129 31.28H127.62C127.7 30.82 127.76 30.14 127.76 29.54V29.28H123.92C123.22 29.28 122.76 29.32 122.24 29.4V28.16C122.76 28.22 123.24 28.26 123.92 28.26H127.76V26.86ZM127.76 22.04H124.48V23.52H127.76V22.04ZM128.88 22.04V23.52H132.52V22.04H128.88ZM127.76 24.4H124.48V25.94H127.76V24.4ZM128.88 24.4V25.94H132.52V24.4H128.88ZM122.22 18.2V17.34C122.22 16.86 122.2 16.48 122.14 16.1C122.7 16.16 123.2 16.18 123.98 16.18H133.04C133.82 16.18 134.32 16.16 134.9 16.1C134.84 16.48 134.82 16.8 134.82 17.32V18.16C134.82 18.74 134.84 19.06 134.9 19.44H133.62V17.2H123.38V19.44H122.14C122.2 19.02 122.22 18.7 122.22 18.2ZM117.6 16.62L118.56 15.82C119.86 17.24 120.48 17.98 121.46 19.42L120.46 20.34C119.46 18.68 118.82 17.84 117.6 16.62ZM117.24 24.68V23.36C117.72 23.44 118.02 23.46 118.78 23.46H119.78C120.38 23.46 120.78 23.44 121.32 23.36C121.24 24 121.22 24.44 121.22 25.48V29.44C121.7 30.44 122.1 30.86 122.96 31.24C123.96 31.68 125.12 31.82 127.54 31.82C131.36 31.82 133.68 31.72 135.6 31.46C135.32 32.06 135.22 32.36 135.12 32.86C132.78 32.96 130.8 33 128.58 33C124.9 33 123.82 32.88 122.64 32.32C121.82 31.92 121.12 31.32 120.54 30.42C119.64 31.32 119.22 31.68 118.22 32.44C117.92 32.68 117.86 32.72 117.46 33.1L116.78 31.78C117.7 31.36 118.8 30.54 119.98 29.4V24.58H118.7C118.04 24.58 117.74 24.6 117.24 24.68ZM141.76 29.96V31.6C141.76 32.22 141.8 32.8 141.9 33.4H140.5C140.6 32.74 140.64 32.26 140.64 31.58V29.96H138.62C137.84 29.96 137.34 29.98 136.86 30.06V28.78C137.34 28.86 137.76 28.88 138.6 28.88H140.64V27.04H139.56C138.62 27.04 138.16 27.06 137.62 27.12C137.68 26.6 137.7 26.02 137.7 25.14V21.94C137.7 21.08 137.68 20.54 137.62 20.02C138.12 20.08 138.6 20.1 139.48 20.1H140.64V18.34H138.76C137.96 18.34 137.52 18.36 137.02 18.44V17.16C137.52 17.24 137.92 17.26 138.78 17.26H140.64V17C140.64 16.38 140.6 15.88 140.5 15.26H141.9C141.8 15.88 141.76 16.36 141.76 17V17.26H143.62C144.5 17.26 144.88 17.24 145.4 17.16V18.44C144.88 18.36 144.52 18.34 143.66 18.34H141.76V20.1H143.14C144.04 20.1 144.48 20.08 144.88 20.02C144.84 20.42 144.82 20.98 144.82 21.9V25.14C144.82 26.12 144.84 26.7 144.88 27.12C144.44 27.06 144 27.04 143.06 27.04H141.76V28.88H143.56C144.36 28.88 144.72 28.86 145.22 28.78V30.06C144.7 29.98 144.28 29.96 143.5 29.96H141.76ZM141.76 26.02H143.76V23.98H141.76V26.02ZM141.76 23.02H143.76V21.12H141.76V23.02ZM140.64 21.12H138.76V23.02H140.64V21.12ZM140.64 23.98H138.76V26.02H140.64V23.98ZM148.48 23.46H147.28C146.54 23.46 146.02 23.48 145.52 23.56V22.2C146.04 22.3 146.44 22.32 147.3 22.32H153.06C153.94 22.32 154.32 22.3 154.84 22.2V23.56C154.32 23.48 153.86 23.46 153.06 23.46H149.84C149.06 26.48 148.56 27.98 147.34 30.96C149.82 30.66 150.94 30.5 152.68 30.14C151.98 28.42 151.56 27.52 150.64 25.84L151.72 25.36C153.22 28.22 153.66 29.2 154.92 32.56L153.76 33.2C153.24 31.68 153.24 31.68 153.06 31.16C151.14 31.58 149.66 31.84 145.92 32.38C145.44 32.46 145.2 32.5 144.82 32.58L144.5 31.18C145.06 31.18 145.28 31.18 146 31.1C146.96 28.74 147.14 28.28 147.68 26.48C148.06 25.24 148.24 24.58 148.48 23.46ZM146.3 18.36V16.98C146.82 17.08 147.18 17.1 148.08 17.1H152.36C153.26 17.1 153.6 17.08 154.12 16.98V18.34C153.96 18.34 153.96 18.34 153.66 18.3C153.4 18.28 152.9 18.26 152.36 18.26H148.08C147.26 18.26 146.82 18.28 146.3 18.36ZM162.66 24.6H162.14C161.3 24.6 160.7 24.62 160.24 24.68V23.5C160.78 23.58 161.24 23.6 162.14 23.6H168.48C169.4 23.6 169.84 23.58 170.4 23.5V24.68C169.94 24.62 169.34 24.6 168.5 24.6H167.78V27.08H168.78C169.7 27.08 170.22 27.06 170.7 26.98V28.18C170.2 28.1 169.66 28.08 168.78 28.08H167.78V31.16C167.78 32.06 167.8 32.5 167.9 32.88H166.52C166.62 32.46 166.64 32 166.64 31.16V28.08H163.62C163.36 30.32 162.68 31.58 160.98 33.04C160.66 32.68 160.42 32.48 159.98 32.22C160.92 31.52 161.34 31.1 161.72 30.46C162.12 29.82 162.36 29.04 162.48 28.08H161.78C160.9 28.08 160.36 28.1 159.86 28.18V26.98C160.34 27.06 160.88 27.08 161.78 27.08H162.58C162.64 26.12 162.64 26.12 162.66 24.6ZM166.64 24.6H163.8C163.8 24.78 163.8 24.78 163.8 25.06C163.8 25.68 163.76 26.4 163.72 27.08H166.64V24.6ZM158.42 22V31.18C158.42 32.28 158.46 32.9 158.54 33.42H157.06C157.14 32.88 157.18 32.26 157.18 31.18V18.04C157.18 17.06 157.16 16.48 157.1 15.84C157.64 15.9 158.2 15.92 159.2 15.92H162.24C163.22 15.92 163.7 15.9 164.26 15.84C164.22 16.4 164.2 17 164.2 17.74V20.2C164.2 21 164.22 21.56 164.26 22.06C163.78 22.02 163.1 22 162.24 22H158.42ZM158.42 16.9V18.44H163.06V16.9H158.42ZM158.42 19.4V21.02H163.06V19.4H158.42ZM173.4 18.04V31.44C173.4 32.3 173.2 32.72 172.68 32.94C172.4 33.04 172.1 33.08 171.26 33.08C171.02 33.08 169.96 33.04 169.56 33.02C169.48 32.5 169.4 32.2 169.18 31.74C169.96 31.86 170.86 31.94 171.4 31.94C172.04 31.94 172.18 31.84 172.18 31.38V22H168.08C167.24 22 166.6 22.02 166.04 22.06C166.08 21.48 166.1 21 166.1 20.2V17.74C166.1 17 166.08 16.5 166.04 15.84C166.6 15.9 167.1 15.92 168.1 15.92H171.4C172.4 15.92 172.94 15.9 173.5 15.84C173.42 16.58 173.4 17.14 173.4 18.04ZM167.26 16.9V18.44H172.18V16.9H167.26ZM167.26 19.4V21.02H172.18V19.4H167.26ZM183.06 23.86L182.76 22.44C183.04 22.46 183.24 22.48 183.6 22.48C183.72 22.48 184.02 22.46 184.3 22.46C185.68 19.42 186.6 16.68 186.74 15.3L188.26 15.68C188.06 16.12 188.06 16.12 187.5 17.84C187.08 19.04 186.68 20.02 185.62 22.38C188.5 22.14 188.94 22.1 191.46 21.78C190.8 20.66 190.38 20.04 189.26 18.62L190.36 18.06C192.1 20.42 192.72 21.44 193.96 23.84L192.82 24.52C192.44 23.68 192.34 23.48 192 22.8C188.76 23.24 187.92 23.34 184.32 23.66C183.64 23.72 183.38 23.76 183.06 23.86ZM179.72 19.44H181C181.92 19.44 182.42 19.42 182.84 19.36C182.62 21.64 182.62 21.64 182.48 22.52C182.14 24.74 181.7 26.28 180.96 27.88C181.68 28.5 182.08 28.9 183.08 29.94L182.28 31.04C181.44 30.06 181.1 29.68 180.36 29C179.36 30.68 178.42 31.72 176.66 33.06C176.38 32.64 176.12 32.36 175.74 32.08C177.46 30.82 178.48 29.74 179.42 28.18C178.44 27.38 177.86 26.98 176.44 26.12C177.2 24.42 177.74 22.8 178.26 20.56H177.6C177 20.56 176.5 20.6 176 20.68V19.32C176.52 19.4 176.98 19.44 177.64 19.44H178.5C178.86 17.7 179.04 16.4 179.04 15.62C179.04 15.56 179.04 15.48 179.02 15.38L180.46 15.52C180.36 15.88 180.34 16.06 180.24 16.68C180.12 17.36 179.96 18.26 179.72 19.44ZM181.52 20.56H179.48C179.08 22.3 178.56 24.04 177.92 25.64C179 26.38 179.36 26.62 180 27.1C180.82 25.34 181.2 23.74 181.52 20.56ZM185.3 32.34V33.5H183.98C184.04 33.08 184.06 32.56 184.06 31.72V26.96C184.06 26.12 184.04 25.56 183.98 25.1C184.46 25.16 185.02 25.18 185.76 25.18H190.68C191.64 25.18 192.2 25.16 192.58 25.1C192.52 25.42 192.48 26.1 192.48 26.4V31.42C192.48 32.48 192.5 33.02 192.6 33.5H191.22V32.34H185.3ZM185.3 26.32V31.2H191.22V26.32H185.3Z" fill="white"/>
</g>
<defs>
<clipPath id="clip0_139_68">
<rect width="311" height="48" fill="white"/>
</clipPath>
</defs>
</svg>
