<svg width="94" height="45" viewBox="0 0 94 45" fill="none" xmlns="http://www.w3.org/2000/svg">
<path d="M33.8167 31.797V30.926C33.8167 30.25 33.8037 29.938 33.7387 29.6H34.8047C34.7527 29.951 34.7397 30.185 34.7397 30.952V31.797H38.0157C38.7697 31.797 39.0817 31.784 39.5367 31.719V32.707C39.0947 32.655 38.7307 32.642 38.0417 32.642H34.7397V39.116C34.7397 39.831 34.7527 40.156 34.8047 40.494H33.7387C33.8037 40.156 33.8167 39.805 33.8167 39.129V32.642H30.6317C29.9427 32.642 29.5787 32.655 29.1367 32.707V31.719C29.5917 31.784 29.9037 31.797 30.6447 31.797H33.8167ZM31.0087 33.851L31.9967 34.111C31.9447 34.254 31.9447 34.267 31.7757 34.878C31.2947 36.646 30.5797 38.05 29.5007 39.376C29.1887 39.09 29.0587 39.012 28.6427 38.817C29.2147 38.232 29.5007 37.842 29.8777 37.127C30.4887 35.983 30.9307 34.722 31.0087 33.851ZM36.5597 34.111L37.4697 33.864C37.5477 34.254 37.6777 34.618 37.9507 35.32C38.5487 36.841 39.0947 37.79 39.9657 38.804C39.5887 39.012 39.4717 39.103 39.1467 39.415C38.5357 38.583 38.2107 38.05 37.7947 37.192C37.4827 36.542 37.0927 35.593 36.8847 34.956C36.7417 34.54 36.6637 34.332 36.5597 34.111ZM41.9547 35.541V34.475C42.3317 34.54 42.6827 34.553 43.5667 34.553H51.1197C52.0817 34.553 52.2897 34.54 52.6927 34.488V35.541C52.2767 35.502 51.9777 35.489 51.1067 35.489H43.5667C42.6177 35.489 42.3447 35.502 41.9547 35.541ZM58.6363 29.665L59.7803 29.938C59.6503 30.185 59.5593 30.445 59.4293 30.874C58.4803 33.994 57.5963 36.49 56.7253 38.479C58.4543 38.362 61.5093 37.959 63.0433 37.66C62.3543 36.295 61.6783 35.177 61.0413 34.293L61.8473 33.851C62.8873 35.281 64.1873 37.634 65.0843 39.727L64.1743 40.221C63.8883 39.48 63.7063 39.064 63.4073 38.466C61.2233 38.895 58.6363 39.246 55.4123 39.545C54.9183 39.584 54.5543 39.636 54.3073 39.688L54.1773 38.609C54.4763 38.622 54.4763 38.622 54.5413 38.622C54.6323 38.622 55.3473 38.583 55.6463 38.557C56.4523 36.737 56.9723 35.359 57.6093 33.409C58.2463 31.446 58.5323 30.406 58.6363 29.665Z" fill="#676565"/>
<path d="M62.6225 2.37903C61.3925 1.09903 59.5525 0.259031 57.5625 0.0590305C53.6425 -0.320969 50.2125 1.87903 49.9025 4.97903C49.6125 7.98903 52.3425 10.739 56.1225 11.249C56.1325 11.249 56.1525 11.249 56.1625 11.249C56.7825 11.309 57.3425 10.869 57.4325 10.249C57.5225 9.60903 57.0725 9.01903 56.4325 8.93903C53.9425 8.59903 52.0525 6.92903 52.2125 5.20903C52.3825 3.42903 54.7325 2.12903 57.3225 2.38903C58.7625 2.52903 60.0825 3.11903 60.9225 3.99903C61.3725 4.45903 62.1025 4.47903 62.5725 4.02903C63.0325 3.57903 63.0525 2.84903 62.6025 2.37903H62.6225Z" fill="#8C8C8C"/>
<path d="M50.2625 13.5491C51.4925 14.8291 53.3325 15.6691 55.3225 15.8691C59.2425 16.2491 62.6725 14.0491 62.9825 10.9491C63.2925 7.84906 60.5425 5.18906 56.7625 4.67906C56.7525 4.67906 56.7325 4.67906 56.7225 4.67906C56.1025 4.61906 55.5425 5.05906 55.4525 5.67906C55.3625 6.31906 55.8125 6.90906 56.4525 6.98906C58.9425 7.32906 60.8325 8.99906 60.6725 10.7191C60.5125 12.4391 58.1525 13.7991 55.5625 13.5391C54.1225 13.3991 52.8025 12.8091 51.9625 11.9291C51.5125 11.4691 50.7825 11.4491 50.3125 11.8991C49.8525 12.3491 49.8325 13.0791 50.2825 13.5491H50.2625Z" fill="#8C8C8C"/>
<path d="M46.5325 8.52906C46.1225 7.89906 45.4225 7.52906 44.6625 7.52906H39.2225C38.6925 7.59906 38.2825 8.05906 38.3025 8.58906C38.3225 9.07906 38.7225 9.48906 39.2325 9.54906H43.8025C43.9225 9.54906 44.0425 9.58906 44.1325 9.65906C44.1325 9.65906 44.2025 9.71906 44.2625 9.79906C44.3625 9.96906 44.4225 10.4091 44.2725 10.8491C44.0925 11.4091 43.4725 12.2991 42.3025 12.9991C41.8925 13.2391 40.7925 13.8791 39.2125 13.8891C37.6725 13.8891 36.5825 13.2991 36.2525 13.0991C36.0125 12.9591 35.3925 12.5691 34.8325 11.9191C33.8225 10.7391 33.1725 8.90906 33.4825 7.07906C33.9625 4.28906 36.6025 2.17906 39.2425 2.05906C42.2825 1.91906 44.5025 4.43906 44.5625 4.50906C44.6225 4.57906 44.6625 4.61906 44.7425 4.70906C44.9925 4.98906 45.0625 5.04906 45.0925 5.06906C45.1325 5.09906 45.2725 5.20906 45.4325 5.26906C45.7325 5.37906 46.1225 5.29906 46.3925 5.07906C46.7925 4.75906 46.7825 4.24906 46.7725 4.10906C46.7725 4.09906 46.7725 4.08906 46.7725 4.07906C46.7725 4.07906 46.7325 3.56906 46.3025 3.05906C44.6025 1.01906 42.0525 0.339058 42.0525 0.339058C40.6625 -0.0309418 39.3025 -0.0109418 38.8425 0.00905822C38.8225 0.00905822 38.8025 0.00905822 38.7925 0.00905822C34.3925 0.199058 30.8925 3.87906 31.0025 8.20906C31.0525 10.2591 31.7325 11.9991 32.9025 13.3091C35.2025 15.8991 38.4425 15.8991 39.2225 15.8991C39.4325 15.8991 43.1625 15.8491 45.4525 13.3291C46.2925 12.3991 46.5825 11.5391 46.6825 11.1491C46.8225 10.6291 47.1325 9.45906 46.5325 8.52906Z" fill="#8C8C8C"/>
</svg>
