<svg width="375" height="59" viewBox="0 0 375 59" fill="none" xmlns="http://www.w3.org/2000/svg">
<g clip-path="url(#clip0_533_297)">
<path d="M0 0H375V59H0V0Z" fill="#F8F8F8"/>
<path d="M46.2715 52.557L43.6585 46.759C43.4635 46.343 43.3205 45.94 43.0735 45.147C43.1125 45.706 43.1645 46.512 43.1645 46.824V52.388C43.1645 53.077 43.1905 53.48 43.2685 53.922H42.0855C42.1635 53.441 42.1895 53.064 42.1895 52.388V45.589C42.1895 44.939 42.1635 44.523 42.0855 44.042H43.5935C43.6715 44.432 43.8275 44.9 44.0225 45.329L47.2335 52.492L50.4315 45.329C50.6525 44.822 50.7955 44.419 50.8735 44.042H52.3685C52.2905 44.536 52.2645 44.913 52.2645 45.589V52.388C52.2645 53.103 52.2905 53.454 52.3685 53.922H51.1855C51.2635 53.48 51.2895 53.012 51.2895 52.388V46.746C51.2895 46.382 51.3285 45.68 51.3805 45.147C51.2505 45.68 51.0685 46.2 50.8215 46.733L48.1695 52.57C47.9095 53.155 47.7795 53.493 47.6755 53.922H46.7525C46.6875 53.584 46.5315 53.142 46.2715 52.557ZM56.5975 53.714L54.2185 48.436C53.6335 47.149 53.6335 47.149 53.5035 46.915H54.7775C54.8425 47.279 55.0115 47.799 55.2195 48.293L57.1045 52.661L58.7815 48.293C59.0415 47.63 59.1585 47.279 59.2105 46.915H60.4195C60.3415 47.11 60.1205 47.617 59.7825 48.436L56.8705 55.534C56.5325 56.366 55.9605 56.743 55.0375 56.743C54.7515 56.743 54.4655 56.704 53.9715 56.6L54.2445 55.638C54.6085 55.807 54.7905 55.859 55.0375 55.859C55.4795 55.859 55.7915 55.625 55.9995 55.144L56.5975 53.714ZM65.7588 52.557L63.1458 46.759C62.9508 46.343 62.8078 45.94 62.5608 45.147C62.5998 45.706 62.6518 46.512 62.6518 46.824V52.388C62.6518 53.077 62.6778 53.48 62.7558 53.922H61.5728C61.6508 53.441 61.6768 53.064 61.6768 52.388V45.589C61.6768 44.939 61.6508 44.523 61.5728 44.042H63.0808C63.1588 44.432 63.3148 44.9 63.5098 45.329L66.7208 52.492L69.9188 45.329C70.1398 44.822 70.2828 44.419 70.3608 44.042H71.8558C71.7778 44.536 71.7518 44.913 71.7518 45.589V52.388C71.7518 53.103 71.7778 53.454 71.8558 53.922H70.6728C70.7508 53.48 70.7768 53.012 70.7768 52.388V46.746C70.7768 46.382 70.8158 45.68 70.8678 45.147C70.7378 45.68 70.5558 46.2 70.3088 46.733L67.6568 52.57C67.3968 53.155 67.2668 53.493 67.1628 53.922H66.2398C66.1748 53.584 66.0188 53.142 65.7588 52.557ZM80.7128 44.042H81.9348C81.8568 44.497 81.8308 44.861 81.8308 45.511V50.334C81.8308 51.478 81.4798 52.427 80.8298 53.103C80.1798 53.766 79.1398 54.13 77.8788 54.13C76.6048 54.13 75.5648 53.766 74.9148 53.077C74.2778 52.414 73.9528 51.478 73.9528 50.334V45.537C73.9528 44.874 73.9268 44.497 73.8488 44.042H75.0708C74.9928 44.458 74.9668 44.848 74.9668 45.537V50.295C74.9668 52.167 76.0328 53.233 77.8918 53.233C78.8928 53.233 79.6858 52.921 80.1668 52.362C80.5828 51.855 80.8168 51.127 80.8168 50.295V45.537C80.8168 44.887 80.7908 44.497 80.7128 44.042Z" fill="#676565"/>
<path d="M173.817 45.797V44.926C173.817 44.25 173.804 43.938 173.739 43.6H174.805C174.753 43.951 174.74 44.185 174.74 44.952V45.797H178.016C178.77 45.797 179.082 45.784 179.537 45.719V46.707C179.095 46.655 178.731 46.642 178.042 46.642H174.74V53.116C174.74 53.831 174.753 54.156 174.805 54.494H173.739C173.804 54.156 173.817 53.805 173.817 53.129V46.642H170.632C169.943 46.642 169.579 46.655 169.137 46.707V45.719C169.592 45.784 169.904 45.797 170.645 45.797H173.817ZM171.009 47.851L171.997 48.111C171.945 48.254 171.945 48.267 171.776 48.878C171.295 50.646 170.58 52.05 169.501 53.376C169.189 53.09 169.059 53.012 168.643 52.817C169.215 52.232 169.501 51.842 169.878 51.127C170.489 49.983 170.931 48.722 171.009 47.851ZM176.56 48.111L177.47 47.864C177.548 48.254 177.678 48.618 177.951 49.32C178.549 50.841 179.095 51.79 179.966 52.804C179.589 53.012 179.472 53.103 179.147 53.415C178.536 52.583 178.211 52.05 177.795 51.192C177.483 50.542 177.093 49.593 176.885 48.956C176.742 48.54 176.664 48.332 176.56 48.111ZM181.955 49.541V48.475C182.332 48.54 182.683 48.553 183.567 48.553H191.12C192.082 48.553 192.29 48.54 192.693 48.488V49.541C192.277 49.502 191.978 49.489 191.107 49.489H183.567C182.618 49.489 182.345 49.502 181.955 49.541ZM198.636 43.665L199.78 43.938C199.65 44.185 199.559 44.445 199.429 44.874C198.48 47.994 197.596 50.49 196.725 52.479C198.454 52.362 201.509 51.959 203.043 51.66C202.354 50.295 201.678 49.177 201.041 48.293L201.847 47.851C202.887 49.281 204.187 51.634 205.084 53.727L204.174 54.221C203.888 53.48 203.706 53.064 203.407 52.466C201.223 52.895 198.636 53.246 195.412 53.545C194.918 53.584 194.554 53.636 194.307 53.688L194.177 52.609C194.476 52.622 194.476 52.622 194.541 52.622C194.632 52.622 195.347 52.583 195.646 52.557C196.452 50.737 196.972 49.359 197.609 47.409C198.246 45.446 198.532 44.406 198.636 43.665Z" fill="#676565"/>
<path d="M284.621 53.298L283.88 54.117C282.853 52.804 281.384 51.387 279.72 50.1C278.81 51.14 278.173 51.738 277.237 52.427C276.34 53.077 275.651 53.506 274.689 53.987C274.481 53.597 274.377 53.454 274.052 53.129C275.053 52.726 275.69 52.375 276.691 51.634C278.771 50.1 280.383 48.046 281.332 45.771C281.358 45.693 281.371 45.68 281.397 45.615C281.423 45.576 281.423 45.563 281.436 45.524C281.319 45.537 281.28 45.537 281.124 45.537L276.782 45.602C276.197 45.615 275.82 45.641 275.443 45.706L275.417 44.653C275.768 44.705 276.002 44.718 276.444 44.718C276.483 44.718 276.6 44.718 276.782 44.718L281.423 44.666C281.878 44.653 282.034 44.64 282.255 44.562L282.801 45.121C282.671 45.277 282.58 45.433 282.437 45.758C281.709 47.37 281.098 48.397 280.292 49.398C281.995 50.698 283.139 51.725 284.621 53.298ZM295.696 46.863H293.811C293.668 48.774 293.525 49.554 293.109 50.516C292.641 51.582 291.9 52.492 290.886 53.246C290.34 53.649 289.833 53.935 288.884 54.403C288.702 54 288.585 53.844 288.247 53.571C289.378 53.142 290.197 52.648 290.99 51.881C292.186 50.737 292.732 49.281 292.849 46.863H289.261C288.52 48.046 287.935 48.761 286.999 49.619C286.765 49.32 286.648 49.229 286.232 49.008C287.428 48.059 288.286 46.954 289.014 45.42C289.404 44.588 289.573 44.133 289.677 43.6L290.665 43.912C290.548 44.146 290.509 44.211 290.34 44.627C290.041 45.316 289.82 45.797 289.664 46.044C289.872 46.031 289.872 46.031 295.709 46.031C296.528 46.031 296.775 46.018 297.308 45.953V46.902C296.957 46.876 296.957 46.876 295.696 46.863ZM301.195 44.835L301.702 44.055C302.976 44.575 303.821 45.004 304.926 45.693L304.393 46.564C303.496 45.888 302.144 45.173 301.195 44.835ZM300.168 47.955L300.688 47.162C301.923 47.669 302.859 48.137 303.99 48.852L303.483 49.736C302.534 49.034 301.351 48.397 300.168 47.955ZM308.033 43.925L308.709 43.587C309.268 44.224 309.58 44.666 310.009 45.42L309.346 45.771C308.891 44.978 308.618 44.588 308.033 43.925ZM300.61 54.169L300.35 53.103C301.195 53.103 302.547 52.791 303.847 52.297C305.459 51.686 306.694 50.763 307.747 49.398C308.475 48.449 308.904 47.63 309.307 46.473C309.632 46.824 309.762 46.928 310.113 47.175C308.982 49.879 307.396 51.634 305.108 52.778C304.198 53.22 302.885 53.675 301.819 53.896C301.611 53.935 301.377 53.987 301.117 54.039C300.857 54.091 300.805 54.104 300.61 54.169ZM309.307 43.275L309.983 42.937C310.529 43.548 310.854 44.003 311.283 44.757L310.607 45.121C310.165 44.328 309.892 43.938 309.307 43.275ZM318.699 53.233H320.246C320.857 53.233 321.078 53.22 321.416 53.155V54.104C321.104 54.052 320.766 54.039 320.233 54.039H313.863C313.304 54.039 312.992 54.052 312.68 54.104V53.155C313.031 53.22 313.239 53.233 313.85 53.233H317.802C318.101 51.842 318.4 49.931 318.517 48.761H315.046C314.305 48.761 314.24 48.761 313.902 48.813V47.877C314.214 47.929 314.552 47.955 315.059 47.955H318.543C318.855 47.955 318.972 47.942 319.154 47.864L319.583 48.241C319.479 48.462 319.466 48.501 319.375 49.151C319.076 51.218 318.972 51.868 318.699 53.233ZM324.744 49.541V48.475C325.121 48.54 325.472 48.553 326.356 48.553H333.909C334.871 48.553 335.079 48.54 335.482 48.488V49.541C335.066 49.502 334.767 49.489 333.896 49.489H326.356C325.407 49.489 325.134 49.502 324.744 49.541ZM339.589 44.094L340.668 44.159C340.616 44.484 340.616 44.484 340.59 45.277C340.486 48.8 340.382 49.762 339.888 51.075C339.446 52.284 338.822 53.155 337.639 54.286C337.379 53.948 337.249 53.831 336.859 53.584C337.925 52.739 338.627 51.803 339.056 50.594C339.459 49.463 339.641 47.76 339.641 45.017C339.641 44.549 339.628 44.393 339.589 44.094ZM342.826 44.003L343.892 44.016C343.827 44.328 343.814 44.562 343.814 45.16L343.736 53.012C344.815 52.609 345.478 52.193 346.154 51.504C346.869 50.763 347.376 49.905 347.688 48.904C347.961 49.255 348.065 49.372 348.416 49.658C347.779 51.153 346.921 52.232 345.803 52.999C345.231 53.389 344.711 53.649 343.944 53.948C343.71 54.039 343.71 54.039 343.528 54.104C343.372 54.169 343.346 54.182 343.229 54.247L342.709 53.649C342.787 53.428 342.8 53.324 342.8 52.765L342.878 45.16C342.878 44.315 342.878 44.315 342.826 44.003Z" fill="#676565"/>
<path d="M202.62 17.42C201.39 16.14 199.55 15.3 197.56 15.1C193.64 14.72 190.21 16.92 189.9 20.02C189.61 23.03 192.34 25.78 196.12 26.29C196.13 26.29 196.15 26.29 196.16 26.29C196.78 26.35 197.34 25.91 197.43 25.29C197.52 24.65 197.07 24.06 196.43 23.98C193.94 23.64 192.05 21.97 192.21 20.25C192.38 18.47 194.73 17.17 197.32 17.43C198.76 17.57 200.08 18.16 200.92 19.04C201.37 19.5 202.1 19.52 202.57 19.07C203.03 18.62 203.05 17.89 202.6 17.42H202.62Z" fill="#8C8C8C"/>
<path d="M190.26 28.5901C191.49 29.8701 193.33 30.7101 195.32 30.9101C199.24 31.2901 202.67 29.0901 202.98 25.9901C203.29 22.8901 200.54 20.2301 196.76 19.7201C196.75 19.7201 196.73 19.7201 196.72 19.7201C196.1 19.6601 195.54 20.1001 195.45 20.7201C195.36 21.3601 195.81 21.9501 196.45 22.0301C198.94 22.3701 200.83 24.0401 200.67 25.7601C200.51 27.4801 198.15 28.8401 195.56 28.5801C194.12 28.4401 192.8 27.8501 191.96 26.9701C191.51 26.5101 190.78 26.4901 190.31 26.9401C189.85 27.3901 189.83 28.1201 190.28 28.5901H190.26Z" fill="#8C8C8C"/>
<path d="M186.53 23.5701C186.12 22.9401 185.42 22.5701 184.66 22.5701H179.22C178.69 22.6401 178.28 23.1001 178.3 23.6301C178.32 24.1201 178.72 24.5301 179.23 24.5901H183.8C183.92 24.5901 184.04 24.6301 184.13 24.7001C184.13 24.7001 184.2 24.7601 184.26 24.8401C184.36 25.0101 184.42 25.4501 184.27 25.8901C184.09 26.4501 183.47 27.3401 182.3 28.0401C181.89 28.2801 180.79 28.9201 179.21 28.9301C177.67 28.9301 176.58 28.3401 176.25 28.1401C176.01 28.0001 175.39 27.6101 174.83 26.9601C173.82 25.7801 173.17 23.9501 173.48 22.1201C173.96 19.3301 176.6 17.2201 179.24 17.1001C182.28 16.9601 184.5 19.4801 184.56 19.5501C184.62 19.6201 184.66 19.6601 184.74 19.7501C184.99 20.0301 185.06 20.0901 185.09 20.1101C185.13 20.1401 185.27 20.2501 185.43 20.3101C185.73 20.4201 186.12 20.3401 186.39 20.1201C186.79 19.8001 186.78 19.2901 186.77 19.1501C186.77 19.1401 186.77 19.1301 186.77 19.1201C186.77 19.1201 186.73 18.6101 186.3 18.1001C184.6 16.0601 182.05 15.3801 182.05 15.3801C180.66 15.0101 179.3 15.0301 178.84 15.0501C178.82 15.0501 178.8 15.0501 178.79 15.0501C174.39 15.2401 170.89 18.9201 171 23.2501C171.05 25.3001 171.73 27.0401 172.9 28.3501C175.2 30.9401 178.44 30.9401 179.22 30.9401C179.43 30.9401 183.16 30.8901 185.45 28.3701C186.29 27.4401 186.58 26.5801 186.68 26.1901C186.82 25.6701 187.13 24.5001 186.53 23.5701Z" fill="#8C8C8C"/>
<g clip-path="url(#clip1_533_297)">
<path d="M311 11C317.627 11 323 16.3726 323 23C323 29.6274 317.627 35 311 35C304.373 35 299 29.6274 299 23C299 16.3726 304.373 11 311 11ZM311 14.0967C306.083 14.0967 302.097 18.0829 302.097 23C302.097 27.9171 306.083 31.9033 311 31.9033C315.917 31.9033 319.903 27.9171 319.903 23C319.903 18.0829 315.917 14.0967 311 14.0967ZM310.613 15.6455C311.429 15.6457 312.098 16.2771 312.157 17.0781L312.161 17.1934V21.8389H316.032C316.848 21.8389 317.517 22.4703 317.576 23.2715L317.581 23.3867C317.581 24.203 316.949 24.8725 316.147 24.9316L316.032 24.9355H310.613C309.797 24.9355 309.128 24.304 309.068 23.5029L309.064 23.3867V17.1934C309.065 16.3383 309.758 15.6455 310.613 15.6455Z" fill="#8C8C8C"/>
</g>
<path d="M73.9 37H50.1C48.952 37 48.014 36.0901 48 34.9423V20.2581C48.07 18.9843 48.7 17.7944 49.694 17.0105L60.306 9.49344C61.342 8.83552 62.672 8.83552 63.708 9.49344L74.306 16.9965C75.314 17.7944 75.93 18.9703 76 20.2441V34.9423C75.986 36.0901 75.048 37 73.9 36.986V37ZM63.526 26.7673V31.6947C63.484 32.3526 63.61 32.9965 63.876 33.5984C64.478 34.6483 65.654 35.2222 66.858 35.0822C67.768 35.1382 68.664 34.8303 69.35 34.2283C69.938 33.5284 70.218 32.6325 70.148 31.7227V26.7813H68.734V31.4987C68.762 31.9186 68.734 32.3246 68.608 32.7305C68.384 33.5004 67.656 34.0044 66.858 33.9344C66.298 33.9624 65.752 33.7384 65.388 33.3045C65.038 32.8005 64.898 32.1846 64.982 31.5827V26.7953H63.526V26.7673ZM53.53 26.7673V34.8723H54.888V30.3228C54.86 29.301 54.818 28.3491 54.79 27.6492V27.6212C55.084 28.4191 55.224 28.839 55.364 29.245L55.42 29.4129C55.448 29.5109 55.476 29.6089 55.504 29.6789V29.7489C55.574 29.9029 55.602 30.0149 55.63 30.0569L57.352 34.8723H58.696L60.726 29.077C60.726 29.077 60.754 28.993 60.768 28.937C60.81 28.811 60.866 28.629 60.936 28.4191C60.936 28.3911 60.964 28.3211 60.992 28.2511L61.034 28.1251C61.076 27.9851 61.146 27.8031 61.202 27.6212V28.0411C61.188 29.133 61.188 29.245 61.174 29.7769V30.4208V34.8863H62.616V26.7673H60.068L58.612 31.4287L58.444 31.9746L58.22 32.6465C58.192 32.7305 58.15 32.8985 58.066 33.1925L58.038 33.0665C58.01 32.9545 57.982 32.8425 57.94 32.7305C57.898 32.6046 57.856 32.4926 57.814 32.3666V32.3246C57.772 32.2406 57.744 32.1566 57.716 32.0726L57.408 31.0647L56.008 26.7673H53.53ZM64.366 24.1916L64.268 25.1995C64.59 25.2835 64.926 25.3255 65.262 25.3395C65.808 25.3395 66.34 25.1435 66.746 24.7795C67.138 24.3176 67.446 23.7717 67.628 23.1837L70.092 16.7445H68.706L67.516 20.2581C67.348 20.762 67.236 21.14 67.11 21.6439C66.998 21.28 66.956 21.14 66.872 20.902V20.86C66.816 20.748 66.774 20.622 66.718 20.4401L65.43 16.7305H63.918L66.354 23.0997C66.284 23.2957 66.2 23.4777 66.088 23.6457C65.85 24.0516 65.402 24.2896 64.94 24.2336C64.758 24.2336 64.562 24.2196 64.394 24.1636L64.366 24.1916ZM53.516 16.7585V24.8635H54.874V20.3141C54.846 19.2922 54.804 18.3403 54.776 17.6404V17.6124C55.07 18.4103 55.21 18.8303 55.35 19.2362L55.406 19.4042C55.434 19.5022 55.462 19.6002 55.49 19.6702V19.7402C55.56 19.8941 55.588 20.0061 55.616 20.0481L57.338 24.8635H58.682L60.712 19.0542C60.712 19.0542 60.74 18.9703 60.754 18.9143C60.796 18.7883 60.852 18.6063 60.922 18.3963C60.936 18.3403 60.978 18.2283 61.02 18.1164L61.048 18.0324C61.09 17.9064 61.146 17.7524 61.188 17.6124V18.0324C61.174 19.1242 61.174 19.2362 61.16 19.7682V20.4121V24.8775H62.602V16.7585H60.068L58.612 21.4199L58.444 21.9659L58.22 22.6378C58.192 22.7218 58.15 22.9038 58.066 23.1837L58.038 23.0577C58.01 22.9458 57.982 22.8338 57.94 22.7218C57.898 22.5958 57.856 22.4838 57.828 22.3578C57.8 22.2318 57.758 22.1619 57.73 22.0639L57.422 21.056L56.022 16.7585H53.558H53.516Z" fill="#8C8C8C"/>
</g>
<defs>
<clipPath id="clip0_533_297">
<rect width="375" height="59" fill="white"/>
</clipPath>
<clipPath id="clip1_533_297">
<rect width="24" height="24" fill="white" transform="translate(299 11)"/>
</clipPath>
</defs>
</svg>
