<svg width="375" height="80" viewBox="0 0 375 80" fill="none" xmlns="http://www.w3.org/2000/svg">
<rect width="375" height="80" fill="white" fill-opacity="0.82"/>
<g clip-path="url(#clip0_139_63)">
<rect x="33" y="12" width="311" height="48" rx="24" fill="#0872ED"/>
<path d="M160.76 38.86H157.8C157.18 38.86 156.76 38.88 156.26 38.94C156.32 38.48 156.34 38.22 156.34 37.64V34.38C156.34 33.76 156.32 33.48 156.26 33.04C156.72 33.1 157.14 33.12 157.8 33.12H160.76V31.8H158.34C157.66 31.8 157.26 31.82 156.8 31.9V30.72C157.24 30.8 157.64 30.82 158.32 30.82H160.76C160.74 30.26 160.72 30.08 160.66 29.74H161.98C161.9 30.12 161.9 30.3 161.88 30.82H164.76C165.48 30.82 165.8 30.8 166.24 30.74V31.9C165.78 31.82 165.4 31.8 164.7 31.8H161.88V33.12H165.18C165.88 33.12 166.26 33.1 166.74 33.04C166.68 33.5 166.66 33.84 166.66 34.38V37.64C166.66 38.18 166.68 38.48 166.74 38.94C166.22 38.88 165.78 38.86 165.18 38.86H161.88V40.26H166.1C166.88 40.26 167.34 40.22 167.82 40.16V41.38C167.26 41.3 166.84 41.28 166.1 41.28H161.88V41.54C161.88 42.14 161.92 42.78 162 43.28H160.62C160.7 42.82 160.76 42.14 160.76 41.54V41.28H156.92C156.22 41.28 155.76 41.32 155.24 41.4V40.16C155.76 40.22 156.24 40.26 156.92 40.26H160.76V38.86ZM160.76 34.04H157.48V35.52H160.76V34.04ZM161.88 34.04V35.52H165.52V34.04H161.88ZM160.76 36.4H157.48V37.94H160.76V36.4ZM161.88 36.4V37.94H165.52V36.4H161.88ZM155.22 30.2V29.34C155.22 28.86 155.2 28.48 155.14 28.1C155.7 28.16 156.2 28.18 156.98 28.18H166.04C166.82 28.18 167.32 28.16 167.9 28.1C167.84 28.48 167.82 28.8 167.82 29.32V30.16C167.82 30.74 167.84 31.06 167.9 31.44H166.62V29.2H156.38V31.44H155.14C155.2 31.02 155.22 30.7 155.22 30.2ZM150.6 28.62L151.56 27.82C152.86 29.24 153.48 29.98 154.46 31.42L153.46 32.34C152.46 30.68 151.82 29.84 150.6 28.62ZM150.24 36.68V35.36C150.72 35.44 151.02 35.46 151.78 35.46H152.78C153.38 35.46 153.78 35.44 154.32 35.36C154.24 36 154.22 36.44 154.22 37.48V41.44C154.7 42.44 155.1 42.86 155.96 43.24C156.96 43.68 158.12 43.82 160.54 43.82C164.36 43.82 166.68 43.72 168.6 43.46C168.32 44.06 168.22 44.36 168.12 44.86C165.78 44.96 163.8 45 161.58 45C157.9 45 156.82 44.88 155.64 44.32C154.82 43.92 154.12 43.32 153.54 42.42C152.64 43.32 152.22 43.68 151.22 44.44C150.92 44.68 150.86 44.72 150.46 45.1L149.78 43.78C150.7 43.36 151.8 42.54 152.98 41.4V36.58H151.7C151.04 36.58 150.74 36.6 150.24 36.68ZM174.76 41.96V43.6C174.76 44.22 174.8 44.8 174.9 45.4H173.5C173.6 44.74 173.64 44.26 173.64 43.58V41.96H171.62C170.84 41.96 170.34 41.98 169.86 42.06V40.78C170.34 40.86 170.76 40.88 171.6 40.88H173.64V39.04H172.56C171.62 39.04 171.16 39.06 170.62 39.12C170.68 38.6 170.7 38.02 170.7 37.14V33.94C170.7 33.08 170.68 32.54 170.62 32.02C171.12 32.08 171.6 32.1 172.48 32.1H173.64V30.34H171.76C170.96 30.34 170.52 30.36 170.02 30.44V29.16C170.52 29.24 170.92 29.26 171.78 29.26H173.64V29C173.64 28.38 173.6 27.88 173.5 27.26H174.9C174.8 27.88 174.76 28.36 174.76 29V29.26H176.62C177.5 29.26 177.88 29.24 178.4 29.16V30.44C177.88 30.36 177.52 30.34 176.66 30.34H174.76V32.1H176.14C177.04 32.1 177.48 32.08 177.88 32.02C177.84 32.42 177.82 32.98 177.82 33.9V37.14C177.82 38.12 177.84 38.7 177.88 39.12C177.44 39.06 177 39.04 176.06 39.04H174.76V40.88H176.56C177.36 40.88 177.72 40.86 178.22 40.78V42.06C177.7 41.98 177.28 41.96 176.5 41.96H174.76ZM174.76 38.02H176.76V35.98H174.76V38.02ZM174.76 35.02H176.76V33.12H174.76V35.02ZM173.64 33.12H171.76V35.02H173.64V33.12ZM173.64 35.98H171.76V38.02H173.64V35.98ZM181.48 35.46H180.28C179.54 35.46 179.02 35.48 178.52 35.56V34.2C179.04 34.3 179.44 34.32 180.3 34.32H186.06C186.94 34.32 187.32 34.3 187.84 34.2V35.56C187.32 35.48 186.86 35.46 186.06 35.46H182.84C182.06 38.48 181.56 39.98 180.34 42.96C182.82 42.66 183.94 42.5 185.68 42.14C184.98 40.42 184.56 39.52 183.64 37.84L184.72 37.36C186.22 40.22 186.66 41.2 187.92 44.56L186.76 45.2C186.24 43.68 186.24 43.68 186.06 43.16C184.14 43.58 182.66 43.84 178.92 44.38C178.44 44.46 178.2 44.5 177.82 44.58L177.5 43.18C178.06 43.18 178.28 43.18 179 43.1C179.96 40.74 180.14 40.28 180.68 38.48C181.06 37.24 181.24 36.58 181.48 35.46ZM179.3 30.36V28.98C179.82 29.08 180.18 29.1 181.08 29.1H185.36C186.26 29.1 186.6 29.08 187.12 28.98V30.34C186.96 30.34 186.96 30.34 186.66 30.3C186.4 30.28 185.9 30.26 185.36 30.26H181.08C180.26 30.26 179.82 30.28 179.3 30.36ZM195.66 36.6H195.14C194.3 36.6 193.7 36.62 193.24 36.68V35.5C193.78 35.58 194.24 35.6 195.14 35.6H201.48C202.4 35.6 202.84 35.58 203.4 35.5V36.68C202.94 36.62 202.34 36.6 201.5 36.6H200.78V39.08H201.78C202.7 39.08 203.22 39.06 203.7 38.98V40.18C203.2 40.1 202.66 40.08 201.78 40.08H200.78V43.16C200.78 44.06 200.8 44.5 200.9 44.88H199.52C199.62 44.46 199.64 44 199.64 43.16V40.08H196.62C196.36 42.32 195.68 43.58 193.98 45.04C193.66 44.68 193.42 44.48 192.98 44.22C193.92 43.52 194.34 43.1 194.72 42.46C195.12 41.82 195.36 41.04 195.48 40.08H194.78C193.9 40.08 193.36 40.1 192.86 40.18V38.98C193.34 39.06 193.88 39.08 194.78 39.08H195.58C195.64 38.12 195.64 38.12 195.66 36.6ZM199.64 36.6H196.8C196.8 36.78 196.8 36.78 196.8 37.06C196.8 37.68 196.76 38.4 196.72 39.08H199.64V36.6ZM191.42 34V43.18C191.42 44.28 191.46 44.9 191.54 45.42H190.06C190.14 44.88 190.18 44.26 190.18 43.18V30.04C190.18 29.06 190.16 28.48 190.1 27.84C190.64 27.9 191.2 27.92 192.2 27.92H195.24C196.22 27.92 196.7 27.9 197.26 27.84C197.22 28.4 197.2 29 197.2 29.74V32.2C197.2 33 197.22 33.56 197.26 34.06C196.78 34.02 196.1 34 195.24 34H191.42ZM191.42 28.9V30.44H196.06V28.9H191.42ZM191.42 31.4V33.02H196.06V31.4H191.42ZM206.4 30.04V43.44C206.4 44.3 206.2 44.72 205.68 44.94C205.4 45.04 205.1 45.08 204.26 45.08C204.02 45.08 202.96 45.04 202.56 45.02C202.48 44.5 202.4 44.2 202.18 43.74C202.96 43.86 203.86 43.94 204.4 43.94C205.04 43.94 205.18 43.84 205.18 43.38V34H201.08C200.24 34 199.6 34.02 199.04 34.06C199.08 33.48 199.1 33 199.1 32.2V29.74C199.1 29 199.08 28.5 199.04 27.84C199.6 27.9 200.1 27.92 201.1 27.92H204.4C205.4 27.92 205.94 27.9 206.5 27.84C206.42 28.58 206.4 29.14 206.4 30.04ZM200.26 28.9V30.44H205.18V28.9H200.26ZM200.26 31.4V33.02H205.18V31.4H200.26ZM216.06 35.86L215.76 34.44C216.04 34.46 216.24 34.48 216.6 34.48C216.72 34.48 217.02 34.46 217.3 34.46C218.68 31.42 219.6 28.68 219.74 27.3L221.26 27.68C221.06 28.12 221.06 28.12 220.5 29.84C220.08 31.04 219.68 32.02 218.62 34.38C221.5 34.14 221.94 34.1 224.46 33.78C223.8 32.66 223.38 32.04 222.26 30.62L223.36 30.06C225.1 32.42 225.72 33.44 226.96 35.84L225.82 36.52C225.44 35.68 225.34 35.48 225 34.8C221.76 35.24 220.92 35.34 217.32 35.66C216.64 35.72 216.38 35.76 216.06 35.86ZM212.72 31.44H214C214.92 31.44 215.42 31.42 215.84 31.36C215.62 33.64 215.62 33.64 215.48 34.52C215.14 36.74 214.7 38.28 213.96 39.88C214.68 40.5 215.08 40.9 216.08 41.94L215.28 43.04C214.44 42.06 214.1 41.68 213.36 41C212.36 42.68 211.42 43.72 209.66 45.06C209.38 44.64 209.12 44.36 208.74 44.08C210.46 42.82 211.48 41.74 212.42 40.18C211.44 39.38 210.86 38.98 209.44 38.12C210.2 36.42 210.74 34.8 211.26 32.56H210.6C210 32.56 209.5 32.6 209 32.68V31.32C209.52 31.4 209.98 31.44 210.64 31.44H211.5C211.86 29.7 212.04 28.4 212.04 27.62C212.04 27.56 212.04 27.48 212.02 27.38L213.46 27.52C213.36 27.88 213.34 28.06 213.24 28.68C213.12 29.36 212.96 30.26 212.72 31.44ZM214.52 32.56H212.48C212.08 34.3 211.56 36.04 210.92 37.64C212 38.38 212.36 38.62 213 39.1C213.82 37.34 214.2 35.74 214.52 32.56ZM218.3 44.34V45.5H216.98C217.04 45.08 217.06 44.56 217.06 43.72V38.96C217.06 38.12 217.04 37.56 216.98 37.1C217.46 37.16 218.02 37.18 218.76 37.18H223.68C224.64 37.18 225.2 37.16 225.58 37.1C225.52 37.42 225.48 38.1 225.48 38.4V43.42C225.48 44.48 225.5 45.02 225.6 45.5H224.22V44.34H218.3ZM218.3 38.32V43.2H224.22V38.32H218.3Z" fill="white"/>
</g>
<defs>
<clipPath id="clip0_139_63">
<rect width="311" height="48" fill="white" transform="translate(33 12)"/>
</clipPath>
</defs>
</svg>
