<svg width="94" height="44" viewBox="0 0 94 44" fill="none" xmlns="http://www.w3.org/2000/svg">
<rect width="94" height="44" transform="translate(0 0.0410156)" fill="#F8F8F8"/>
<path d="M62.62 2.42225C61.39 1.14106 59.55 0.300273 57.56 0.100086C53.64 -0.280269 50.21 1.92178 49.9 5.02468C49.61 8.03749 52.34 10.7901 56.12 11.3005C56.13 11.3005 56.15 11.3005 56.16 11.3005C56.78 11.3606 57.34 10.9202 57.43 10.2996C57.52 9.659 57.07 9.06845 56.43 8.98837C53.94 8.64805 52.05 6.9765 52.21 5.25489C52.38 3.47323 54.73 2.17202 57.32 2.43226C58.76 2.57239 60.08 3.16294 60.92 4.04376C61.37 4.50419 62.1 4.52421 62.57 4.07379C63.03 3.62337 63.05 2.89269 62.6 2.42225H62.62Z" fill="#0872EB"/>
<path d="M50.2601 13.6027C51.4901 14.8839 53.3301 15.7247 55.3201 15.9249C59.2401 16.3053 62.6701 14.1032 62.9801 11.0003C63.2901 7.89743 60.5401 5.23495 56.7601 4.72447C56.7501 4.72447 56.7301 4.72447 56.7201 4.72447C56.1001 4.66441 55.5401 5.10483 55.4501 5.7254C55.3601 6.366 55.8101 6.95655 56.4501 7.03663C58.9401 7.37694 60.8301 9.0485 60.6701 10.7701C60.5101 12.4917 58.1501 13.853 55.5601 13.5927C54.1201 13.4526 52.8001 12.8621 51.9601 11.9812C51.5101 11.5208 50.7801 11.5008 50.3101 11.9512C49.8501 12.4016 49.8301 13.1323 50.2801 13.6027H50.2601Z" fill="#0872EB"/>
<path d="M46.5301 8.57803C46.1201 7.94744 45.4201 7.5771 44.6601 7.5771H39.2201C38.6901 7.64716 38.2801 8.10759 38.3001 8.63809C38.3201 9.12854 38.7201 9.53893 39.2301 9.59898H43.8001C43.9201 9.59898 44.0401 9.63902 44.1301 9.70909C44.1301 9.70909 44.2001 9.76914 44.2601 9.84922C44.3601 10.0194 44.4201 10.4598 44.2701 10.9002C44.0901 11.4607 43.4701 12.3515 42.3001 13.0522C41.8901 13.2924 40.7901 13.933 39.2101 13.943C37.6701 13.943 36.5801 13.3525 36.2501 13.1523C36.0101 13.0122 35.3901 12.6218 34.8301 11.9712C33.8201 10.7901 33.1701 8.95839 33.4801 7.12668C33.9601 4.33408 36.6001 2.22211 39.2401 2.102C42.2801 1.96186 44.5001 4.48422 44.5601 4.55428C44.6201 4.62435 44.6601 4.66438 44.7401 4.75447C44.9901 5.03473 45.0601 5.09479 45.0901 5.1148C45.1301 5.14483 45.2701 5.25493 45.4301 5.31499C45.7301 5.42509 46.1201 5.34502 46.3901 5.12481C46.7901 4.80451 46.7801 4.29404 46.7701 4.15391C46.7701 4.1439 46.7701 4.13389 46.7701 4.12388C46.7701 4.12388 46.7301 3.6134 46.3001 3.10293C44.6001 1.06102 42.0501 0.38039 42.0501 0.38039C40.6601 0.010045 39.3001 0.0300636 38.8401 0.0500823C38.8201 0.0500823 38.8001 0.0500823 38.7901 0.0500823C34.3901 0.24026 30.8901 3.92369 31.0001 8.25773C31.0501 10.3096 31.7301 12.0513 32.9001 13.3625C35.2001 15.9549 38.4401 15.9549 39.2201 15.9549C39.4301 15.9549 43.1601 15.9049 45.4501 13.3825C46.2901 12.4516 46.5801 11.5908 46.6801 11.2005C46.8201 10.68 47.1301 9.5089 46.5301 8.57803Z" fill="#0872EB"/>
<path d="M33.8167 30.8195V29.9485C33.8167 29.2725 33.8037 28.9605 33.7387 28.6225H34.8047C34.7527 28.9735 34.7397 29.2075 34.7397 29.9745V30.8195H38.0157C38.7697 30.8195 39.0817 30.8065 39.5367 30.7415V31.7295C39.0947 31.6775 38.7307 31.6645 38.0417 31.6645H34.7397V38.1385C34.7397 38.8535 34.7527 39.1785 34.8047 39.5165H33.7387C33.8037 39.1785 33.8167 38.8275 33.8167 38.1515V31.6645H30.6317C29.9427 31.6645 29.5787 31.6775 29.1367 31.7295V30.7415C29.5917 30.8065 29.9037 30.8195 30.6447 30.8195H33.8167ZM31.0087 32.8735L31.9967 33.1335C31.9447 33.2765 31.9447 33.2895 31.7757 33.9005C31.2947 35.6685 30.5797 37.0725 29.5007 38.3985C29.1887 38.1125 29.0587 38.0345 28.6427 37.8395C29.2147 37.2545 29.5007 36.8645 29.8777 36.1495C30.4887 35.0055 30.9307 33.7445 31.0087 32.8735ZM36.5597 33.1335L37.4697 32.8865C37.5477 33.2765 37.6777 33.6405 37.9507 34.3425C38.5487 35.8635 39.0947 36.8125 39.9657 37.8265C39.5887 38.0345 39.4717 38.1255 39.1467 38.4375C38.5357 37.6055 38.2107 37.0725 37.7947 36.2145C37.4827 35.5645 37.0927 34.6155 36.8847 33.9785C36.7417 33.5625 36.6637 33.3545 36.5597 33.1335ZM41.9547 34.5635V33.4975C42.3317 33.5625 42.6827 33.5755 43.5667 33.5755H51.1197C52.0817 33.5755 52.2897 33.5625 52.6927 33.5105V34.5635C52.2767 34.5245 51.9777 34.5115 51.1067 34.5115H43.5667C42.6177 34.5115 42.3447 34.5245 41.9547 34.5635ZM58.6363 28.6875L59.7803 28.9605C59.6503 29.2075 59.5593 29.4675 59.4293 29.8965C58.4803 33.0165 57.5963 35.5125 56.7253 37.5015C58.4543 37.3845 61.5093 36.9815 63.0433 36.6825C62.3543 35.3175 61.6783 34.1995 61.0413 33.3155L61.8473 32.8735C62.8873 34.3035 64.1873 36.6565 65.0843 38.7495L64.1743 39.2435C63.8883 38.5025 63.7063 38.0865 63.4073 37.4885C61.2233 37.9175 58.6363 38.2685 55.4123 38.5675C54.9183 38.6065 54.5543 38.6585 54.3073 38.7105L54.1773 37.6315C54.4763 37.6445 54.4763 37.6445 54.5413 37.6445C54.6323 37.6445 55.3473 37.6055 55.6463 37.5795C56.4523 35.7595 56.9723 34.3815 57.6093 32.4315C58.2463 30.4685 58.5323 29.4285 58.6363 28.6875Z" fill="#0872EB"/>
</svg>
