<svg width="94" height="48" viewBox="0 0 94 48" fill="none" xmlns="http://www.w3.org/2000/svg">
<rect width="94" height="48" fill="#F8F8F8"/>
<path d="M20.6207 42.298L19.8797 43.117C18.8527 41.804 17.3837 40.387 15.7197 39.1C14.8097 40.14 14.1727 40.738 13.2367 41.427C12.3397 42.077 11.6507 42.506 10.6887 42.987C10.4807 42.597 10.3767 42.454 10.0517 42.129C11.0527 41.726 11.6897 41.375 12.6907 40.634C14.7707 39.1 16.3827 37.046 17.3317 34.771C17.3577 34.693 17.3707 34.68 17.3967 34.615C17.4227 34.576 17.4227 34.563 17.4357 34.524C17.3187 34.537 17.2797 34.537 17.1237 34.537L12.7817 34.602C12.1967 34.615 11.8197 34.641 11.4427 34.706L11.4167 33.653C11.7677 33.705 12.0017 33.718 12.4437 33.718C12.4827 33.718 12.5997 33.718 12.7817 33.718L17.4227 33.666C17.8777 33.653 18.0337 33.64 18.2547 33.562L18.8007 34.121C18.6707 34.277 18.5797 34.433 18.4367 34.758C17.7087 36.37 17.0977 37.397 16.2917 38.398C17.9947 39.698 19.1387 40.725 20.6207 42.298ZM31.6962 35.863H29.8112C29.6682 37.774 29.5252 38.554 29.1092 39.516C28.6412 40.582 27.9002 41.492 26.8862 42.246C26.3402 42.649 25.8332 42.935 24.8842 43.403C24.7022 43 24.5852 42.844 24.2472 42.571C25.3782 42.142 26.1972 41.648 26.9902 40.881C28.1862 39.737 28.7322 38.281 28.8492 35.863H25.2612C24.5202 37.046 23.9352 37.761 22.9992 38.619C22.7652 38.32 22.6482 38.229 22.2322 38.008C23.4282 37.059 24.2862 35.954 25.0142 34.42C25.4042 33.588 25.5732 33.133 25.6772 32.6L26.6652 32.912C26.5482 33.146 26.5092 33.211 26.3402 33.627C26.0412 34.316 25.8202 34.797 25.6642 35.044C25.8722 35.031 25.8722 35.031 31.7092 35.031C32.5282 35.031 32.7752 35.018 33.3082 34.953V35.902C32.9572 35.876 32.9572 35.876 31.6962 35.863ZM37.1952 33.835L37.7022 33.055C38.9762 33.575 39.8212 34.004 40.9262 34.693L40.3932 35.564C39.4962 34.888 38.1442 34.173 37.1952 33.835ZM36.1682 36.955L36.6882 36.162C37.9232 36.669 38.8592 37.137 39.9902 37.852L39.4832 38.736C38.5342 38.034 37.3512 37.397 36.1682 36.955ZM44.0332 32.925L44.7092 32.587C45.2682 33.224 45.5802 33.666 46.0092 34.42L45.3462 34.771C44.8912 33.978 44.6182 33.588 44.0332 32.925ZM36.6102 43.169L36.3502 42.103C37.1952 42.103 38.5472 41.791 39.8472 41.297C41.4592 40.686 42.6942 39.763 43.7472 38.398C44.4752 37.449 44.9042 36.63 45.3072 35.473C45.6322 35.824 45.7622 35.928 46.1132 36.175C44.9822 38.879 43.3962 40.634 41.1082 41.778C40.1982 42.22 38.8852 42.675 37.8192 42.896C37.6112 42.935 37.3772 42.987 37.1172 43.039C36.8572 43.091 36.8052 43.104 36.6102 43.169ZM45.3072 32.275L45.9832 31.937C46.5292 32.548 46.8542 33.003 47.2832 33.757L46.6072 34.121C46.1652 33.328 45.8922 32.938 45.3072 32.275ZM54.6988 42.233H56.2458C56.8568 42.233 57.0778 42.22 57.4158 42.155V43.104C57.1038 43.052 56.7658 43.039 56.2328 43.039H49.8628C49.3038 43.039 48.9918 43.052 48.6798 43.104V42.155C49.0308 42.22 49.2388 42.233 49.8498 42.233H53.8018C54.1008 40.842 54.3998 38.931 54.5168 37.761H51.0458C50.3048 37.761 50.2398 37.761 49.9018 37.813V36.877C50.2138 36.929 50.5518 36.955 51.0588 36.955H54.5428C54.8548 36.955 54.9718 36.942 55.1538 36.864L55.5828 37.241C55.4788 37.462 55.4658 37.501 55.3748 38.151C55.0758 40.218 54.9718 40.868 54.6988 42.233ZM60.7438 38.541V37.475C61.1208 37.54 61.4718 37.553 62.3558 37.553H69.9088C70.8708 37.553 71.0788 37.54 71.4818 37.488V38.541C71.0658 38.502 70.7668 38.489 69.8958 38.489H62.3558C61.4068 38.489 61.1338 38.502 60.7438 38.541ZM75.5893 33.094L76.6683 33.159C76.6163 33.484 76.6163 33.484 76.5903 34.277C76.4863 37.8 76.3823 38.762 75.8883 40.075C75.4463 41.284 74.8223 42.155 73.6393 43.286C73.3793 42.948 73.2493 42.831 72.8593 42.584C73.9253 41.739 74.6273 40.803 75.0563 39.594C75.4593 38.463 75.6413 36.76 75.6413 34.017C75.6413 33.549 75.6283 33.393 75.5893 33.094ZM78.8263 33.003L79.8923 33.016C79.8273 33.328 79.8143 33.562 79.8143 34.16L79.7363 42.012C80.8153 41.609 81.4783 41.193 82.1543 40.504C82.8693 39.763 83.3763 38.905 83.6883 37.904C83.9613 38.255 84.0653 38.372 84.4163 38.658C83.7793 40.153 82.9213 41.232 81.8033 41.999C81.2313 42.389 80.7113 42.649 79.9443 42.948C79.7103 43.039 79.7103 43.039 79.5283 43.104C79.3723 43.169 79.3463 43.182 79.2293 43.247L78.7093 42.649C78.7873 42.428 78.8003 42.324 78.8003 41.765L78.8783 34.16C78.8783 33.315 78.8783 33.315 78.8263 33.003Z" fill="#0872EB"/>
<g clip-path="url(#clip0_536_391)">
<path d="M47 0C53.6274 0 59 5.37258 59 12C59 18.6274 53.6274 24 47 24C40.3726 24 35 18.6274 35 12C35 5.37258 40.3726 0 47 0ZM47 3.09668C42.0829 3.09668 38.0967 7.08288 38.0967 12C38.0967 16.9171 42.0829 20.9033 47 20.9033C51.9171 20.9033 55.9033 16.9171 55.9033 12C55.9033 7.08288 51.9171 3.09668 47 3.09668ZM46.6133 4.64551C47.4294 4.6457 48.0981 5.27707 48.1572 6.07812L48.1611 6.19336V10.8389H52.0322C52.8485 10.8389 53.517 11.4703 53.5762 12.2715L53.5811 12.3867C53.5811 13.203 52.9486 13.8725 52.1475 13.9316L52.0322 13.9355H46.6133C45.7971 13.9355 45.1276 13.304 45.0684 12.5029L45.0645 12.3867V6.19336C45.0646 5.3383 45.7582 4.64551 46.6133 4.64551Z" fill="#0872EB"/>
</g>
<defs>
<clipPath id="clip0_536_391">
<rect width="24" height="24" fill="white" transform="translate(35)"/>
</clipPath>
</defs>
</svg>
