<svg width="375" height="59" viewBox="0 0 375 59" fill="none" xmlns="http://www.w3.org/2000/svg">
<g clip-path="url(#clip0_533_365)">
<path d="M0 0H375V59H0V0Z" fill="#F8F8F8"/>
<path d="M44.689 53V43.471H46.132L47.952 48.567C48.0733 48.8877 48.1903 49.217 48.303 49.555C48.4156 49.893 48.5283 50.2267 48.641 50.556H48.693C48.8143 50.2267 48.927 49.893 49.031 49.555C49.1436 49.217 49.252 48.8877 49.356 48.567L51.176 43.471H52.619V53H51.501V47.722C51.501 47.4447 51.5096 47.1457 51.527 46.825C51.5443 46.4957 51.566 46.1663 51.592 45.837C51.618 45.499 51.6396 45.1913 51.657 44.914H51.605L50.838 47.085L49.044 52.038H48.238L46.431 47.085L45.664 44.914H45.612C45.6466 45.1913 45.6726 45.499 45.69 45.837C45.716 46.1663 45.7333 46.4957 45.742 46.825C45.7593 47.1457 45.768 47.4447 45.768 47.722V53H44.689ZM55.2388 56.042C55.0741 56.042 54.9224 56.029 54.7838 56.003C54.6451 55.977 54.5194 55.9423 54.4068 55.899L54.6408 54.95C54.7101 54.976 54.7924 55.002 54.8878 55.028C54.9831 55.054 55.0828 55.067 55.1868 55.067C55.5854 55.067 55.9104 54.9197 56.1618 54.625C56.4218 54.339 56.6254 53.9793 56.7728 53.546L56.9288 53.013L54.0948 45.941H55.3298L56.7598 49.854C56.8724 50.166 56.9851 50.4953 57.0978 50.842C57.2191 51.1887 57.3404 51.5267 57.4618 51.856H57.5268C57.6221 51.5267 57.7174 51.193 57.8128 50.855C57.9168 50.5083 58.0121 50.1747 58.0988 49.854L59.3728 45.941H60.5298L57.8778 53.598C57.7131 54.0573 57.5138 54.469 57.2798 54.833C57.0458 55.2057 56.7641 55.5003 56.4348 55.717C56.1054 55.9337 55.7068 56.042 55.2388 56.042ZM62.0181 53V43.471H63.4611L65.2811 48.567C65.4024 48.8877 65.5194 49.217 65.6321 49.555C65.7447 49.893 65.8574 50.2267 65.9701 50.556H66.0221C66.1434 50.2267 66.2561 49.893 66.3601 49.555C66.4727 49.217 66.5811 48.8877 66.6851 48.567L68.5051 43.471H69.9481V53H68.8301V47.722C68.8301 47.4447 68.8387 47.1457 68.8561 46.825C68.8734 46.4957 68.8951 46.1663 68.9211 45.837C68.9471 45.499 68.9687 45.1913 68.9861 44.914H68.9341L68.1671 47.085L66.3731 52.038H65.5671L63.7601 47.085L62.9931 44.914H62.9411C62.9757 45.1913 63.0017 45.499 63.0191 45.837C63.0451 46.1663 63.0624 46.4957 63.0711 46.825C63.0884 47.1457 63.0971 47.4447 63.0971 47.722V53H62.0181ZM75.9479 53.169C75.4625 53.169 75.0119 53.0997 74.5959 52.961C74.1799 52.8223 73.8159 52.5927 73.5039 52.272C73.2005 51.9513 72.9622 51.5267 72.7889 50.998C72.6155 50.4693 72.5289 49.828 72.5289 49.074V43.471H73.7249V49.1C73.7249 49.8627 73.8245 50.465 74.0239 50.907C74.2232 51.3403 74.4875 51.6523 74.8169 51.843C75.1549 52.025 75.5319 52.116 75.9479 52.116C76.3725 52.116 76.7539 52.025 77.0919 51.843C77.4299 51.6523 77.6985 51.3403 77.8979 50.907C78.1059 50.465 78.2099 49.8627 78.2099 49.1V43.471H79.3669V49.074C79.3669 49.828 79.2802 50.4693 79.1069 50.998C78.9422 51.5267 78.7039 51.9513 78.3919 52.272C78.0799 52.5927 77.7159 52.8223 77.2999 52.961C76.8839 53.0997 76.4332 53.169 75.9479 53.169Z" fill="#676565"/>
<path d="M175.003 42.808C174.994 42.8687 174.981 42.9553 174.964 43.068C174.955 43.172 174.946 43.2847 174.938 43.406C174.929 43.5273 174.925 43.6357 174.925 43.731C174.925 43.9563 174.925 44.2207 174.925 44.524C174.925 44.8187 174.925 45.109 174.925 45.395C174.925 45.681 174.925 45.9323 174.925 46.149C174.925 46.3223 174.925 46.5737 174.925 46.903C174.925 47.2323 174.925 47.605 174.925 48.021C174.925 48.4283 174.925 48.853 174.925 49.295C174.925 49.737 174.925 50.1617 174.925 50.569C174.925 50.9677 174.925 51.3273 174.925 51.648C174.925 51.96 174.925 52.194 174.925 52.35C174.925 52.688 174.838 52.9437 174.665 53.117C174.491 53.2903 174.205 53.377 173.807 53.377C173.625 53.377 173.421 53.3727 173.196 53.364C172.979 53.3553 172.762 53.3423 172.546 53.325C172.329 53.3163 172.134 53.3033 171.961 53.286L171.87 52.259C172.156 52.311 172.433 52.35 172.702 52.376C172.979 52.3933 173.2 52.402 173.365 52.402C173.547 52.402 173.677 52.363 173.755 52.285C173.833 52.207 173.872 52.0813 173.872 51.908C173.872 51.7867 173.872 51.5787 173.872 51.284C173.872 50.9893 173.872 50.6427 173.872 50.244C173.872 49.8453 173.872 49.4293 173.872 48.996C173.872 48.5627 173.872 48.151 173.872 47.761C173.872 47.3623 173.872 47.02 173.872 46.734C173.872 46.448 173.872 46.253 173.872 46.149C173.872 45.993 173.872 45.7677 173.872 45.473C173.872 45.1783 173.872 44.8707 173.872 44.55C173.872 44.2293 173.872 43.9563 173.872 43.731C173.872 43.5923 173.863 43.4277 173.846 43.237C173.828 43.0463 173.807 42.9033 173.781 42.808H175.003ZM169.153 44.992C169.343 45.018 169.521 45.0397 169.686 45.057C169.859 45.0657 170.05 45.07 170.258 45.07C170.362 45.07 170.574 45.07 170.895 45.07C171.215 45.07 171.601 45.07 172.052 45.07C172.511 45.07 173.001 45.07 173.521 45.07C174.041 45.07 174.561 45.07 175.081 45.07C175.609 45.07 176.099 45.07 176.55 45.07C177.009 45.07 177.395 45.07 177.707 45.07C178.027 45.07 178.244 45.07 178.357 45.07C178.513 45.07 178.686 45.0657 178.877 45.057C179.076 45.0397 179.258 45.0223 179.423 45.005V46.084C179.249 46.0667 179.072 46.058 178.89 46.058C178.708 46.0493 178.534 46.045 178.37 46.045C178.257 46.045 178.04 46.045 177.72 46.045C177.408 46.045 177.022 46.045 176.563 46.045C176.112 46.045 175.627 46.045 175.107 46.045C174.587 46.045 174.067 46.045 173.547 46.045C173.027 46.045 172.537 46.045 172.078 46.045C171.627 46.045 171.241 46.045 170.921 46.045C170.6 46.045 170.383 46.045 170.271 46.045C170.071 46.045 169.881 46.0493 169.699 46.058C169.517 46.0667 169.335 46.0797 169.153 46.097V44.992ZM172.143 48.06C172.004 48.3373 171.831 48.6407 171.623 48.97C171.423 49.2993 171.202 49.6287 170.96 49.958C170.726 50.2873 170.492 50.5993 170.258 50.894C170.032 51.18 169.829 51.4227 169.647 51.622L168.75 51.011C168.966 50.8117 169.192 50.5733 169.426 50.296C169.668 50.0187 169.902 49.724 170.128 49.412C170.353 49.1 170.561 48.788 170.752 48.476C170.942 48.164 171.103 47.878 171.233 47.618L172.143 48.06ZM177.577 47.618C177.75 47.826 177.936 48.0773 178.136 48.372C178.344 48.658 178.552 48.9613 178.76 49.282C178.976 49.6027 179.176 49.9147 179.358 50.218C179.54 50.5213 179.696 50.79 179.826 51.024L178.864 51.557C178.742 51.297 178.591 51.011 178.409 50.699C178.235 50.387 178.049 50.0707 177.85 49.75C177.65 49.4293 177.447 49.126 177.239 48.84C177.039 48.554 176.857 48.307 176.693 48.099L177.577 47.618ZM182.023 47.371C182.153 47.3797 182.313 47.3927 182.504 47.41C182.694 47.4187 182.902 47.4273 183.128 47.436C183.362 47.436 183.596 47.436 183.83 47.436C183.968 47.436 184.181 47.436 184.467 47.436C184.761 47.436 185.104 47.436 185.494 47.436C185.884 47.436 186.295 47.436 186.729 47.436C187.171 47.436 187.608 47.436 188.042 47.436C188.484 47.436 188.9 47.436 189.29 47.436C189.688 47.436 190.031 47.436 190.317 47.436C190.603 47.436 190.815 47.436 190.954 47.436C191.283 47.436 191.565 47.4273 191.799 47.41C192.033 47.3927 192.219 47.3797 192.358 47.371V48.645C192.228 48.6363 192.033 48.6233 191.773 48.606C191.521 48.5887 191.253 48.58 190.967 48.58C190.828 48.58 190.611 48.58 190.317 48.58C190.022 48.58 189.68 48.58 189.29 48.58C188.908 48.58 188.497 48.58 188.055 48.58C187.613 48.58 187.171 48.58 186.729 48.58C186.295 48.58 185.884 48.58 185.494 48.58C185.112 48.58 184.774 48.58 184.48 48.58C184.185 48.58 183.968 48.58 183.83 48.58C183.474 48.58 183.136 48.5887 182.816 48.606C182.495 48.6147 182.231 48.6277 182.023 48.645V47.371ZM200.089 43.302C200.029 43.4667 199.959 43.64 199.881 43.822C199.812 44.004 199.734 44.2337 199.647 44.511C199.569 44.7277 199.47 45.031 199.348 45.421C199.227 45.811 199.088 46.2443 198.932 46.721C198.785 47.189 198.625 47.6743 198.451 48.177C198.287 48.6797 198.122 49.1693 197.957 49.646C197.793 50.1227 197.641 50.5517 197.502 50.933C197.372 51.3057 197.26 51.6047 197.164 51.83L195.981 51.869C196.094 51.609 196.224 51.2797 196.371 50.881C196.519 50.4823 196.679 50.036 196.852 49.542C197.026 49.048 197.195 48.5453 197.359 48.034C197.533 47.514 197.697 47.0113 197.853 46.526C198.009 46.0407 198.144 45.603 198.256 45.213C198.378 44.823 198.473 44.5153 198.542 44.29C198.62 43.9867 198.677 43.7483 198.711 43.575C198.746 43.393 198.772 43.2153 198.789 43.042L200.089 43.302ZM202.559 47.657C202.793 47.995 203.045 48.3937 203.313 48.853C203.591 49.3123 203.864 49.7977 204.132 50.309C204.41 50.8117 204.661 51.2927 204.886 51.752C205.12 52.2113 205.307 52.61 205.445 52.948L204.353 53.442C204.223 53.0867 204.05 52.6707 203.833 52.194C203.617 51.7087 203.378 51.2103 203.118 50.699C202.867 50.1877 202.607 49.7023 202.338 49.243C202.07 48.7837 201.818 48.4023 201.584 48.099L202.559 47.657ZM195.474 51.557C195.786 51.5397 196.163 51.5137 196.605 51.479C197.056 51.4357 197.541 51.3923 198.061 51.349C198.581 51.297 199.11 51.2407 199.647 51.18C200.193 51.1193 200.722 51.063 201.233 51.011C201.745 50.9503 202.213 50.894 202.637 50.842C203.062 50.7813 203.413 50.7337 203.69 50.699L203.976 51.7C203.682 51.7433 203.309 51.791 202.858 51.843C202.408 51.895 201.918 51.9513 201.389 52.012C200.869 52.064 200.328 52.1247 199.764 52.194C199.21 52.2547 198.668 52.3153 198.139 52.376C197.611 52.4367 197.121 52.4887 196.67 52.532C196.22 52.5753 195.843 52.61 195.539 52.636C195.375 52.6533 195.201 52.675 195.019 52.701C194.837 52.727 194.651 52.753 194.46 52.779L194.265 51.57C194.465 51.5787 194.668 51.583 194.876 51.583C195.093 51.5743 195.292 51.5657 195.474 51.557Z" fill="#0872ED"/>
<path d="M282.857 44.303C282.814 44.355 282.757 44.4417 282.688 44.563C282.627 44.6757 282.575 44.7797 282.532 44.875C282.367 45.2997 282.151 45.772 281.882 46.292C281.613 46.8033 281.314 47.3103 280.985 47.813C280.656 48.3157 280.309 48.7707 279.945 49.178C279.468 49.7153 278.944 50.2397 278.372 50.751C277.8 51.2537 277.198 51.726 276.565 52.168C275.932 52.6013 275.274 52.974 274.589 53.286L273.757 52.415C274.459 52.1377 275.131 51.7953 275.772 51.388C276.422 50.972 277.029 50.5213 277.592 50.036C278.164 49.542 278.671 49.048 279.113 48.554C279.408 48.216 279.698 47.839 279.984 47.423C280.279 46.9983 280.539 46.5693 280.764 46.136C280.998 45.694 281.167 45.2953 281.271 44.94C281.202 44.94 281.037 44.94 280.777 44.94C280.517 44.94 280.209 44.94 279.854 44.94C279.499 44.94 279.126 44.94 278.736 44.94C278.346 44.94 277.973 44.94 277.618 44.94C277.263 44.94 276.955 44.94 276.695 44.94C276.444 44.94 276.279 44.94 276.201 44.94C276.054 44.94 275.885 44.9443 275.694 44.953C275.512 44.9617 275.343 44.9703 275.187 44.979C275.04 44.9877 274.94 44.9963 274.888 45.005V43.822C274.949 43.8307 275.057 43.8437 275.213 43.861C275.378 43.8697 275.551 43.8783 275.733 43.887C275.915 43.8957 276.071 43.9 276.201 43.9C276.296 43.9 276.47 43.9 276.721 43.9C276.972 43.9 277.271 43.9 277.618 43.9C277.973 43.9 278.342 43.9 278.723 43.9C279.104 43.9 279.468 43.9 279.815 43.9C280.17 43.9 280.474 43.9 280.725 43.9C280.976 43.9 281.141 43.9 281.219 43.9C281.436 43.9 281.626 43.8913 281.791 43.874C281.964 43.8567 282.099 43.8307 282.194 43.796L282.857 44.303ZM280.114 48.489C280.469 48.7837 280.833 49.1087 281.206 49.464C281.587 49.8193 281.96 50.1877 282.324 50.569C282.688 50.9417 283.026 51.3013 283.338 51.648C283.65 51.986 283.919 52.2937 284.144 52.571L283.234 53.351C282.931 52.935 282.567 52.4887 282.142 52.012C281.717 51.5267 281.267 51.0457 280.79 50.569C280.322 50.0837 279.85 49.6373 279.373 49.23L280.114 48.489ZM290.813 42.951C290.761 43.0983 290.705 43.2543 290.644 43.419C290.592 43.575 290.54 43.7223 290.488 43.861C290.427 44.0603 290.349 44.277 290.254 44.511C290.167 44.745 290.072 44.9877 289.968 45.239C289.864 45.4817 289.751 45.7243 289.63 45.967C289.457 46.2963 289.244 46.6517 288.993 47.033C288.742 47.4143 288.473 47.7783 288.187 48.125C287.901 48.463 287.619 48.7447 287.342 48.97L286.315 48.359C286.549 48.1857 286.779 47.982 287.004 47.748C287.238 47.514 287.455 47.267 287.654 47.007C287.862 46.7383 288.048 46.4783 288.213 46.227C288.378 45.9757 288.516 45.7547 288.629 45.564C288.811 45.2347 288.963 44.9097 289.084 44.589C289.205 44.2683 289.301 43.9867 289.37 43.744C289.422 43.5707 289.465 43.3973 289.5 43.224C289.535 43.0507 289.556 42.8773 289.565 42.704L290.813 42.951ZM289.188 45.174C289.301 45.174 289.5 45.174 289.786 45.174C290.072 45.174 290.41 45.174 290.8 45.174C291.19 45.174 291.606 45.174 292.048 45.174C292.49 45.174 292.932 45.174 293.374 45.174C293.816 45.174 294.228 45.174 294.609 45.174C294.999 45.174 295.324 45.174 295.584 45.174C295.853 45.174 296.035 45.174 296.13 45.174C296.295 45.174 296.49 45.1697 296.715 45.161C296.949 45.1523 297.161 45.135 297.352 45.109V46.227C297.144 46.2097 296.923 46.201 296.689 46.201C296.464 46.1923 296.277 46.188 296.13 46.188C296.017 46.188 295.792 46.188 295.454 46.188C295.116 46.188 294.704 46.188 294.219 46.188C293.742 46.188 293.235 46.188 292.698 46.188C292.169 46.188 291.654 46.188 291.151 46.188C290.657 46.188 290.224 46.188 289.851 46.188C289.478 46.188 289.214 46.188 289.058 46.188L289.188 45.174ZM293.959 45.733C293.924 46.7297 293.812 47.6267 293.621 48.424C293.43 49.2213 293.162 49.9363 292.815 50.569C292.477 51.193 292.074 51.7477 291.606 52.233C291.138 52.7097 290.614 53.1343 290.033 53.507L288.928 52.753C289.11 52.6837 289.292 52.597 289.474 52.493C289.665 52.3803 289.834 52.2677 289.981 52.155C290.319 51.9037 290.653 51.596 290.982 51.232C291.311 50.868 291.615 50.4303 291.892 49.919C292.169 49.399 292.395 48.7967 292.568 48.112C292.741 47.4187 292.837 46.6213 292.854 45.72L293.959 45.733ZM307.765 43.302C307.878 43.4493 308.008 43.6443 308.155 43.887C308.311 44.1297 308.463 44.3767 308.61 44.628C308.757 44.8793 308.879 45.109 308.974 45.317L308.233 45.655C308.129 45.4297 308.012 45.2 307.882 44.966C307.752 44.7233 307.618 44.485 307.479 44.251C307.34 44.017 307.197 43.8003 307.05 43.601L307.765 43.302ZM309.468 42.678C309.589 42.8253 309.724 43.016 309.871 43.25C310.018 43.484 310.17 43.7267 310.326 43.978C310.482 44.2293 310.612 44.459 310.716 44.667L309.975 45.005C309.862 44.771 309.737 44.537 309.598 44.303C309.459 44.069 309.316 43.8393 309.169 43.614C309.03 43.3887 308.887 43.1807 308.74 42.99L309.468 42.678ZM302.214 43.107C302.405 43.211 302.63 43.3497 302.89 43.523C303.15 43.6877 303.419 43.861 303.696 44.043C303.973 44.2163 304.229 44.3853 304.463 44.55C304.706 44.706 304.896 44.836 305.035 44.94L304.424 45.837C304.268 45.7157 304.069 45.5727 303.826 45.408C303.592 45.2433 303.341 45.0743 303.072 44.901C302.812 44.719 302.552 44.55 302.292 44.394C302.041 44.2293 301.82 44.0907 301.629 43.978L302.214 43.107ZM300.264 52.402C300.741 52.3153 301.23 52.2027 301.733 52.064C302.236 51.9253 302.734 51.7563 303.228 51.557C303.722 51.3577 304.186 51.1367 304.619 50.894C305.338 50.478 306.006 50.0187 306.621 49.516C307.236 49.0047 307.791 48.463 308.285 47.891C308.779 47.319 309.199 46.7297 309.546 46.123L310.17 47.202C309.607 48.0687 308.892 48.9093 308.025 49.724C307.158 50.53 306.205 51.2363 305.165 51.843C304.732 52.0943 304.255 52.3283 303.735 52.545C303.224 52.753 302.717 52.935 302.214 53.091C301.72 53.2557 301.269 53.377 300.862 53.455L300.264 52.402ZM300.251 46.032C300.442 46.136 300.671 46.266 300.94 46.422C301.209 46.578 301.482 46.7427 301.759 46.916C302.036 47.0893 302.292 47.254 302.526 47.41C302.769 47.5573 302.959 47.683 303.098 47.787L302.513 48.697C302.348 48.5757 302.145 48.437 301.902 48.281C301.668 48.125 301.417 47.9603 301.148 47.787C300.879 47.6137 300.615 47.4533 300.355 47.306C300.095 47.15 299.865 47.02 299.666 46.916L300.251 46.032ZM320.124 46.812C320.107 46.8727 320.089 46.942 320.072 47.02C320.055 47.098 320.042 47.163 320.033 47.215C320.016 47.4143 319.981 47.683 319.929 48.021C319.886 48.359 319.834 48.7317 319.773 49.139C319.712 49.5463 319.652 49.9537 319.591 50.361C319.53 50.7597 319.474 51.128 319.422 51.466C319.379 51.7953 319.34 52.051 319.305 52.233H318.2C318.235 52.0857 318.274 51.8603 318.317 51.557C318.369 51.245 318.425 50.894 318.486 50.504C318.555 50.114 318.616 49.724 318.668 49.334C318.72 48.9353 318.763 48.5757 318.798 48.255C318.841 47.9257 318.867 47.6743 318.876 47.501C318.711 47.501 318.477 47.501 318.174 47.501C317.871 47.501 317.537 47.501 317.173 47.501C316.818 47.501 316.467 47.501 316.12 47.501C315.773 47.501 315.474 47.501 315.223 47.501C314.98 47.501 314.82 47.501 314.742 47.501C314.551 47.501 314.369 47.5053 314.196 47.514C314.031 47.5227 313.867 47.5313 313.702 47.54V46.448C313.806 46.4653 313.914 46.4783 314.027 46.487C314.148 46.4957 314.27 46.5043 314.391 46.513C314.512 46.5217 314.625 46.526 314.729 46.526C314.833 46.526 315.011 46.526 315.262 46.526C315.513 46.526 315.799 46.526 316.12 46.526C316.449 46.526 316.783 46.526 317.121 46.526C317.459 46.526 317.767 46.526 318.044 46.526C318.33 46.526 318.542 46.526 318.681 46.526C318.759 46.526 318.837 46.5217 318.915 46.513C319.002 46.5043 319.084 46.4957 319.162 46.487C319.24 46.4697 319.296 46.4523 319.331 46.435L320.124 46.812ZM312.48 51.817C312.636 51.8257 312.805 51.8387 312.987 51.856C313.169 51.8647 313.36 51.869 313.559 51.869C313.672 51.869 313.906 51.869 314.261 51.869C314.625 51.869 315.054 51.869 315.548 51.869C316.042 51.869 316.558 51.869 317.095 51.869C317.641 51.869 318.161 51.869 318.655 51.869C319.158 51.869 319.587 51.869 319.942 51.869C320.297 51.869 320.531 51.869 320.644 51.869C320.783 51.869 320.952 51.8647 321.151 51.856C321.359 51.8473 321.532 51.8387 321.671 51.83V52.883C321.593 52.8743 321.493 52.87 321.372 52.87C321.251 52.87 321.129 52.87 321.008 52.87C320.887 52.8613 320.778 52.857 320.683 52.857C320.562 52.857 320.319 52.857 319.955 52.857C319.591 52.857 319.158 52.857 318.655 52.857C318.152 52.857 317.628 52.857 317.082 52.857C316.536 52.857 316.016 52.857 315.522 52.857C315.028 52.857 314.603 52.857 314.248 52.857C313.893 52.857 313.663 52.857 313.559 52.857C313.36 52.857 313.178 52.8613 313.013 52.87C312.848 52.87 312.671 52.8787 312.48 52.896V51.817ZM324.869 47.371C324.999 47.3797 325.159 47.3927 325.35 47.41C325.541 47.4187 325.749 47.4273 325.974 47.436C326.208 47.436 326.442 47.436 326.676 47.436C326.815 47.436 327.027 47.436 327.313 47.436C327.608 47.436 327.95 47.436 328.34 47.436C328.73 47.436 329.142 47.436 329.575 47.436C330.017 47.436 330.455 47.436 330.888 47.436C331.33 47.436 331.746 47.436 332.136 47.436C332.535 47.436 332.877 47.436 333.163 47.436C333.449 47.436 333.661 47.436 333.8 47.436C334.129 47.436 334.411 47.4273 334.645 47.41C334.879 47.3927 335.065 47.3797 335.204 47.371V48.645C335.074 48.6363 334.879 48.6233 334.619 48.606C334.368 48.5887 334.099 48.58 333.813 48.58C333.674 48.58 333.458 48.58 333.163 48.58C332.868 48.58 332.526 48.58 332.136 48.58C331.755 48.58 331.343 48.58 330.901 48.58C330.459 48.58 330.017 48.58 329.575 48.58C329.142 48.58 328.73 48.58 328.34 48.58C327.959 48.58 327.621 48.58 327.326 48.58C327.031 48.58 326.815 48.58 326.676 48.58C326.321 48.58 325.983 48.5887 325.662 48.606C325.341 48.6147 325.077 48.6277 324.869 48.645V47.371ZM343.355 52.727C343.381 52.623 343.398 52.5103 343.407 52.389C343.424 52.259 343.433 52.129 343.433 51.999C343.433 51.9123 343.433 51.7217 343.433 51.427C343.433 51.1323 343.433 50.7727 343.433 50.348C343.433 49.9147 343.433 49.4467 343.433 48.944C343.433 48.4413 343.433 47.9387 343.433 47.436C343.433 46.9247 343.433 46.448 343.433 46.006C343.433 45.564 343.433 45.1827 343.433 44.862C343.433 44.5413 343.433 44.3247 343.433 44.212C343.433 43.9607 343.424 43.7527 343.407 43.588C343.39 43.4147 343.377 43.302 343.368 43.25H344.564C344.564 43.302 344.555 43.4147 344.538 43.588C344.521 43.7613 344.512 43.9693 344.512 44.212C344.512 44.3333 344.512 44.55 344.512 44.862C344.512 45.1653 344.512 45.538 344.512 45.98C344.512 46.4133 344.512 46.8813 344.512 47.384C344.512 47.878 344.512 48.3677 344.512 48.853C344.512 49.3383 344.512 49.789 344.512 50.205C344.512 50.6123 344.512 50.9503 344.512 51.219C344.512 51.4877 344.512 51.6523 344.512 51.713C344.919 51.5223 345.353 51.271 345.812 50.959C346.271 50.647 346.718 50.283 347.151 49.867C347.593 49.451 347.979 49.0003 348.308 48.515L348.919 49.399C348.546 49.9017 348.109 50.3827 347.606 50.842C347.112 51.3013 346.596 51.713 346.059 52.077C345.522 52.441 344.997 52.7487 344.486 53C344.382 53.0607 344.291 53.117 344.213 53.169C344.144 53.221 344.087 53.2643 344.044 53.299L343.355 52.727ZM337.401 52.662C337.947 52.272 338.411 51.7997 338.792 51.245C339.173 50.6903 339.464 50.0967 339.663 49.464C339.758 49.1693 339.832 48.801 339.884 48.359C339.936 47.917 339.975 47.449 340.001 46.955C340.027 46.4523 340.04 45.967 340.04 45.499C340.049 45.0223 340.053 44.602 340.053 44.238C340.053 44.0473 340.044 43.8783 340.027 43.731C340.01 43.575 339.988 43.4277 339.962 43.289H341.158C341.149 43.341 341.141 43.419 341.132 43.523C341.123 43.6183 341.115 43.7267 341.106 43.848C341.097 43.9693 341.093 44.095 341.093 44.225C341.093 44.589 341.089 45.018 341.08 45.512C341.071 45.9973 341.05 46.5087 341.015 47.046C340.989 47.5747 340.95 48.0773 340.898 48.554C340.855 49.0307 340.785 49.4293 340.69 49.75C340.499 50.4433 340.2 51.0977 339.793 51.713C339.394 52.3283 338.922 52.8657 338.376 53.325L337.401 52.662Z" fill="#676565"/>
<path d="M202.62 17.42C201.39 16.14 199.55 15.3 197.56 15.1C193.64 14.72 190.21 16.92 189.9 20.02C189.61 23.03 192.34 25.78 196.12 26.29C196.13 26.29 196.15 26.29 196.16 26.29C196.78 26.35 197.34 25.91 197.43 25.29C197.52 24.65 197.07 24.06 196.43 23.98C193.94 23.64 192.05 21.97 192.21 20.25C192.38 18.47 194.73 17.17 197.32 17.43C198.76 17.57 200.08 18.16 200.92 19.04C201.37 19.5 202.1 19.52 202.57 19.07C203.03 18.62 203.05 17.89 202.6 17.42H202.62Z" fill="#0872EB"/>
<path d="M190.26 28.5901C191.49 29.8701 193.33 30.7101 195.32 30.9101C199.24 31.2901 202.67 29.0901 202.98 25.9901C203.29 22.8901 200.54 20.2301 196.76 19.7201C196.75 19.7201 196.73 19.7201 196.72 19.7201C196.1 19.6601 195.54 20.1001 195.45 20.7201C195.36 21.3601 195.81 21.9501 196.45 22.0301C198.94 22.3701 200.83 24.0401 200.67 25.7601C200.51 27.4801 198.15 28.8401 195.56 28.5801C194.12 28.4401 192.8 27.8501 191.96 26.9701C191.51 26.5101 190.78 26.4901 190.31 26.9401C189.85 27.3901 189.83 28.1201 190.28 28.5901H190.26Z" fill="#0872EB"/>
<path d="M186.53 23.5701C186.12 22.9401 185.42 22.5701 184.66 22.5701H179.22C178.69 22.6401 178.28 23.1001 178.3 23.6301C178.32 24.1201 178.72 24.5301 179.23 24.5901H183.8C183.92 24.5901 184.04 24.6301 184.13 24.7001C184.13 24.7001 184.2 24.7601 184.26 24.8401C184.36 25.0101 184.42 25.4501 184.27 25.8901C184.09 26.4501 183.47 27.3401 182.3 28.0401C181.89 28.2801 180.79 28.9201 179.21 28.9301C177.67 28.9301 176.58 28.3401 176.25 28.1401C176.01 28.0001 175.39 27.6101 174.83 26.9601C173.82 25.7801 173.17 23.9501 173.48 22.1201C173.96 19.3301 176.6 17.2201 179.24 17.1001C182.28 16.9601 184.5 19.4801 184.56 19.5501C184.62 19.6201 184.66 19.6601 184.74 19.7501C184.99 20.0301 185.06 20.0901 185.09 20.1101C185.13 20.1401 185.27 20.2501 185.43 20.3101C185.73 20.4201 186.12 20.3401 186.39 20.1201C186.79 19.8001 186.78 19.2901 186.77 19.1501C186.77 19.1401 186.77 19.1301 186.77 19.1201C186.77 19.1201 186.73 18.6101 186.3 18.1001C184.6 16.0601 182.05 15.3801 182.05 15.3801C180.66 15.0101 179.3 15.0301 178.84 15.0501C178.82 15.0501 178.8 15.0501 178.79 15.0501C174.39 15.2401 170.89 18.9201 171 23.2501C171.05 25.3001 171.73 27.0401 172.9 28.3501C175.2 30.9401 178.44 30.9401 179.22 30.9401C179.43 30.9401 183.16 30.8901 185.45 28.3701C186.29 27.4401 186.58 26.5801 186.68 26.1901C186.82 25.6701 187.13 24.5001 186.53 23.5701Z" fill="#0872EB"/>
<g clip-path="url(#clip1_533_365)">
<path d="M311 11C317.627 11 323 16.3726 323 23C323 29.6274 317.627 35 311 35C304.373 35 299 29.6274 299 23C299 16.3726 304.373 11 311 11ZM311 14.0967C306.083 14.0967 302.097 18.0829 302.097 23C302.097 27.9171 306.083 31.9033 311 31.9033C315.917 31.9033 319.903 27.9171 319.903 23C319.903 18.0829 315.917 14.0967 311 14.0967ZM310.613 15.6455C311.429 15.6457 312.098 16.2771 312.157 17.0781L312.161 17.1934V21.8389H316.032C316.848 21.8389 317.517 22.4703 317.576 23.2715L317.581 23.3867C317.581 24.203 316.949 24.8725 316.147 24.9316L316.032 24.9355H310.613C309.797 24.9355 309.128 24.304 309.068 23.5029L309.064 23.3867V17.1934C309.065 16.3383 309.758 15.6455 310.613 15.6455Z" fill="#8C8C8C"/>
</g>
<path d="M73.9 37H50.1C48.952 37 48.014 36.0901 48 34.9423V20.2581C48.07 18.9843 48.7 17.7944 49.694 17.0105L60.306 9.49344C61.342 8.83552 62.672 8.83552 63.708 9.49344L74.306 16.9965C75.314 17.7944 75.93 18.9703 76 20.2441V34.9423C75.986 36.0901 75.048 37 73.9 36.986V37ZM63.526 26.7673V31.6947C63.484 32.3526 63.61 32.9965 63.876 33.5984C64.478 34.6483 65.654 35.2222 66.858 35.0822C67.768 35.1382 68.664 34.8303 69.35 34.2283C69.938 33.5284 70.218 32.6325 70.148 31.7227V26.7813H68.734V31.4987C68.762 31.9186 68.734 32.3246 68.608 32.7305C68.384 33.5004 67.656 34.0044 66.858 33.9344C66.298 33.9624 65.752 33.7384 65.388 33.3045C65.038 32.8005 64.898 32.1846 64.982 31.5827V26.7953H63.526V26.7673ZM53.53 26.7673V34.8723H54.888V30.3228C54.86 29.301 54.818 28.3491 54.79 27.6492V27.6212C55.084 28.4191 55.224 28.839 55.364 29.245L55.42 29.4129C55.448 29.5109 55.476 29.6089 55.504 29.6789V29.7489C55.574 29.9029 55.602 30.0149 55.63 30.0569L57.352 34.8723H58.696L60.726 29.077C60.726 29.077 60.754 28.993 60.768 28.937C60.81 28.811 60.866 28.629 60.936 28.4191C60.936 28.3911 60.964 28.3211 60.992 28.2511L61.034 28.1251C61.076 27.9851 61.146 27.8031 61.202 27.6212V28.0411C61.188 29.133 61.188 29.245 61.174 29.7769V30.4208V34.8863H62.616V26.7673H60.068L58.612 31.4287L58.444 31.9746L58.22 32.6465C58.192 32.7305 58.15 32.8985 58.066 33.1925L58.038 33.0665C58.01 32.9545 57.982 32.8425 57.94 32.7305C57.898 32.6046 57.856 32.4926 57.814 32.3666V32.3246C57.772 32.2406 57.744 32.1566 57.716 32.0726L57.408 31.0647L56.008 26.7673H53.53ZM64.366 24.1916L64.268 25.1995C64.59 25.2835 64.926 25.3255 65.262 25.3395C65.808 25.3395 66.34 25.1435 66.746 24.7795C67.138 24.3176 67.446 23.7717 67.628 23.1837L70.092 16.7445H68.706L67.516 20.2581C67.348 20.762 67.236 21.14 67.11 21.6439C66.998 21.28 66.956 21.14 66.872 20.902V20.86C66.816 20.748 66.774 20.622 66.718 20.4401L65.43 16.7305H63.918L66.354 23.0997C66.284 23.2957 66.2 23.4777 66.088 23.6457C65.85 24.0516 65.402 24.2896 64.94 24.2336C64.758 24.2336 64.562 24.2196 64.394 24.1636L64.366 24.1916ZM53.516 16.7585V24.8635H54.874V20.3141C54.846 19.2922 54.804 18.3403 54.776 17.6404V17.6124C55.07 18.4103 55.21 18.8303 55.35 19.2362L55.406 19.4042C55.434 19.5022 55.462 19.6002 55.49 19.6702V19.7402C55.56 19.8941 55.588 20.0061 55.616 20.0481L57.338 24.8635H58.682L60.712 19.0542C60.712 19.0542 60.74 18.9703 60.754 18.9143C60.796 18.7883 60.852 18.6063 60.922 18.3963C60.936 18.3403 60.978 18.2283 61.02 18.1164L61.048 18.0324C61.09 17.9064 61.146 17.7524 61.188 17.6124V18.0324C61.174 19.1242 61.174 19.2362 61.16 19.7682V20.4121V24.8775H62.602V16.7585H60.068L58.612 21.4199L58.444 21.9659L58.22 22.6378C58.192 22.7218 58.15 22.9038 58.066 23.1837L58.038 23.0577C58.01 22.9458 57.982 22.8338 57.94 22.7218C57.898 22.5958 57.856 22.4838 57.828 22.3578C57.8 22.2318 57.758 22.1619 57.73 22.0639L57.422 21.056L56.022 16.7585H53.558H53.516Z" fill="#8C8C8C"/>
</g>
<defs>
<clipPath id="clip0_533_365">
<rect width="375" height="59" fill="white"/>
</clipPath>
<clipPath id="clip1_533_365">
<rect width="24" height="24" fill="white" transform="translate(299 11)"/>
</clipPath>
</defs>
</svg>
