<svg width="346" height="150" viewBox="0 0 346 150" fill="none" xmlns="http://www.w3.org/2000/svg">
<rect width="346" height="150" rx="15" fill="white"/>
<path d="M50.249 119.998C50.2037 119.783 50.1527 119.584 50.096 119.403C50.0507 119.21 49.9997 119.029 49.943 118.859L51.303 118.621C51.3143 118.78 51.337 118.967 51.371 119.182C51.405 119.397 51.4333 119.596 51.456 119.777C51.4787 119.879 51.5297 120.14 51.609 120.559C51.6883 120.967 51.7847 121.483 51.898 122.106C52.0227 122.729 52.1587 123.404 52.306 124.129C52.4533 124.854 52.6007 125.585 52.748 126.322C52.8953 127.059 53.0313 127.75 53.156 128.396C53.292 129.042 53.4053 129.592 53.496 130.045C53.5867 130.498 53.649 130.793 53.683 130.929C53.7397 131.167 53.802 131.422 53.87 131.694C53.938 131.966 54.0117 132.221 54.091 132.459L52.697 132.714C52.6517 132.442 52.612 132.176 52.578 131.915C52.544 131.654 52.4987 131.399 52.442 131.15C52.4193 131.014 52.3627 130.725 52.272 130.283C52.1927 129.83 52.0907 129.286 51.966 128.651C51.8413 128.016 51.7053 127.336 51.558 126.611C51.4107 125.874 51.2633 125.143 51.116 124.418C50.98 123.681 50.8497 123.001 50.725 122.378C50.6003 121.755 50.4927 121.233 50.402 120.814C50.3227 120.383 50.2717 120.111 50.249 119.998ZM45.421 122.497C45.625 122.486 45.8403 122.474 46.067 122.463C46.2937 122.44 46.543 122.418 46.815 122.395C47.0757 122.361 47.4383 122.316 47.903 122.259C48.3677 122.191 48.889 122.112 49.467 122.021C50.0563 121.93 50.6627 121.834 51.286 121.732C51.9207 121.63 52.5327 121.534 53.122 121.443C53.7113 121.341 54.244 121.25 54.72 121.171C55.196 121.092 55.57 121.024 55.842 120.967C56.0913 120.922 56.3123 120.876 56.505 120.831C56.709 120.786 56.8733 120.74 56.998 120.695L57.253 121.987C57.1397 121.998 56.9697 122.021 56.743 122.055C56.5277 122.089 56.3123 122.123 56.097 122.157C55.8023 122.202 55.4113 122.265 54.924 122.344C54.4367 122.412 53.8983 122.497 53.309 122.599C52.7197 122.69 52.1077 122.786 51.473 122.888C50.8497 122.979 50.2433 123.075 49.654 123.177C49.076 123.268 48.5547 123.353 48.09 123.432C47.6367 123.5 47.2853 123.557 47.036 123.602C46.798 123.647 46.577 123.693 46.373 123.738C46.169 123.772 45.9423 123.817 45.693 123.874L45.421 122.497ZM45.353 127.393C45.557 127.382 45.795 127.365 46.067 127.342C46.3503 127.308 46.5997 127.28 46.815 127.257C47.121 127.212 47.529 127.149 48.039 127.07C48.5603 126.991 49.144 126.9 49.79 126.798C50.4473 126.696 51.1217 126.588 51.813 126.475C52.5157 126.362 53.1957 126.248 53.853 126.135C54.5217 126.022 55.128 125.92 55.672 125.829C56.2273 125.727 56.675 125.648 57.015 125.591C57.3437 125.534 57.627 125.478 57.865 125.421C58.103 125.364 58.307 125.313 58.477 125.268L58.732 126.543C58.562 126.554 58.3523 126.583 58.103 126.628C57.8537 126.662 57.5647 126.707 57.236 126.764C56.862 126.821 56.3917 126.9 55.825 127.002C55.2697 127.093 54.6577 127.195 53.989 127.308C53.3317 127.41 52.6573 127.518 51.966 127.631C51.286 127.733 50.6287 127.841 49.994 127.954C49.3593 128.056 48.787 128.147 48.277 128.226C47.7783 128.305 47.3873 128.373 47.104 128.43C46.7753 128.487 46.492 128.538 46.254 128.583C46.0273 128.628 45.8177 128.679 45.625 128.736L45.353 127.393ZM66.994 121.664C67.028 121.8 67.062 121.959 67.096 122.14C67.1413 122.31 67.1867 122.503 67.232 122.718C67.2887 122.933 67.385 123.285 67.521 123.772C67.657 124.259 67.81 124.826 67.98 125.472C68.1613 126.107 68.3427 126.77 68.524 127.461C68.7167 128.141 68.9037 128.798 69.085 129.433C69.2663 130.056 69.4193 130.6 69.544 131.065C69.68 131.518 69.7763 131.841 69.833 132.034C69.8783 132.136 69.918 132.255 69.952 132.391C69.986 132.538 70.0257 132.674 70.071 132.799C70.1163 132.935 70.1617 133.054 70.207 133.156L68.898 133.496C68.8753 133.303 68.8413 133.105 68.796 132.901C68.762 132.708 68.7167 132.51 68.66 132.306C68.6033 132.113 68.507 131.779 68.371 131.303C68.2463 130.816 68.0933 130.255 67.912 129.62C67.742 128.985 67.5607 128.328 67.368 127.648C67.1867 126.957 67.0053 126.294 66.824 125.659C66.654 125.013 66.501 124.452 66.365 123.976C66.2403 123.5 66.144 123.166 66.076 122.973C66.0193 122.758 65.957 122.571 65.889 122.412C65.8323 122.253 65.7643 122.112 65.685 121.987L66.994 121.664ZM75.154 123.942C74.984 124.305 74.7517 124.713 74.457 125.166C74.1737 125.608 73.8563 126.061 73.505 126.526C73.165 126.979 72.8193 127.41 72.468 127.818C72.128 128.226 71.8163 128.572 71.533 128.855L70.462 128.311C70.8247 127.994 71.1987 127.625 71.584 127.206C71.9693 126.775 72.3263 126.345 72.655 125.914C72.995 125.472 73.2613 125.075 73.454 124.724C73.352 124.747 73.114 124.798 72.74 124.877C72.366 124.945 71.9013 125.036 71.346 125.149C70.802 125.251 70.207 125.37 69.561 125.506C68.9263 125.631 68.2803 125.761 67.623 125.897C66.977 126.022 66.365 126.141 65.787 126.254C65.209 126.367 64.7103 126.469 64.291 126.56C63.883 126.639 63.594 126.696 63.424 126.73L63.118 125.574C63.356 125.551 63.5827 125.529 63.798 125.506C64.0133 125.472 64.2457 125.432 64.495 125.387C64.6197 125.364 64.8577 125.319 65.209 125.251C65.5717 125.183 66.0137 125.104 66.535 125.013C67.0563 124.911 67.6117 124.809 68.201 124.707C68.8017 124.594 69.4023 124.48 70.003 124.367C70.6037 124.242 71.1647 124.129 71.686 124.027C72.2187 123.925 72.6663 123.84 73.029 123.772C73.403 123.693 73.658 123.636 73.794 123.602C73.8847 123.579 73.9867 123.551 74.1 123.517C74.2247 123.483 74.3267 123.449 74.406 123.415L75.154 123.942ZM81.325 119.624C81.6197 119.828 81.9653 120.083 82.362 120.389C82.7587 120.684 83.161 121.001 83.569 121.341C83.9883 121.67 84.3793 121.993 84.742 122.31C85.1047 122.616 85.3993 122.888 85.626 123.126L84.691 124.078C84.4757 123.863 84.198 123.596 83.858 123.279C83.518 122.962 83.144 122.633 82.736 122.293C82.328 121.953 81.9257 121.63 81.529 121.324C81.1323 121.007 80.7753 120.746 80.458 120.542L81.325 119.624ZM79.982 131.031C80.9907 130.884 81.9087 130.674 82.736 130.402C83.5633 130.13 84.317 129.83 84.997 129.501C85.677 129.161 86.2833 128.827 86.816 128.498C87.6773 127.954 88.4707 127.331 89.196 126.628C89.9213 125.925 90.556 125.2 91.1 124.452C91.644 123.704 92.0803 122.984 92.409 122.293L93.14 123.585C92.766 124.276 92.3013 124.985 91.746 125.71C91.1907 126.424 90.5617 127.115 89.859 127.784C89.1563 128.441 88.38 129.042 87.53 129.586C86.9633 129.937 86.34 130.289 85.66 130.64C84.9913 130.98 84.2547 131.292 83.45 131.575C82.6453 131.858 81.75 132.091 80.764 132.272L79.982 131.031ZM99.77 129.824C99.77 129.563 99.77 129.195 99.77 128.719C99.77 128.232 99.77 127.688 99.77 127.087C99.77 126.475 99.77 125.846 99.77 125.2C99.77 124.543 99.77 123.908 99.77 123.296C99.77 122.673 99.77 122.112 99.77 121.613C99.77 121.103 99.77 120.701 99.77 120.406C99.77 120.247 99.7643 120.083 99.753 119.913C99.753 119.743 99.7473 119.579 99.736 119.42C99.7247 119.25 99.702 119.08 99.668 118.91H101.096C101.062 119.159 101.034 119.414 101.011 119.675C101 119.924 100.994 120.168 100.994 120.406C100.994 120.689 100.994 121.075 100.994 121.562C100.994 122.038 100.994 122.576 100.994 123.177C100.994 123.766 100.994 124.373 100.994 124.996C100.994 125.619 100.994 126.226 100.994 126.815C100.994 127.404 100.994 127.931 100.994 128.396C100.994 128.861 100.994 129.235 100.994 129.518C100.994 129.903 101.062 130.215 101.198 130.453C101.334 130.68 101.583 130.844 101.946 130.946C102.309 131.037 102.83 131.082 103.51 131.082C104.19 131.082 104.819 131.065 105.397 131.031C105.986 130.997 106.559 130.94 107.114 130.861C107.681 130.782 108.242 130.691 108.797 130.589L108.746 131.898C108.236 131.966 107.703 132.028 107.148 132.085C106.604 132.142 106.02 132.181 105.397 132.204C104.785 132.238 104.116 132.255 103.391 132.255C102.643 132.255 102.025 132.204 101.538 132.102C101.062 132 100.694 131.847 100.433 131.643C100.184 131.439 100.008 131.19 99.906 130.895C99.8153 130.589 99.77 130.232 99.77 129.824ZM109.494 122.208C109.437 122.287 109.369 122.389 109.29 122.514C109.222 122.639 109.154 122.752 109.086 122.854C108.893 123.205 108.667 123.591 108.406 124.01C108.157 124.429 107.879 124.866 107.573 125.319C107.278 125.761 106.961 126.197 106.621 126.628C106.292 127.047 105.958 127.433 105.618 127.784L104.564 127.155C104.995 126.758 105.414 126.305 105.822 125.795C106.23 125.274 106.593 124.764 106.91 124.265C107.227 123.766 107.471 123.347 107.641 123.007C107.584 123.018 107.358 123.064 106.961 123.143C106.576 123.222 106.077 123.324 105.465 123.449C104.864 123.574 104.19 123.71 103.442 123.857C102.694 124.004 101.935 124.157 101.164 124.316C100.393 124.475 99.651 124.628 98.937 124.775C98.2343 124.911 97.6053 125.036 97.05 125.149C96.4947 125.262 96.0753 125.353 95.792 125.421L95.554 124.146C95.86 124.101 96.285 124.033 96.829 123.942C97.373 123.851 97.9907 123.744 98.682 123.619C99.3847 123.483 100.11 123.341 100.858 123.194C101.617 123.047 102.365 122.899 103.102 122.752C103.85 122.605 104.541 122.469 105.176 122.344C105.811 122.208 106.355 122.095 106.808 122.004C107.261 121.913 107.579 121.845 107.76 121.8C107.93 121.766 108.089 121.726 108.236 121.681C108.395 121.624 108.514 121.573 108.593 121.528L109.494 122.208ZM120.476 131.643C120.499 131.518 120.521 131.377 120.544 131.218C120.567 131.059 120.578 130.901 120.578 130.742C120.578 130.64 120.578 130.396 120.578 130.011C120.578 129.614 120.578 129.133 120.578 128.566C120.578 127.999 120.578 127.387 120.578 126.73C120.578 126.061 120.578 125.393 120.578 124.724C120.578 124.055 120.578 123.432 120.578 122.854C120.578 122.265 120.578 121.766 120.578 121.358C120.578 120.939 120.578 120.655 120.578 120.508C120.578 120.202 120.567 119.941 120.544 119.726C120.521 119.511 120.504 119.363 120.493 119.284H121.887C121.876 119.363 121.859 119.511 121.836 119.726C121.825 119.941 121.819 120.202 121.819 120.508C121.819 120.655 121.819 120.939 121.819 121.358C121.819 121.766 121.819 122.265 121.819 122.854C121.819 123.432 121.819 124.055 121.819 124.724C121.819 125.393 121.819 126.056 121.819 126.713C121.819 127.359 121.819 127.96 121.819 128.515C121.819 129.059 121.819 129.507 121.819 129.858C121.819 130.209 121.819 130.419 121.819 130.487C122.363 130.238 122.941 129.903 123.553 129.484C124.176 129.065 124.783 128.577 125.372 128.022C125.961 127.455 126.477 126.849 126.919 126.203L127.633 127.223C127.146 127.892 126.573 128.526 125.916 129.127C125.27 129.728 124.596 130.266 123.893 130.742C123.19 131.218 122.505 131.62 121.836 131.949C121.7 132.017 121.587 132.085 121.496 132.153C121.405 132.221 121.332 132.278 121.275 132.323L120.476 131.643ZM112.707 131.592C113.41 131.082 114.01 130.464 114.509 129.739C115.019 129.014 115.404 128.232 115.665 127.393C115.79 126.996 115.886 126.509 115.954 125.931C116.033 125.342 116.084 124.724 116.107 124.078C116.141 123.421 116.158 122.786 116.158 122.174C116.169 121.551 116.175 121.001 116.175 120.525C116.175 120.298 116.164 120.089 116.141 119.896C116.13 119.703 116.107 119.522 116.073 119.352H117.467C117.456 119.42 117.444 119.522 117.433 119.658C117.422 119.783 117.41 119.919 117.399 120.066C117.388 120.213 117.382 120.366 117.382 120.525C117.382 120.99 117.376 121.545 117.365 122.191C117.354 122.826 117.331 123.494 117.297 124.197C117.263 124.888 117.212 125.546 117.144 126.169C117.076 126.781 116.98 127.302 116.855 127.733C116.606 128.628 116.22 129.478 115.699 130.283C115.178 131.076 114.56 131.768 113.846 132.357L112.707 131.592Z" fill="#0872ED"/>
<path d="M247.654 120.491H256.358V126.118H255.253V121.579H247.654V120.491ZM246.685 125.557H257.803V126.645H246.685V125.557ZM251.105 117.771H252.227V123.568C252.227 124.486 252.17 125.398 252.057 126.305C251.944 127.2 251.706 128.073 251.343 128.923C250.992 129.762 250.453 130.561 249.728 131.32C249.003 132.068 248.034 132.748 246.821 133.36C246.753 133.281 246.668 133.19 246.566 133.088C246.464 132.986 246.356 132.884 246.243 132.782C246.13 132.691 246.022 132.612 245.92 132.544C247.099 131.966 248.034 131.337 248.725 130.657C249.416 129.966 249.932 129.235 250.272 128.464C250.612 127.682 250.833 126.883 250.935 126.067C251.048 125.24 251.105 124.401 251.105 123.551V117.771ZM252.788 126.05C253.173 127.569 253.791 128.878 254.641 129.977C255.502 131.076 256.602 131.881 257.939 132.391C257.848 132.47 257.752 132.567 257.65 132.68C257.559 132.793 257.469 132.912 257.378 133.037C257.287 133.162 257.208 133.275 257.14 133.377C255.746 132.765 254.607 131.858 253.723 130.657C252.839 129.456 252.182 128.005 251.751 126.305L252.788 126.05ZM243.064 118.723L243.693 117.907C244.056 118.066 244.43 118.253 244.815 118.468C245.212 118.672 245.58 118.887 245.92 119.114C246.26 119.329 246.538 119.539 246.753 119.743L246.107 120.678C245.892 120.463 245.614 120.242 245.274 120.015C244.934 119.777 244.571 119.545 244.186 119.318C243.801 119.08 243.427 118.882 243.064 118.723ZM242.18 123.347L242.792 122.48C243.166 122.616 243.551 122.786 243.948 122.99C244.345 123.194 244.719 123.404 245.07 123.619C245.421 123.823 245.705 124.021 245.92 124.214L245.274 125.149C245.059 124.956 244.775 124.752 244.424 124.537C244.073 124.31 243.699 124.095 243.302 123.891C242.917 123.676 242.543 123.494 242.18 123.347ZM242.639 132.357C242.922 131.915 243.234 131.388 243.574 130.776C243.914 130.153 244.26 129.501 244.611 128.821C244.962 128.13 245.28 127.461 245.563 126.815L246.447 127.529C246.175 128.13 245.875 128.759 245.546 129.416C245.229 130.073 244.906 130.719 244.577 131.354C244.248 131.977 243.931 132.555 243.625 133.088L242.639 132.357ZM262.053 122.956H272.066V124.061H262.053V122.956ZM266.983 127.019H272.712V128.09H266.983V127.019ZM266.388 123.483H267.561V132.17L266.388 132V123.483ZM262.359 125.591L263.532 125.727C263.294 127.438 262.897 128.94 262.342 130.232C261.787 131.513 261.027 132.572 260.064 133.411C260.007 133.343 259.922 133.258 259.809 133.156C259.696 133.065 259.577 132.969 259.452 132.867C259.327 132.776 259.22 132.703 259.129 132.646C260.081 131.898 260.806 130.929 261.305 129.739C261.815 128.538 262.166 127.155 262.359 125.591ZM263.005 127.801C263.311 128.685 263.702 129.399 264.178 129.943C264.665 130.487 265.226 130.906 265.861 131.201C266.507 131.484 267.215 131.683 267.986 131.796C268.757 131.898 269.584 131.949 270.468 131.949C270.581 131.949 270.774 131.949 271.046 131.949C271.329 131.949 271.647 131.949 271.998 131.949C272.361 131.949 272.723 131.949 273.086 131.949C273.46 131.949 273.794 131.949 274.089 131.949C274.395 131.938 274.622 131.932 274.769 131.932C274.712 132.023 274.65 132.136 274.582 132.272C274.525 132.419 274.474 132.561 274.429 132.697C274.395 132.844 274.367 132.975 274.344 133.088H273.494H270.417C269.397 133.088 268.456 133.02 267.595 132.884C266.734 132.759 265.957 132.521 265.266 132.17C264.575 131.819 263.963 131.32 263.43 130.674C262.897 130.028 262.45 129.195 262.087 128.175L263.005 127.801ZM266.371 117.754H267.561V120.44H266.371V117.754ZM259.928 119.743H274.072V123.347H272.916V120.831H261.067V123.347H259.928V119.743Z" fill="#0872ED"/>
<line y1="99.5" x2="346" y2="99.5" stroke="#C8C8C8"/>
<path d="M172 100C172 119.526 172 130.474 172 150" stroke="#C8C8C8"/>
<path d="M33.005 47.4C33.1523 47.5927 33.311 47.8307 33.481 48.114C33.651 48.386 33.8153 48.6637 33.974 48.947C34.1327 49.2303 34.2743 49.491 34.399 49.729L33.481 50.137C33.311 49.797 33.0957 49.4003 32.835 48.947C32.5743 48.4937 32.3307 48.1083 32.104 47.791L33.005 47.4ZM34.875 46.72C35.0223 46.924 35.181 47.1677 35.351 47.451C35.5323 47.7343 35.708 48.0177 35.878 48.301C36.048 48.573 36.1897 48.8167 36.303 49.032L35.385 49.44C35.2037 49.066 34.9827 48.6637 34.722 48.233C34.4613 47.8023 34.212 47.4283 33.974 47.111L34.875 46.72ZM34.127 50.783C34.059 50.8963 33.991 51.0437 33.923 51.225C33.855 51.395 33.7927 51.548 33.736 51.684C33.5887 52.2507 33.3733 52.874 33.09 53.554C32.818 54.2227 32.4837 54.9027 32.087 55.594C31.6903 56.274 31.237 56.9257 30.727 57.549C29.9563 58.4897 29.0327 59.3453 27.956 60.116C26.8793 60.8867 25.5477 61.5723 23.961 62.173L22.72 61.051C23.7627 60.745 24.6977 60.3767 25.525 59.946C26.3523 59.504 27.0947 59.0167 27.752 58.484C28.4207 57.9513 29.01 57.3847 29.52 56.784C29.962 56.2627 30.3643 55.6903 30.727 55.067C31.0897 54.4437 31.4013 53.8203 31.662 53.197C31.934 52.5623 32.121 51.99 32.223 51.48H25.933L26.477 50.256C26.613 50.256 26.868 50.256 27.242 50.256C27.616 50.256 28.041 50.256 28.517 50.256C29.0043 50.256 29.486 50.256 29.962 50.256C30.438 50.256 30.8517 50.256 31.203 50.256C31.5543 50.256 31.7867 50.256 31.9 50.256C32.1267 50.256 32.3307 50.2447 32.512 50.222C32.7047 50.1993 32.869 50.1597 33.005 50.103L34.127 50.783ZM28.432 48.216C28.296 48.4427 28.16 48.6807 28.024 48.93C27.888 49.1793 27.7747 49.3833 27.684 49.542C27.3553 50.1653 26.936 50.8397 26.426 51.565C25.916 52.279 25.304 52.993 24.59 53.707C23.8873 54.4097 23.0827 55.0613 22.176 55.662L20.986 54.795C21.7227 54.353 22.38 53.8827 22.958 53.384C23.5473 52.874 24.0573 52.3583 24.488 51.837C24.93 51.3157 25.304 50.817 25.61 50.341C25.916 49.8537 26.1597 49.423 26.341 49.049C26.4317 48.9017 26.528 48.6977 26.63 48.437C26.7433 48.165 26.8227 47.9157 26.868 47.689L28.432 48.216ZM44.211 51.208C44.2903 51.378 44.3923 51.633 44.517 51.973C44.6417 52.3017 44.772 52.653 44.908 53.027C45.0553 53.401 45.1857 53.758 45.299 54.098C45.4123 54.4267 45.4973 54.6873 45.554 54.88L44.296 55.322C44.2507 55.1293 44.1713 54.8687 44.058 54.54C43.956 54.2113 43.837 53.86 43.701 53.486C43.565 53.1007 43.429 52.7437 43.293 52.415C43.157 52.0863 43.0493 51.8257 42.97 51.633L44.211 51.208ZM50.365 52.16C50.3083 52.33 50.2573 52.4887 50.212 52.636C50.178 52.772 50.144 52.8967 50.11 53.01C49.8833 53.9393 49.5773 54.8517 49.192 55.747C48.8067 56.631 48.308 57.4583 47.696 58.229C46.914 59.2263 46.03 60.0593 45.044 60.728C44.0693 61.3967 43.106 61.9123 42.154 62.275L41.032 61.136C41.6893 60.932 42.3523 60.66 43.021 60.32C43.701 59.98 44.3413 59.572 44.942 59.096C45.554 58.62 46.0923 58.093 46.557 57.515C46.965 57.0163 47.3277 56.4553 47.645 55.832C47.9737 55.2087 48.2457 54.5457 48.461 53.843C48.6763 53.1403 48.8237 52.4263 48.903 51.701L50.365 52.16ZM40.267 52.058C40.3577 52.2507 40.471 52.5113 40.607 52.84C40.743 53.1687 40.8847 53.5313 41.032 53.928C41.1907 54.3133 41.338 54.6873 41.474 55.05C41.6213 55.4013 41.7347 55.6847 41.814 55.9L40.522 56.376C40.454 56.1607 40.352 55.8717 40.216 55.509C40.0913 55.135 39.9497 54.7497 39.791 54.353C39.6323 53.9563 39.4793 53.5937 39.332 53.265C39.196 52.9363 39.0883 52.6983 39.009 52.551L40.267 52.058ZM57.117 47.944C57.3663 48.08 57.661 48.2557 58.001 48.471C58.341 48.6863 58.6923 48.913 59.055 49.151C59.4177 49.389 59.752 49.6157 60.058 49.831C60.3753 50.035 60.6247 50.205 60.806 50.341L60.007 51.497C59.803 51.3497 59.548 51.1683 59.242 50.953C58.936 50.7377 58.6073 50.5167 58.256 50.29C57.9047 50.052 57.559 49.831 57.219 49.627C56.8903 49.4117 56.6013 49.2303 56.352 49.083L57.117 47.944ZM54.567 60.099C55.1903 59.9857 55.8307 59.8383 56.488 59.657C57.1453 59.4643 57.797 59.2433 58.443 58.994C59.089 58.7333 59.6953 58.4387 60.262 58.11C61.2027 57.566 62.0753 56.9653 62.88 56.308C63.6847 55.6507 64.41 54.948 65.056 54.2C65.702 53.452 66.2517 52.6813 66.705 51.888L67.521 53.282C66.7843 54.4267 65.8493 55.526 64.716 56.58C63.594 57.634 62.353 58.5633 60.993 59.368C60.415 59.6967 59.786 60.0027 59.106 60.286C58.4373 60.558 57.7743 60.796 57.117 61C56.471 61.204 55.8817 61.3627 55.349 61.476L54.567 60.099ZM54.55 51.769C54.7993 51.8937 55.0997 52.0637 55.451 52.279C55.8023 52.483 56.1593 52.6983 56.522 52.925C56.8847 53.1403 57.2247 53.35 57.542 53.554C57.8593 53.758 58.1087 53.928 58.29 54.064L57.508 55.254C57.2927 55.0953 57.0263 54.914 56.709 54.71C56.403 54.4947 56.0743 54.2793 55.723 54.064C55.3717 53.8373 55.026 53.622 54.686 53.418C54.346 53.214 54.0513 53.0497 53.802 52.925L54.55 51.769ZM71.468 52.211C71.6493 52.2337 71.8533 52.2507 72.08 52.262C72.318 52.2733 72.505 52.279 72.641 52.279H80.461C80.6763 52.279 80.886 52.2733 81.09 52.262C81.294 52.2507 81.4867 52.2337 81.668 52.211V53.571C81.4867 53.5483 81.2883 53.537 81.073 53.537C80.8577 53.537 80.6537 53.537 80.461 53.537H72.641C72.505 53.537 72.318 53.537 72.08 53.537C71.8533 53.537 71.6493 53.5483 71.468 53.571V52.211ZM75.769 60.49V52.976H77.146V60.49H75.769ZM70.635 59.691C70.839 59.7137 71.043 59.7363 71.247 59.759C71.4623 59.7703 71.6663 59.776 71.859 59.776H81.26C81.464 59.776 81.6623 59.7703 81.855 59.759C82.0477 59.7363 82.229 59.7137 82.399 59.691V61.119C82.229 61.0963 82.0307 61.0793 81.804 61.068C81.5773 61.068 81.396 61.068 81.26 61.068H71.859C71.6777 61.068 71.4793 61.068 71.264 61.068C71.06 61.0793 70.8503 61.0963 70.635 61.119V59.691ZM99.827 49.508C99.759 49.5873 99.6797 49.6837 99.589 49.797C99.5097 49.9103 99.436 50.018 99.368 50.12C99.1527 50.5053 98.8297 50.9813 98.399 51.548C97.9797 52.1033 97.4923 52.6757 96.937 53.265C96.3817 53.843 95.781 54.3587 95.135 54.812L94.013 53.911C94.4097 53.6843 94.795 53.4123 95.169 53.095C95.5543 52.7663 95.9113 52.4263 96.24 52.075C96.58 51.7123 96.8747 51.361 97.124 51.021C97.3847 50.6697 97.5887 50.3637 97.736 50.103C97.5547 50.103 97.26 50.103 96.852 50.103C96.4553 50.103 95.9793 50.103 95.424 50.103C94.88 50.103 94.2963 50.103 93.673 50.103C93.0497 50.103 92.432 50.103 91.82 50.103C91.208 50.103 90.6357 50.103 90.103 50.103C89.5703 50.103 89.1227 50.103 88.76 50.103C88.3973 50.103 88.1593 50.103 88.046 50.103C87.7287 50.103 87.4113 50.1143 87.094 50.137C86.7767 50.1483 86.448 50.171 86.108 50.205V48.658C86.4027 48.7033 86.72 48.743 87.06 48.777C87.4 48.7997 87.7287 48.811 88.046 48.811C88.1593 48.811 88.403 48.811 88.777 48.811C89.151 48.811 89.6043 48.811 90.137 48.811C90.681 48.811 91.2703 48.811 91.905 48.811C92.5397 48.811 93.1687 48.811 93.792 48.811C94.4267 48.811 95.0217 48.811 95.577 48.811C96.1323 48.811 96.6027 48.811 96.988 48.811C97.3847 48.811 97.6567 48.811 97.804 48.811C97.9173 48.811 98.0477 48.811 98.195 48.811C98.3537 48.7997 98.5067 48.7827 98.654 48.76C98.8013 48.7373 98.9147 48.7203 98.994 48.709L99.827 49.508ZM93.044 51.752C93.044 52.67 93.0157 53.5313 92.959 54.336C92.9023 55.1407 92.789 55.8943 92.619 56.597C92.449 57.2997 92.1883 57.9513 91.837 58.552C91.497 59.1413 91.038 59.6967 90.46 60.218C89.882 60.728 89.1623 61.1983 88.301 61.629L87.043 60.609C87.281 60.5297 87.536 60.4277 87.808 60.303C88.08 60.167 88.335 60.014 88.573 59.844C89.2417 59.4473 89.7743 58.9997 90.171 58.501C90.5677 58.0023 90.8623 57.464 91.055 56.886C91.259 56.2967 91.395 55.679 91.463 55.033C91.5423 54.3757 91.582 53.6957 91.582 52.993C91.582 52.7777 91.5763 52.5737 91.565 52.381C91.565 52.1883 91.548 51.9787 91.514 51.752H93.044ZM109.588 49.389C109.475 50.273 109.327 51.1967 109.146 52.16C108.976 53.1233 108.755 54.0583 108.483 54.965C108.143 56.1323 107.763 57.107 107.344 57.889C106.936 58.671 106.494 59.2603 106.018 59.657C105.542 60.0537 105.043 60.252 104.522 60.252C104.023 60.252 103.542 60.0707 103.077 59.708C102.612 59.3453 102.233 58.824 101.938 58.144C101.643 57.4527 101.496 56.6423 101.496 55.713C101.496 54.7837 101.683 53.9053 102.057 53.078C102.442 52.2507 102.969 51.5197 103.638 50.885C104.318 50.239 105.111 49.729 106.018 49.355C106.925 48.981 107.894 48.794 108.925 48.794C109.922 48.794 110.818 48.9583 111.611 49.287C112.416 49.6157 113.101 50.069 113.668 50.647C114.235 51.2137 114.671 51.8767 114.977 52.636C115.283 53.384 115.436 54.1887 115.436 55.05C115.436 56.24 115.181 57.2883 114.671 58.195C114.172 59.1017 113.447 59.8383 112.495 60.405C111.554 60.9717 110.41 61.3457 109.061 61.527L108.262 60.269C108.534 60.235 108.795 60.201 109.044 60.167C109.293 60.133 109.52 60.0933 109.724 60.048C110.268 59.9233 110.795 59.7307 111.305 59.47C111.826 59.198 112.291 58.858 112.699 58.45C113.107 58.0307 113.43 57.5377 113.668 56.971C113.917 56.393 114.042 55.7357 114.042 54.999C114.042 54.3077 113.929 53.6673 113.702 53.078C113.475 52.4773 113.141 51.9503 112.699 51.497C112.257 51.0437 111.719 50.6867 111.084 50.426C110.449 50.1653 109.724 50.035 108.908 50.035C107.979 50.035 107.134 50.205 106.375 50.545C105.627 50.885 104.987 51.3327 104.454 51.888C103.933 52.432 103.53 53.0327 103.247 53.69C102.964 54.336 102.822 54.9707 102.822 55.594C102.822 56.308 102.913 56.8973 103.094 57.362C103.287 57.8153 103.513 58.1497 103.774 58.365C104.046 58.5803 104.312 58.688 104.573 58.688C104.845 58.688 105.123 58.5577 105.406 58.297C105.689 58.025 105.978 57.5943 106.273 57.005C106.568 56.4043 106.857 55.628 107.14 54.676C107.389 53.86 107.599 52.993 107.769 52.075C107.95 51.157 108.081 50.256 108.16 49.372L109.588 49.389ZM120.182 53.435V59.453H118.941V54.625H116.782V53.435H120.182ZM120.182 58.926C120.579 59.5493 121.145 60.014 121.882 60.32C122.619 60.626 123.486 60.8017 124.483 60.847C124.959 60.8583 125.537 60.8697 126.217 60.881C126.897 60.881 127.611 60.881 128.359 60.881C129.107 60.8697 129.832 60.8527 130.535 60.83C131.238 60.8073 131.844 60.779 132.354 60.745C132.309 60.8357 132.258 60.9547 132.201 61.102C132.144 61.2493 132.093 61.4023 132.048 61.561C132.003 61.7197 131.969 61.867 131.946 62.003C131.47 62.0143 130.903 62.0257 130.246 62.037C129.6 62.0597 128.926 62.071 128.223 62.071C127.52 62.0823 126.84 62.0823 126.183 62.071C125.526 62.0597 124.965 62.0483 124.5 62.037C123.378 61.9917 122.42 61.8103 121.627 61.493C120.834 61.1757 120.171 60.6827 119.638 60.014C119.264 60.3767 118.879 60.7393 118.482 61.102C118.097 61.476 117.694 61.85 117.275 62.224L116.612 60.966C116.986 60.694 117.388 60.3823 117.819 60.031C118.261 59.6683 118.675 59.3 119.06 58.926H120.182ZM116.952 47.859L117.921 47.145C118.272 47.4057 118.624 47.7003 118.975 48.029C119.338 48.3577 119.666 48.6863 119.961 49.015C120.267 49.3437 120.505 49.6497 120.675 49.933L119.638 50.732C119.479 50.4487 119.253 50.137 118.958 49.797C118.663 49.4457 118.34 49.1057 117.989 48.777C117.649 48.437 117.303 48.131 116.952 47.859ZM125.877 48.709H127.118V60.371H125.877V48.709ZM123.293 54.71V55.866H129.753V54.71H123.293ZM123.293 52.755V53.877H129.753V52.755H123.293ZM122.171 51.888H130.926V56.733H122.171V51.888ZM121.27 47.315H131.827V49.525H130.62V48.284H122.426V49.525H121.27V47.315ZM121.644 49.899H131.402V50.851H121.644V49.899ZM120.998 57.77H132.116V58.756H120.998V57.77ZM141.044 48.063H147.674V49.287H141.044V48.063ZM140.313 52.959H148.286V54.166H140.313V52.959ZM142.744 53.588L144.121 53.86C144.008 54.438 143.877 55.0557 143.73 55.713C143.583 56.359 143.43 57.005 143.271 57.651C143.112 58.2857 142.954 58.8977 142.795 59.487C142.636 60.065 142.483 60.5863 142.336 61.051L141.18 60.779C141.327 60.3143 141.475 59.7817 141.622 59.181C141.769 58.5803 141.911 57.957 142.047 57.311C142.194 56.6537 142.325 56.0077 142.438 55.373C142.563 54.727 142.665 54.132 142.744 53.588ZM139.871 60.592C140.494 60.558 141.214 60.5127 142.03 60.456C142.857 60.388 143.736 60.32 144.665 60.252C145.606 60.1727 146.546 60.099 147.487 60.031V61.187C146.614 61.2777 145.73 61.357 144.835 61.425C143.951 61.5043 143.107 61.578 142.302 61.646C141.497 61.714 140.766 61.782 140.109 61.85L139.871 60.592ZM145.192 56.971L146.28 56.529C146.609 57.0843 146.915 57.685 147.198 58.331C147.481 58.9657 147.731 59.5947 147.946 60.218C148.161 60.83 148.32 61.3797 148.422 61.867L147.232 62.343C147.141 61.8557 146.994 61.3003 146.79 60.677C146.586 60.0537 146.342 59.419 146.059 58.773C145.787 58.127 145.498 57.5263 145.192 56.971ZM132.935 48.556H140.211V49.678H132.935V48.556ZM132.68 58.263H140.415V59.402H132.68V58.263ZM135.995 46.72H137.185V51.412H135.995V46.72ZM136.08 51.412H137.083V56.359H137.185V62.36H135.995V56.359H136.08V51.412ZM134.363 54.37V55.934H138.885V54.37H134.363ZM134.363 51.922V53.469H138.885V51.922H134.363ZM133.326 50.97H139.956V56.886H133.326V50.97ZM151.077 48.93C151.304 48.9413 151.542 48.9583 151.791 48.981C152.052 48.9923 152.324 48.998 152.607 48.998C152.811 48.998 153.117 48.998 153.525 48.998C153.944 48.998 154.42 48.998 154.953 48.998C155.497 48.998 156.058 48.998 156.636 48.998C157.214 48.998 157.775 48.998 158.319 48.998C158.863 48.998 159.345 48.998 159.764 48.998C160.183 48.998 160.495 48.998 160.699 48.998C160.971 48.998 161.22 48.9923 161.447 48.981C161.685 48.9583 161.9 48.9413 162.093 48.93V50.29C161.889 50.2787 161.679 50.273 161.464 50.273C161.249 50.2617 160.994 50.256 160.699 50.256C160.495 50.256 160.172 50.256 159.73 50.256C159.299 50.256 158.801 50.256 158.234 50.256C157.679 50.256 157.101 50.256 156.5 50.256C155.911 50.256 155.35 50.256 154.817 50.256C154.284 50.256 153.82 50.256 153.423 50.256C153.026 50.256 152.754 50.256 152.607 50.256C152.324 50.256 152.052 50.2617 151.791 50.273C151.542 50.273 151.304 50.2787 151.077 50.29V48.93ZM156.279 54.387C156.279 54.7043 156.279 55.0727 156.279 55.492C156.279 55.9 156.279 56.308 156.279 56.716C156.279 57.124 156.279 57.4923 156.279 57.821C156.279 58.1383 156.279 58.3763 156.279 58.535C156.279 58.9543 156.443 59.2887 156.772 59.538C157.101 59.776 157.656 59.895 158.438 59.895C159.243 59.895 160.002 59.878 160.716 59.844C161.441 59.81 162.172 59.7477 162.909 59.657L162.824 61.085C162.382 61.1077 161.912 61.1303 161.413 61.153C160.914 61.187 160.399 61.2097 159.866 61.221C159.333 61.2437 158.795 61.255 158.251 61.255C157.401 61.255 156.727 61.1643 156.228 60.983C155.729 60.7903 155.378 60.524 155.174 60.184C154.97 59.8327 154.868 59.4247 154.868 58.96C154.868 58.654 154.868 58.3083 154.868 57.923C154.868 57.5263 154.868 57.1183 154.868 56.699C154.868 56.2683 154.868 55.8547 154.868 55.458C154.868 55.05 154.868 54.676 154.868 54.336C154.868 54.2 154.868 53.9847 154.868 53.69C154.868 53.384 154.868 53.044 154.868 52.67C154.868 52.2847 154.868 51.905 154.868 51.531C154.868 51.157 154.868 50.8227 154.868 50.528C154.868 50.222 154.868 49.9953 154.868 49.848L156.279 49.865C156.279 50.001 156.279 50.2277 156.279 50.545C156.279 50.8623 156.279 51.2193 156.279 51.616C156.279 52.0127 156.279 52.4037 156.279 52.789C156.279 53.1743 156.279 53.5143 156.279 53.809C156.279 54.1037 156.279 54.2963 156.279 54.387ZM149.955 53.758C150.193 53.7693 150.459 53.7863 150.754 53.809C151.06 53.8317 151.326 53.843 151.553 53.843C151.734 53.843 152.035 53.843 152.454 53.843C152.885 53.843 153.389 53.843 153.967 53.843C154.556 53.843 155.18 53.843 155.837 53.843C156.506 53.843 157.169 53.843 157.826 53.843C158.495 53.843 159.118 53.843 159.696 53.843C160.274 53.843 160.761 53.843 161.158 53.843C161.566 53.843 161.849 53.843 162.008 53.843C162.133 53.843 162.28 53.8373 162.45 53.826C162.62 53.8147 162.79 53.809 162.96 53.809C163.141 53.7977 163.294 53.7863 163.419 53.775V55.169C163.226 55.1463 162.994 55.135 162.722 55.135C162.461 55.1237 162.235 55.118 162.042 55.118C161.872 55.118 161.583 55.118 161.175 55.118C160.767 55.118 160.274 55.118 159.696 55.118C159.118 55.118 158.495 55.118 157.826 55.118C157.169 55.118 156.506 55.118 155.837 55.118C155.168 55.118 154.545 55.118 153.967 55.118C153.389 55.118 152.885 55.118 152.454 55.118C152.035 55.118 151.734 55.118 151.553 55.118C151.349 55.118 151.088 55.1237 150.771 55.135C150.465 55.1463 150.193 55.1633 149.955 55.186V53.758ZM165.734 53.639C165.904 53.6503 166.114 53.6673 166.363 53.69C166.612 53.7013 166.884 53.7127 167.179 53.724C167.485 53.724 167.791 53.724 168.097 53.724C168.278 53.724 168.556 53.724 168.93 53.724C169.315 53.724 169.763 53.724 170.273 53.724C170.783 53.724 171.321 53.724 171.888 53.724C172.466 53.724 173.038 53.724 173.605 53.724C174.183 53.724 174.727 53.724 175.237 53.724C175.758 53.724 176.206 53.724 176.58 53.724C176.954 53.724 177.232 53.724 177.413 53.724C177.844 53.724 178.212 53.7127 178.518 53.69C178.824 53.6673 179.068 53.6503 179.249 53.639V55.305C179.079 55.2937 178.824 55.2767 178.484 55.254C178.155 55.2313 177.804 55.22 177.43 55.22C177.249 55.22 176.965 55.22 176.58 55.22C176.195 55.22 175.747 55.22 175.237 55.22C174.738 55.22 174.2 55.22 173.622 55.22C173.044 55.22 172.466 55.22 171.888 55.22C171.321 55.22 170.783 55.22 170.273 55.22C169.774 55.22 169.332 55.22 168.947 55.22C168.562 55.22 168.278 55.22 168.097 55.22C167.632 55.22 167.19 55.2313 166.771 55.254C166.352 55.2653 166.006 55.2823 165.734 55.305V53.639ZM191.152 48.76C191.299 48.964 191.469 49.219 191.662 49.525C191.855 49.8197 192.042 50.1257 192.223 50.443C192.416 50.7603 192.574 51.055 192.699 51.327L191.73 51.769C191.594 51.4743 191.441 51.1797 191.271 50.885C191.112 50.579 190.942 50.2843 190.761 50.001C190.591 49.7063 190.41 49.4343 190.217 49.185L191.152 48.76ZM193.209 47.91C193.356 48.1027 193.526 48.3463 193.719 48.641C193.923 48.9357 194.121 49.2417 194.314 49.559C194.507 49.8763 194.671 50.1653 194.807 50.426L193.855 50.902C193.708 50.6073 193.549 50.3127 193.379 50.018C193.209 49.7233 193.028 49.4343 192.835 49.151C192.654 48.8677 192.467 48.6013 192.274 48.352L193.209 47.91ZM185.185 59.725C185.185 59.5663 185.185 59.249 185.185 58.773C185.185 58.297 185.185 57.7303 185.185 57.073C185.185 56.4043 185.185 55.7017 185.185 54.965C185.185 54.2283 185.185 53.5143 185.185 52.823C185.185 52.1317 185.185 51.5197 185.185 50.987C185.185 50.4543 185.185 50.069 185.185 49.831C185.185 49.593 185.174 49.304 185.151 48.964C185.14 48.624 185.106 48.3237 185.049 48.063H186.732C186.698 48.3237 186.67 48.624 186.647 48.964C186.624 49.2927 186.613 49.5817 186.613 49.831C186.613 50.273 186.613 50.8057 186.613 51.429C186.613 52.041 186.613 52.6983 186.613 53.401C186.613 54.0923 186.613 54.7837 186.613 55.475C186.613 56.155 186.613 56.7953 186.613 57.396C186.613 57.9853 186.613 58.4897 186.613 58.909C186.613 59.317 186.613 59.589 186.613 59.725C186.613 59.895 186.613 60.1047 186.613 60.354C186.624 60.6033 186.641 60.847 186.664 61.085C186.687 61.3343 186.704 61.5497 186.715 61.731H185.083C185.117 61.459 185.14 61.136 185.151 60.762C185.174 60.388 185.185 60.0423 185.185 59.725ZM186.307 52.517C186.862 52.687 187.48 52.891 188.16 53.129C188.84 53.3557 189.526 53.5993 190.217 53.86C190.92 54.1207 191.583 54.387 192.206 54.659C192.841 54.9197 193.396 55.169 193.872 55.407L193.277 56.852C192.79 56.5913 192.24 56.325 191.628 56.053C191.027 55.781 190.404 55.5147 189.758 55.254C189.112 54.9933 188.489 54.761 187.888 54.557C187.299 54.353 186.772 54.1773 186.307 54.03V52.517ZM203.82 47.553C203.752 47.893 203.661 48.2953 203.548 48.76C203.446 49.2133 203.276 49.729 203.038 50.307C202.834 50.817 202.579 51.344 202.273 51.888C201.978 52.432 201.661 52.925 201.321 53.367C201.536 53.231 201.78 53.1177 202.052 53.027C202.324 52.925 202.602 52.8513 202.885 52.806C203.18 52.7607 203.446 52.738 203.684 52.738C204.341 52.738 204.897 52.925 205.35 53.299C205.803 53.6617 206.03 54.1943 206.03 54.897C206.03 55.1123 206.03 55.39 206.03 55.73C206.03 56.0587 206.03 56.41 206.03 56.784C206.041 57.1467 206.053 57.5037 206.064 57.855C206.075 58.2063 206.081 58.5123 206.081 58.773H204.772C204.783 58.5463 204.795 58.28 204.806 57.974C204.817 57.668 204.823 57.345 204.823 57.005C204.834 56.665 204.834 56.342 204.823 56.036C204.823 55.73 204.823 55.4693 204.823 55.254C204.823 54.7553 204.67 54.3927 204.364 54.166C204.069 53.928 203.695 53.809 203.242 53.809C202.709 53.809 202.182 53.928 201.661 54.166C201.151 54.3927 200.703 54.6873 200.318 55.05C200.069 55.288 199.819 55.56 199.57 55.866C199.332 56.1607 199.066 56.478 198.771 56.818L197.615 55.968C198.431 55.1747 199.111 54.4323 199.655 53.741C200.199 53.0497 200.641 52.4093 200.981 51.82C201.321 51.2193 201.587 50.681 201.78 50.205C201.961 49.729 202.109 49.253 202.222 48.777C202.335 48.2897 202.403 47.842 202.426 47.434L203.82 47.553ZM198.006 49.389C198.459 49.4457 198.952 49.491 199.485 49.525C200.018 49.559 200.482 49.576 200.879 49.576C201.638 49.576 202.454 49.559 203.327 49.525C204.2 49.4797 205.078 49.4173 205.962 49.338C206.857 49.2587 207.707 49.1453 208.512 48.998L208.495 50.256C207.906 50.358 207.277 50.443 206.608 50.511C205.939 50.5677 205.259 50.6187 204.568 50.664C203.877 50.698 203.208 50.7263 202.562 50.749C201.927 50.7603 201.338 50.766 200.794 50.766C200.556 50.766 200.278 50.766 199.961 50.766C199.655 50.7547 199.332 50.7433 198.992 50.732C198.652 50.7093 198.323 50.6867 198.006 50.664V49.389ZM210.994 53.503C210.847 53.537 210.682 53.588 210.501 53.656C210.331 53.7127 210.155 53.775 209.974 53.843C209.804 53.911 209.64 53.979 209.481 54.047C208.892 54.2737 208.206 54.5513 207.424 54.88C206.642 55.2087 205.843 55.5883 205.027 56.019C204.46 56.3023 203.962 56.6027 203.531 56.92C203.1 57.226 202.76 57.549 202.511 57.889C202.262 58.2177 202.137 58.5803 202.137 58.977C202.137 59.3057 202.211 59.572 202.358 59.776C202.517 59.98 202.738 60.1387 203.021 60.252C203.304 60.354 203.627 60.422 203.99 60.456C204.364 60.49 204.772 60.507 205.214 60.507C205.871 60.507 206.619 60.473 207.458 60.405C208.308 60.3257 209.107 60.2237 209.855 60.099L209.821 61.459C209.39 61.5157 208.903 61.5667 208.359 61.612C207.826 61.6573 207.282 61.6913 206.727 61.714C206.183 61.748 205.662 61.765 205.163 61.765C204.358 61.765 203.622 61.6913 202.953 61.544C202.296 61.3967 201.769 61.136 201.372 60.762C200.975 60.388 200.777 59.8553 200.777 59.164C200.777 58.654 200.896 58.1893 201.134 57.77C201.372 57.3393 201.689 56.9483 202.086 56.597C202.494 56.2457 202.942 55.9227 203.429 55.628C203.916 55.322 204.415 55.0443 204.925 54.795C205.469 54.5003 205.979 54.2453 206.455 54.03C206.942 53.8147 207.401 53.6163 207.832 53.435C208.263 53.2537 208.665 53.0723 209.039 52.891C209.288 52.7777 209.526 52.67 209.753 52.568C209.98 52.466 210.206 52.3527 210.433 52.228L210.994 53.503ZM213.071 48.42H227.98V49.61H213.071V48.42ZM219.837 46.72H221.146V48.896H219.837V46.72ZM222.132 48.896H223.373V53.367C223.373 53.6843 223.333 53.9337 223.254 54.115C223.175 54.285 223.016 54.421 222.778 54.523C222.551 54.6137 222.24 54.6703 221.843 54.693C221.446 54.7043 220.965 54.71 220.398 54.71C220.364 54.54 220.313 54.353 220.245 54.149C220.177 53.9337 220.109 53.741 220.041 53.571C220.46 53.5823 220.84 53.588 221.18 53.588C221.52 53.588 221.741 53.588 221.843 53.588C221.956 53.5767 222.03 53.554 222.064 53.52C222.109 53.486 222.132 53.4237 222.132 53.333V48.896ZM218.562 48.76H219.769V49.712C219.769 50.1427 219.735 50.6017 219.667 51.089C219.61 51.5763 219.486 52.0693 219.293 52.568C219.1 53.0667 218.806 53.554 218.409 54.03C218.012 54.4947 217.48 54.9367 216.811 55.356C216.743 55.254 216.652 55.152 216.539 55.05C216.437 54.9367 216.324 54.829 216.199 54.727C216.086 54.625 215.984 54.54 215.893 54.472C216.505 54.1207 216.992 53.741 217.355 53.333C217.718 52.925 217.984 52.5057 218.154 52.075C218.324 51.6443 218.432 51.225 218.477 50.817C218.534 50.409 218.562 50.0293 218.562 49.678V48.76ZM224.24 50.987L225.243 50.409C225.617 50.7263 225.997 51.0833 226.382 51.48C226.767 51.8767 227.13 52.2733 227.47 52.67C227.81 53.0553 228.082 53.401 228.286 53.707L227.215 54.387C227.034 54.0697 226.779 53.7127 226.45 53.316C226.121 52.9193 225.764 52.517 225.379 52.109C224.994 51.701 224.614 51.327 224.24 50.987ZM215.638 50.494L216.862 50.817C216.499 51.463 216.029 52.0977 215.451 52.721C214.884 53.333 214.289 53.8373 213.666 54.234C213.553 54.1207 213.405 53.9903 213.224 53.843C213.054 53.6957 212.901 53.5767 212.765 53.486C213.162 53.248 213.547 52.9647 213.921 52.636C214.295 52.3073 214.629 51.956 214.924 51.582C215.23 51.208 215.468 50.8453 215.638 50.494ZM217.661 56.512C218.262 57.43 219.078 58.212 220.109 58.858C221.152 59.504 222.37 60.0253 223.764 60.422C225.158 60.8073 226.682 61.068 228.337 61.204C228.258 61.306 228.167 61.425 228.065 61.561C227.963 61.7083 227.872 61.85 227.793 61.986C227.714 62.1333 227.646 62.2693 227.589 62.394C225.889 62.2127 224.331 61.8953 222.914 61.442C221.509 60.9887 220.268 60.388 219.191 59.64C218.126 58.892 217.247 57.9797 216.556 56.903L217.661 56.512ZM218.647 54.404L220.007 54.659C219.372 55.5203 218.562 56.342 217.576 57.124C216.59 57.8947 215.406 58.5803 214.023 59.181C213.966 59.079 213.887 58.9713 213.785 58.858C213.694 58.7333 213.598 58.6143 213.496 58.501C213.394 58.3877 213.298 58.3027 213.207 58.246C214.522 57.736 215.638 57.1353 216.556 56.444C217.474 55.7527 218.171 55.0727 218.647 54.404ZM218.154 55.696H224.495V56.75H217.219L218.154 55.696ZM224.155 55.696H224.444L224.682 55.645L225.515 56.206C224.971 57.158 224.274 57.9853 223.424 58.688C222.585 59.3793 221.628 59.9687 220.551 60.456C219.486 60.9433 218.347 61.3457 217.134 61.663C215.933 61.9803 214.697 62.2297 213.428 62.411C213.394 62.309 213.337 62.1843 213.258 62.037C213.19 61.8897 213.116 61.748 213.037 61.612C212.958 61.476 212.873 61.3627 212.782 61.272C214.029 61.1247 215.23 60.915 216.386 60.643C217.553 60.371 218.641 60.0253 219.65 59.606C220.659 59.1753 221.548 58.654 222.319 58.042C223.101 57.43 223.713 56.7217 224.155 55.917V55.696ZM229.105 47.621H243.895V48.777H229.105V47.621ZM235.939 48.114H237.265V54.71C237.265 55.3673 237.214 56.0077 237.112 56.631C237.01 57.243 236.812 57.8323 236.517 58.399C236.222 58.9657 235.792 59.4983 235.225 59.997C234.658 60.4957 233.91 60.9433 232.981 61.34C232.063 61.7367 230.924 62.0823 229.564 62.377C229.519 62.275 229.451 62.156 229.36 62.02C229.269 61.884 229.173 61.7423 229.071 61.595C228.98 61.459 228.89 61.3457 228.799 61.255C230.125 61.0057 231.224 60.711 232.097 60.371C232.97 60.031 233.661 59.6513 234.171 59.232C234.692 58.8013 235.078 58.348 235.327 57.872C235.576 57.3847 235.741 56.8747 235.82 56.342C235.899 55.8093 235.939 55.2597 235.939 54.693V48.114ZM231.876 54.013V55.747H241.566V54.013H231.876ZM231.876 51.293V52.993H241.566V51.293H231.876ZM230.652 50.222H242.841V56.801H230.652V50.222ZM232.284 56.954C232.828 57.7927 233.48 58.4727 234.239 58.994C234.998 59.5153 235.877 59.9177 236.874 60.201C237.883 60.4843 239.016 60.6883 240.274 60.813C241.532 60.9263 242.932 61.0057 244.473 61.051C244.36 61.1983 244.246 61.391 244.133 61.629C244.031 61.867 243.963 62.0937 243.929 62.309C242.354 62.241 240.914 62.122 239.611 61.952C238.308 61.7933 237.129 61.5383 236.075 61.187C235.021 60.847 234.086 60.371 233.27 59.759C232.454 59.147 231.763 58.3593 231.196 57.396L232.284 56.954ZM249.78 47.757C249.735 48.0403 249.701 48.3293 249.678 48.624C249.655 48.9073 249.638 49.1907 249.627 49.474C249.604 49.95 249.582 50.5393 249.559 51.242C249.536 51.9447 249.514 52.6927 249.491 53.486C249.468 54.268 249.451 55.05 249.44 55.832C249.429 56.614 249.423 57.3167 249.423 57.94C249.423 58.5633 249.542 59.062 249.78 59.436C250.018 59.81 250.347 60.0763 250.766 60.235C251.185 60.3937 251.667 60.473 252.211 60.473C252.982 60.473 253.679 60.3767 254.302 60.184C254.925 59.98 255.481 59.7137 255.968 59.385C256.455 59.045 256.886 58.6653 257.26 58.246C257.645 57.8267 257.991 57.396 258.297 56.954L259.266 58.11C258.971 58.518 258.609 58.943 258.178 59.385C257.759 59.8157 257.26 60.218 256.682 60.592C256.104 60.966 255.435 61.272 254.676 61.51C253.928 61.748 253.089 61.867 252.16 61.867C251.355 61.867 250.641 61.7423 250.018 61.493C249.395 61.2437 248.907 60.8413 248.556 60.286C248.205 59.7307 248.029 58.994 248.029 58.076C248.029 57.566 248.035 57.005 248.046 56.393C248.057 55.7697 248.074 55.1293 248.097 54.472C248.12 53.8147 248.137 53.1743 248.148 52.551C248.159 51.9163 248.171 51.3327 248.182 50.8C248.193 50.2673 248.199 49.8253 248.199 49.474C248.199 49.1567 248.188 48.8507 248.165 48.556C248.142 48.2613 248.108 47.9893 248.063 47.74L249.78 47.757ZM269.741 47.502C269.718 47.6493 269.696 47.8137 269.673 47.995C269.662 48.1763 269.65 48.3917 269.639 48.641C269.639 48.811 269.633 49.066 269.622 49.406C269.622 49.746 269.622 50.1313 269.622 50.562C269.622 50.9813 269.622 51.4063 269.622 51.837C269.622 52.2677 269.622 52.6643 269.622 53.027C269.622 53.5937 269.633 54.1887 269.656 54.812C269.679 55.4353 269.707 56.0417 269.741 56.631C269.775 57.2203 269.803 57.7587 269.826 58.246C269.849 58.7333 269.86 59.1187 269.86 59.402C269.86 59.7987 269.764 60.1783 269.571 60.541C269.39 60.9037 269.078 61.1983 268.636 61.425C268.205 61.663 267.616 61.782 266.868 61.782C265.644 61.782 264.709 61.5667 264.063 61.136C263.417 60.7167 263.094 60.099 263.094 59.283C263.094 58.7617 263.247 58.3083 263.553 57.923C263.87 57.5377 264.324 57.2373 264.913 57.022C265.502 56.7953 266.205 56.682 267.021 56.682C267.916 56.682 268.755 56.7897 269.537 57.005C270.33 57.209 271.056 57.4697 271.713 57.787C272.37 58.1043 272.954 58.4387 273.464 58.79C273.974 59.13 274.393 59.436 274.722 59.708L273.94 60.915C273.555 60.5523 273.107 60.1897 272.597 59.827C272.098 59.4643 271.549 59.13 270.948 58.824C270.359 58.518 269.718 58.2743 269.027 58.093C268.347 57.9003 267.622 57.804 266.851 57.804C266.035 57.804 265.412 57.94 264.981 58.212C264.562 58.484 264.352 58.8183 264.352 59.215C264.352 59.4643 264.431 59.6967 264.59 59.912C264.749 60.116 265.004 60.2803 265.355 60.405C265.706 60.5297 266.16 60.592 266.715 60.592C267.044 60.592 267.344 60.5523 267.616 60.473C267.888 60.3823 268.103 60.2293 268.262 60.014C268.432 59.7987 268.517 59.4983 268.517 59.113C268.517 58.7843 268.506 58.3593 268.483 57.838C268.472 57.3053 268.455 56.7443 268.432 56.155C268.409 55.5543 268.387 54.9763 268.364 54.421C268.353 53.8657 268.347 53.401 268.347 53.027C268.347 52.6417 268.347 52.2507 268.347 51.854C268.347 51.446 268.347 51.0437 268.347 50.647C268.347 50.2503 268.347 49.8707 268.347 49.508C268.358 49.1453 268.364 48.8167 268.364 48.522C268.364 48.386 268.358 48.2103 268.347 47.995C268.336 47.7797 268.319 47.6153 268.296 47.502H269.741ZM263.23 49.355C263.513 49.4003 263.842 49.4457 264.216 49.491C264.59 49.5363 264.981 49.5817 265.389 49.627C265.808 49.661 266.205 49.6893 266.579 49.712C266.964 49.7233 267.299 49.729 267.582 49.729C268.659 49.729 269.758 49.6893 270.88 49.61C272.013 49.5307 273.13 49.4003 274.229 49.219L274.212 50.46C273.589 50.528 272.909 50.596 272.172 50.664C271.435 50.732 270.676 50.7887 269.894 50.834C269.123 50.8793 268.358 50.902 267.599 50.902C267.202 50.902 266.732 50.885 266.188 50.851C265.644 50.817 265.106 50.7773 264.573 50.732C264.052 50.6867 263.61 50.647 263.247 50.613L263.23 49.355ZM263.145 52.959C263.451 53.0043 263.791 53.0497 264.165 53.095C264.539 53.1403 264.924 53.1743 265.321 53.197C265.718 53.2197 266.097 53.2423 266.46 53.265C266.823 53.2763 267.146 53.282 267.429 53.282C268.256 53.282 269.055 53.265 269.826 53.231C270.608 53.1857 271.373 53.129 272.121 53.061C272.88 52.9817 273.628 52.8853 274.365 52.772L274.348 54.047C273.781 54.1263 273.215 54.1943 272.648 54.251C272.093 54.2963 271.532 54.336 270.965 54.37C270.41 54.404 269.837 54.4323 269.248 54.455C268.67 54.4663 268.058 54.472 267.412 54.472C267.027 54.472 266.579 54.4607 266.069 54.438C265.57 54.4153 265.06 54.387 264.539 54.353C264.029 54.319 263.57 54.2793 263.162 54.234L263.145 52.959ZM286.659 47.536C286.659 47.5927 286.648 47.6947 286.625 47.842C286.614 47.9893 286.602 48.1367 286.591 48.284C286.591 48.42 286.585 48.5277 286.574 48.607C286.563 48.8223 286.557 49.117 286.557 49.491C286.557 49.865 286.557 50.273 286.557 50.715C286.557 51.157 286.557 51.6047 286.557 52.058C286.568 52.5113 286.574 52.9363 286.574 53.333C286.585 53.7297 286.591 54.064 286.591 54.336L285.282 53.69C285.282 53.5313 285.282 53.2933 285.282 52.976C285.282 52.6473 285.282 52.2733 285.282 51.854C285.282 51.4233 285.276 50.9983 285.265 50.579C285.265 50.1597 285.259 49.7743 285.248 49.423C285.237 49.0717 285.225 48.7997 285.214 48.607C285.203 48.3803 285.186 48.165 285.163 47.961C285.14 47.7457 285.123 47.604 285.112 47.536H286.659ZM277.632 49.899C278.097 49.899 278.624 49.8933 279.213 49.882C279.802 49.8593 280.426 49.8367 281.083 49.814C281.752 49.7913 282.426 49.7743 283.106 49.763C283.786 49.7517 284.438 49.7403 285.061 49.729C285.696 49.7177 286.279 49.712 286.812 49.712C287.322 49.712 287.832 49.712 288.342 49.712C288.852 49.712 289.328 49.712 289.77 49.712C290.223 49.712 290.62 49.7177 290.96 49.729C291.311 49.729 291.589 49.729 291.793 49.729L291.776 50.987C291.3 50.9643 290.66 50.9473 289.855 50.936C289.062 50.9133 288.042 50.902 286.795 50.902C286.058 50.902 285.288 50.9133 284.483 50.936C283.69 50.9473 282.891 50.9643 282.086 50.987C281.281 51.0097 280.499 51.0437 279.74 51.089C278.992 51.123 278.301 51.1627 277.666 51.208L277.632 49.899ZM286.557 54.846C286.557 55.594 286.444 56.223 286.217 56.733C286.002 57.243 285.696 57.6227 285.299 57.872C284.914 58.1213 284.46 58.246 283.939 58.246C283.588 58.246 283.242 58.1893 282.902 58.076C282.573 57.9513 282.273 57.77 282.001 57.532C281.74 57.2827 281.531 56.9823 281.372 56.631C281.225 56.2683 281.151 55.8603 281.151 55.407C281.151 54.8403 281.287 54.336 281.559 53.894C281.831 53.452 282.194 53.1007 282.647 52.84C283.112 52.5793 283.61 52.449 284.143 52.449C284.812 52.449 285.361 52.602 285.792 52.908C286.234 53.2027 286.568 53.6107 286.795 54.132C287.022 54.642 287.135 55.2257 287.135 55.883C287.135 56.4497 287.05 57.0277 286.88 57.617C286.721 58.2063 286.449 58.773 286.064 59.317C285.69 59.861 285.174 60.3597 284.517 60.813C283.871 61.255 283.049 61.6233 282.052 61.918L280.913 60.796C281.684 60.6147 282.375 60.3823 282.987 60.099C283.599 59.8157 284.115 59.47 284.534 59.062C284.953 58.654 285.271 58.178 285.486 57.634C285.713 57.09 285.826 56.4667 285.826 55.764C285.826 54.9933 285.662 54.438 285.333 54.098C285.004 53.758 284.608 53.588 284.143 53.588C283.848 53.588 283.571 53.6617 283.31 53.809C283.049 53.945 282.834 54.149 282.664 54.421C282.505 54.693 282.426 55.016 282.426 55.39C282.426 55.9227 282.596 56.3363 282.936 56.631C283.287 56.9257 283.695 57.073 284.16 57.073C284.511 57.073 284.812 56.9767 285.061 56.784C285.31 56.58 285.486 56.2797 285.588 55.883C285.701 55.475 285.713 54.9707 285.622 54.37L286.557 54.846ZM299.446 47.74C299.412 47.8873 299.378 48.0517 299.344 48.233C299.31 48.403 299.276 48.573 299.242 48.743C299.208 48.947 299.157 49.2247 299.089 49.576C299.032 49.9273 298.97 50.3013 298.902 50.698C298.834 51.0833 298.755 51.4517 298.664 51.803C298.551 52.2903 298.409 52.84 298.239 53.452C298.069 54.0527 297.876 54.693 297.661 55.373C297.446 56.053 297.202 56.75 296.93 57.464C296.658 58.1667 296.358 58.8693 296.029 59.572C295.7 60.2633 295.343 60.915 294.958 61.527L293.564 60.983C293.961 60.4617 294.323 59.878 294.652 59.232C294.992 58.586 295.304 57.9173 295.587 57.226C295.87 56.5233 296.125 55.832 296.352 55.152C296.59 54.472 296.788 53.843 296.947 53.265C297.106 52.687 297.23 52.1883 297.321 51.769C297.48 51.089 297.61 50.3863 297.712 49.661C297.814 48.9243 297.865 48.2273 297.865 47.57L299.446 47.74ZM305.294 49.542C305.566 49.8933 305.849 50.3297 306.144 50.851C306.45 51.3723 306.745 51.9277 307.028 52.517C307.323 53.1063 307.589 53.673 307.827 54.217C308.065 54.761 308.258 55.2313 308.405 55.628L307.079 56.257C306.954 55.8263 306.784 55.3333 306.569 54.778C306.354 54.2113 306.104 53.639 305.821 53.061C305.549 52.4717 305.26 51.922 304.954 51.412C304.659 50.8907 304.359 50.4543 304.053 50.103L305.294 49.542ZM293.326 51.463C293.587 51.4857 293.836 51.497 294.074 51.497C294.312 51.4857 294.567 51.4743 294.839 51.463C295.1 51.4517 295.428 51.4347 295.825 51.412C296.222 51.378 296.652 51.344 297.117 51.31C297.593 51.276 298.058 51.242 298.511 51.208C298.976 51.1627 299.401 51.1287 299.786 51.106C300.183 51.072 300.494 51.055 300.721 51.055C301.231 51.055 301.69 51.1343 302.098 51.293C302.517 51.4517 302.852 51.7407 303.101 52.16C303.35 52.5793 303.475 53.1687 303.475 53.928C303.475 54.5967 303.441 55.322 303.373 56.104C303.316 56.8747 303.214 57.6113 303.067 58.314C302.92 59.0167 302.727 59.6003 302.489 60.065C302.228 60.643 301.888 61.0227 301.469 61.204C301.05 61.3967 300.562 61.493 300.007 61.493C299.69 61.493 299.344 61.4647 298.97 61.408C298.596 61.3627 298.273 61.306 298.001 61.238L297.78 59.827C298.029 59.895 298.279 59.9573 298.528 60.014C298.789 60.0707 299.038 60.1103 299.276 60.133C299.514 60.1557 299.712 60.167 299.871 60.167C300.177 60.167 300.455 60.116 300.704 60.014C300.965 59.9007 301.18 59.6627 301.35 59.3C301.531 58.9147 301.679 58.433 301.792 57.855C301.917 57.2657 302.007 56.6423 302.064 55.985C302.132 55.3277 302.166 54.6987 302.166 54.098C302.166 53.5653 302.092 53.1743 301.945 52.925C301.798 52.6643 301.588 52.4887 301.316 52.398C301.044 52.296 300.727 52.245 300.364 52.245C300.069 52.245 299.678 52.2677 299.191 52.313C298.704 52.347 298.182 52.3923 297.627 52.449C297.083 52.5057 296.573 52.5623 296.097 52.619C295.621 52.6643 295.253 52.704 294.992 52.738C294.799 52.7607 294.55 52.7947 294.244 52.84C293.949 52.874 293.689 52.908 293.462 52.942L293.326 51.463ZM315.565 56.886C315.474 56.4213 315.491 56.002 315.616 55.628C315.752 55.254 315.95 54.9197 316.211 54.625C316.483 54.319 316.778 54.0413 317.095 53.792C317.424 53.5313 317.735 53.2763 318.03 53.027C318.325 52.7777 318.568 52.5227 318.761 52.262C318.954 51.99 319.05 51.6953 319.05 51.378C319.05 50.9813 318.954 50.63 318.761 50.324C318.568 50.018 318.285 49.78 317.911 49.61C317.537 49.4287 317.055 49.338 316.466 49.338C315.888 49.338 315.327 49.4683 314.783 49.729C314.25 49.9783 313.74 50.3637 313.253 50.885L312.335 50.035C312.902 49.4343 313.531 48.9583 314.222 48.607C314.913 48.2443 315.718 48.063 316.636 48.063C317.441 48.063 318.132 48.1933 318.71 48.454C319.299 48.7147 319.753 49.083 320.07 49.559C320.399 50.0237 320.563 50.5847 320.563 51.242C320.563 51.6727 320.467 52.0523 320.274 52.381C320.081 52.7097 319.832 53.01 319.526 53.282C319.231 53.554 318.92 53.8203 318.591 54.081C318.262 54.3303 317.956 54.591 317.673 54.863C317.401 55.135 317.191 55.4353 317.044 55.764C316.908 56.0927 316.88 56.4667 316.959 56.886H315.565ZM316.296 61.085C315.99 61.085 315.729 60.983 315.514 60.779C315.299 60.575 315.191 60.303 315.191 59.963C315.191 59.623 315.299 59.351 315.514 59.147C315.729 58.9317 315.99 58.824 316.296 58.824C316.591 58.824 316.846 58.9317 317.061 59.147C317.276 59.351 317.384 59.623 317.384 59.963C317.384 60.303 317.276 60.575 317.061 60.779C316.846 60.983 316.591 61.085 316.296 61.085Z" fill="#646464"/>
</svg>
