<svg width="344" height="248" viewBox="0 0 344 248" fill="none" xmlns="http://www.w3.org/2000/svg">
<rect width="344" height="248" rx="15" fill="white"/>
<rect width="96" height="20" transform="translate(124 114)" fill="white"/>
<path d="M22.249 21.998C22.2037 21.7827 22.1527 21.5843 22.096 21.403C22.0507 21.2103 21.9997 21.029 21.943 20.859L23.303 20.621C23.3143 20.7797 23.337 20.9667 23.371 21.182C23.405 21.3973 23.4333 21.5957 23.456 21.777C23.4787 21.879 23.5297 22.1397 23.609 22.559C23.6883 22.967 23.7847 23.4827 23.898 24.106C24.0227 24.7293 24.1587 25.4037 24.306 26.129C24.4533 26.8543 24.6007 27.5853 24.748 28.322C24.8953 29.0587 25.0313 29.75 25.156 30.396C25.292 31.042 25.4053 31.5917 25.496 32.045C25.5867 32.4983 25.649 32.793 25.683 32.929C25.7397 33.167 25.802 33.422 25.87 33.694C25.938 33.966 26.0117 34.221 26.091 34.459L24.697 34.714C24.6517 34.442 24.612 34.1757 24.578 33.915C24.544 33.6543 24.4987 33.3993 24.442 33.15C24.4193 33.014 24.3627 32.725 24.272 32.283C24.1927 31.8297 24.0907 31.2857 23.966 30.651C23.8413 30.0163 23.7053 29.3363 23.558 28.611C23.4107 27.8743 23.2633 27.1433 23.116 26.418C22.98 25.6813 22.8497 25.0013 22.725 24.378C22.6003 23.7547 22.4927 23.2333 22.402 22.814C22.3227 22.3833 22.2717 22.1113 22.249 21.998ZM17.421 24.497C17.625 24.4857 17.8403 24.4743 18.067 24.463C18.2937 24.4403 18.543 24.4177 18.815 24.395C19.0757 24.361 19.4383 24.3157 19.903 24.259C20.3677 24.191 20.889 24.1117 21.467 24.021C22.0563 23.9303 22.6627 23.834 23.286 23.732C23.9207 23.63 24.5327 23.5337 25.122 23.443C25.7113 23.341 26.244 23.2503 26.72 23.171C27.196 23.0917 27.57 23.0237 27.842 22.967C28.0913 22.9217 28.3123 22.8763 28.505 22.831C28.709 22.7857 28.8733 22.7403 28.998 22.695L29.253 23.987C29.1397 23.9983 28.9697 24.021 28.743 24.055C28.5277 24.089 28.3123 24.123 28.097 24.157C27.8023 24.2023 27.4113 24.2647 26.924 24.344C26.4367 24.412 25.8983 24.497 25.309 24.599C24.7197 24.6897 24.1077 24.786 23.473 24.888C22.8497 24.9787 22.2433 25.075 21.654 25.177C21.076 25.2677 20.5547 25.3527 20.09 25.432C19.6367 25.5 19.2853 25.5567 19.036 25.602C18.798 25.6473 18.577 25.6927 18.373 25.738C18.169 25.772 17.9423 25.8173 17.693 25.874L17.421 24.497ZM17.353 29.393C17.557 29.3817 17.795 29.3647 18.067 29.342C18.3503 29.308 18.5997 29.2797 18.815 29.257C19.121 29.2117 19.529 29.1493 20.039 29.07C20.5603 28.9907 21.144 28.9 21.79 28.798C22.4473 28.696 23.1217 28.5883 23.813 28.475C24.5157 28.3617 25.1957 28.2483 25.853 28.135C26.5217 28.0217 27.128 27.9197 27.672 27.829C28.2273 27.727 28.675 27.6477 29.015 27.591C29.3437 27.5343 29.627 27.4777 29.865 27.421C30.103 27.3643 30.307 27.3133 30.477 27.268L30.732 28.543C30.562 28.5543 30.3523 28.5827 30.103 28.628C29.8537 28.662 29.5647 28.7073 29.236 28.764C28.862 28.8207 28.3917 28.9 27.825 29.002C27.2697 29.0927 26.6577 29.1947 25.989 29.308C25.3317 29.41 24.6573 29.5177 23.966 29.631C23.286 29.733 22.6287 29.8407 21.994 29.954C21.3593 30.056 20.787 30.1467 20.277 30.226C19.7783 30.3053 19.3873 30.3733 19.104 30.43C18.7753 30.4867 18.492 30.5377 18.254 30.583C18.0273 30.6283 17.8177 30.6793 17.625 30.736L17.353 29.393ZM38.994 23.664C39.028 23.8 39.062 23.9587 39.096 24.14C39.1413 24.31 39.1867 24.5027 39.232 24.718C39.2887 24.9333 39.385 25.2847 39.521 25.772C39.657 26.2593 39.81 26.826 39.98 27.472C40.1613 28.1067 40.3427 28.7697 40.524 29.461C40.7167 30.141 40.9037 30.7983 41.085 31.433C41.2663 32.0563 41.4193 32.6003 41.544 33.065C41.68 33.5183 41.7763 33.8413 41.833 34.034C41.8783 34.136 41.918 34.255 41.952 34.391C41.986 34.5383 42.0257 34.6743 42.071 34.799C42.1163 34.935 42.1617 35.054 42.207 35.156L40.898 35.496C40.8753 35.3033 40.8413 35.105 40.796 34.901C40.762 34.7083 40.7167 34.51 40.66 34.306C40.6033 34.1133 40.507 33.779 40.371 33.303C40.2463 32.8157 40.0933 32.2547 39.912 31.62C39.742 30.9853 39.5607 30.328 39.368 29.648C39.1867 28.9567 39.0053 28.2937 38.824 27.659C38.654 27.013 38.501 26.452 38.365 25.976C38.2403 25.5 38.144 25.1657 38.076 24.973C38.0193 24.7577 37.957 24.5707 37.889 24.412C37.8323 24.2533 37.7643 24.1117 37.685 23.987L38.994 23.664ZM47.154 25.942C46.984 26.3047 46.7517 26.7127 46.457 27.166C46.1737 27.608 45.8563 28.0613 45.505 28.526C45.165 28.9793 44.8193 29.41 44.468 29.818C44.128 30.226 43.8163 30.5717 43.533 30.855L42.462 30.311C42.8247 29.9937 43.1987 29.6253 43.584 29.206C43.9693 28.7753 44.3263 28.3447 44.655 27.914C44.995 27.472 45.2613 27.0753 45.454 26.724C45.352 26.7467 45.114 26.7977 44.74 26.877C44.366 26.945 43.9013 27.0357 43.346 27.149C42.802 27.251 42.207 27.37 41.561 27.506C40.9263 27.6307 40.2803 27.761 39.623 27.897C38.977 28.0217 38.365 28.1407 37.787 28.254C37.209 28.3673 36.7103 28.4693 36.291 28.56C35.883 28.6393 35.594 28.696 35.424 28.73L35.118 27.574C35.356 27.5513 35.5827 27.5287 35.798 27.506C36.0133 27.472 36.2457 27.4323 36.495 27.387C36.6197 27.3643 36.8577 27.319 37.209 27.251C37.5717 27.183 38.0137 27.1037 38.535 27.013C39.0563 26.911 39.6117 26.809 40.201 26.707C40.8017 26.5937 41.4023 26.4803 42.003 26.367C42.6037 26.2423 43.1647 26.129 43.686 26.027C44.2187 25.925 44.6663 25.84 45.029 25.772C45.403 25.6927 45.658 25.636 45.794 25.602C45.8847 25.5793 45.9867 25.551 46.1 25.517C46.2247 25.483 46.3267 25.449 46.406 25.415L47.154 25.942ZM53.325 21.624C53.6197 21.828 53.9653 22.083 54.362 22.389C54.7587 22.6837 55.161 23.001 55.569 23.341C55.9883 23.6697 56.3793 23.9927 56.742 24.31C57.1047 24.616 57.3993 24.888 57.626 25.126L56.691 26.078C56.4757 25.8627 56.198 25.5963 55.858 25.279C55.518 24.9617 55.144 24.633 54.736 24.293C54.328 23.953 53.9257 23.63 53.529 23.324C53.1323 23.0067 52.7753 22.746 52.458 22.542L53.325 21.624ZM51.982 33.031C52.9907 32.8837 53.9087 32.674 54.736 32.402C55.5633 32.13 56.317 31.8297 56.997 31.501C57.677 31.161 58.2833 30.8267 58.816 30.498C59.6773 29.954 60.4707 29.3307 61.196 28.628C61.9213 27.9253 62.556 27.2 63.1 26.452C63.644 25.704 64.0803 24.9843 64.409 24.293L65.14 25.585C64.766 26.2763 64.3013 26.9847 63.746 27.71C63.1907 28.424 62.5617 29.1153 61.859 29.784C61.1563 30.4413 60.38 31.042 59.53 31.586C58.9633 31.9373 58.34 32.2887 57.66 32.64C56.9913 32.98 56.2547 33.2917 55.45 33.575C54.6453 33.8583 53.75 34.0907 52.764 34.272L51.982 33.031ZM71.77 31.824C71.77 31.5633 71.77 31.195 71.77 30.719C71.77 30.2317 71.77 29.6877 71.77 29.087C71.77 28.475 71.77 27.846 71.77 27.2C71.77 26.5427 71.77 25.908 71.77 25.296C71.77 24.6727 71.77 24.1117 71.77 23.613C71.77 23.103 71.77 22.7007 71.77 22.406C71.77 22.2473 71.7643 22.083 71.753 21.913C71.753 21.743 71.7473 21.5787 71.736 21.42C71.7247 21.25 71.702 21.08 71.668 20.91H73.096C73.062 21.1593 73.0337 21.4143 73.011 21.675C72.9997 21.9243 72.994 22.168 72.994 22.406C72.994 22.6893 72.994 23.0747 72.994 23.562C72.994 24.038 72.994 24.5763 72.994 25.177C72.994 25.7663 72.994 26.3727 72.994 26.996C72.994 27.6193 72.994 28.2257 72.994 28.815C72.994 29.4043 72.994 29.9313 72.994 30.396C72.994 30.8607 72.994 31.2347 72.994 31.518C72.994 31.9033 73.062 32.215 73.198 32.453C73.334 32.6797 73.5833 32.844 73.946 32.946C74.3087 33.0367 74.83 33.082 75.51 33.082C76.19 33.082 76.819 33.065 77.397 33.031C77.9863 32.997 78.5587 32.9403 79.114 32.861C79.6807 32.7817 80.2417 32.691 80.797 32.589L80.746 33.898C80.236 33.966 79.7033 34.0283 79.148 34.085C78.604 34.1417 78.0203 34.1813 77.397 34.204C76.785 34.238 76.1163 34.255 75.391 34.255C74.643 34.255 74.0253 34.204 73.538 34.102C73.062 34 72.6937 33.847 72.433 33.643C72.1837 33.439 72.008 33.1897 71.906 32.895C71.8153 32.589 71.77 32.232 71.77 31.824ZM81.494 24.208C81.4373 24.2873 81.3693 24.3893 81.29 24.514C81.222 24.6387 81.154 24.752 81.086 24.854C80.8933 25.2053 80.6667 25.5907 80.406 26.01C80.1567 26.4293 79.879 26.8657 79.573 27.319C79.2783 27.761 78.961 28.1973 78.621 28.628C78.2923 29.0473 77.958 29.4327 77.618 29.784L76.564 29.155C76.9947 28.7583 77.414 28.305 77.822 27.795C78.23 27.2737 78.5927 26.7637 78.91 26.265C79.2273 25.7663 79.471 25.347 79.641 25.007C79.5843 25.0183 79.3577 25.0637 78.961 25.143C78.5757 25.2223 78.077 25.3243 77.465 25.449C76.8643 25.5737 76.19 25.7097 75.442 25.857C74.694 26.0043 73.9347 26.1573 73.164 26.316C72.3933 26.4747 71.651 26.6277 70.937 26.775C70.2343 26.911 69.6053 27.0357 69.05 27.149C68.4947 27.2623 68.0753 27.353 67.792 27.421L67.554 26.146C67.86 26.1007 68.285 26.0327 68.829 25.942C69.373 25.8513 69.9907 25.7437 70.682 25.619C71.3847 25.483 72.11 25.3413 72.858 25.194C73.6173 25.0467 74.3653 24.8993 75.102 24.752C75.85 24.6047 76.5413 24.4687 77.176 24.344C77.8107 24.208 78.3547 24.0947 78.808 24.004C79.2613 23.9133 79.5787 23.8453 79.76 23.8C79.93 23.766 80.0887 23.7263 80.236 23.681C80.3947 23.6243 80.5137 23.5733 80.593 23.528L81.494 24.208ZM92.476 33.643C92.4987 33.5183 92.5213 33.3767 92.544 33.218C92.5667 33.0593 92.578 32.9007 92.578 32.742C92.578 32.64 92.578 32.3963 92.578 32.011C92.578 31.6143 92.578 31.1327 92.578 30.566C92.578 29.9993 92.578 29.3873 92.578 28.73C92.578 28.0613 92.578 27.3927 92.578 26.724C92.578 26.0553 92.578 25.432 92.578 24.854C92.578 24.2647 92.578 23.766 92.578 23.358C92.578 22.9387 92.578 22.6553 92.578 22.508C92.578 22.202 92.5667 21.9413 92.544 21.726C92.5213 21.5107 92.5043 21.3633 92.493 21.284H93.887C93.8757 21.3633 93.8587 21.5107 93.836 21.726C93.8247 21.9413 93.819 22.202 93.819 22.508C93.819 22.6553 93.819 22.9387 93.819 23.358C93.819 23.766 93.819 24.2647 93.819 24.854C93.819 25.432 93.819 26.0553 93.819 26.724C93.819 27.3927 93.819 28.0557 93.819 28.713C93.819 29.359 93.819 29.9597 93.819 30.515C93.819 31.059 93.819 31.5067 93.819 31.858C93.819 32.2093 93.819 32.419 93.819 32.487C94.363 32.2377 94.941 31.9033 95.553 31.484C96.1763 31.0647 96.7827 30.5773 97.372 30.022C97.9613 29.4553 98.477 28.849 98.919 28.203L99.633 29.223C99.1457 29.8917 98.5733 30.5263 97.916 31.127C97.27 31.7277 96.5957 32.266 95.893 32.742C95.1903 33.218 94.5047 33.6203 93.836 33.949C93.7 34.017 93.5867 34.085 93.496 34.153C93.4053 34.221 93.3317 34.2777 93.275 34.323L92.476 33.643ZM84.707 33.592C85.4097 33.082 86.0103 32.4643 86.509 31.739C87.019 31.0137 87.4043 30.2317 87.665 29.393C87.7897 28.9963 87.886 28.509 87.954 27.931C88.0333 27.3417 88.0843 26.724 88.107 26.078C88.141 25.4207 88.158 24.786 88.158 24.174C88.1693 23.5507 88.175 23.001 88.175 22.525C88.175 22.2983 88.1637 22.0887 88.141 21.896C88.1297 21.7033 88.107 21.522 88.073 21.352H89.467C89.4557 21.42 89.4443 21.522 89.433 21.658C89.4217 21.7827 89.4103 21.9187 89.399 22.066C89.3877 22.2133 89.382 22.3663 89.382 22.525C89.382 22.9897 89.3763 23.545 89.365 24.191C89.3537 24.8257 89.331 25.4943 89.297 26.197C89.263 26.8883 89.212 27.5457 89.144 28.169C89.076 28.781 88.9797 29.3023 88.855 29.733C88.6057 30.6283 88.2203 31.4783 87.699 32.283C87.1777 33.0763 86.56 33.7677 85.846 34.357L84.707 33.592Z" fill="#0872ED"/>
<path d="M292.654 22.491H301.358V28.118H300.253V23.579H292.654V22.491ZM291.685 27.557H302.803V28.645H291.685V27.557ZM296.105 19.771H297.227V25.568C297.227 26.486 297.17 27.3983 297.057 28.305C296.944 29.2003 296.706 30.073 296.343 30.923C295.992 31.7617 295.453 32.5607 294.728 33.32C294.003 34.068 293.034 34.748 291.821 35.36C291.753 35.2807 291.668 35.19 291.566 35.088C291.464 34.986 291.356 34.884 291.243 34.782C291.13 34.6913 291.022 34.612 290.92 34.544C292.099 33.966 293.034 33.337 293.725 32.657C294.416 31.9657 294.932 31.2347 295.272 30.464C295.612 29.682 295.833 28.883 295.935 28.067C296.048 27.2397 296.105 26.401 296.105 25.551V19.771ZM297.788 28.05C298.173 29.5687 298.791 30.8777 299.641 31.977C300.502 33.0763 301.602 33.881 302.939 34.391C302.848 34.4703 302.752 34.5667 302.65 34.68C302.559 34.7933 302.469 34.9123 302.378 35.037C302.287 35.1617 302.208 35.275 302.14 35.377C300.746 34.765 299.607 33.8583 298.723 32.657C297.839 31.4557 297.182 30.005 296.751 28.305L297.788 28.05ZM288.064 20.723L288.693 19.907C289.056 20.0657 289.43 20.2527 289.815 20.468C290.212 20.672 290.58 20.8873 290.92 21.114C291.26 21.3293 291.538 21.539 291.753 21.743L291.107 22.678C290.892 22.4627 290.614 22.2417 290.274 22.015C289.934 21.777 289.571 21.5447 289.186 21.318C288.801 21.08 288.427 20.8817 288.064 20.723ZM287.18 25.347L287.792 24.48C288.166 24.616 288.551 24.786 288.948 24.99C289.345 25.194 289.719 25.4037 290.07 25.619C290.421 25.823 290.705 26.0213 290.92 26.214L290.274 27.149C290.059 26.9563 289.775 26.7523 289.424 26.537C289.073 26.3103 288.699 26.095 288.302 25.891C287.917 25.6757 287.543 25.4943 287.18 25.347ZM287.639 34.357C287.922 33.915 288.234 33.388 288.574 32.776C288.914 32.1527 289.26 31.501 289.611 30.821C289.962 30.1297 290.28 29.461 290.563 28.815L291.447 29.529C291.175 30.1297 290.875 30.7587 290.546 31.416C290.229 32.0733 289.906 32.7193 289.577 33.354C289.248 33.9773 288.931 34.5553 288.625 35.088L287.639 34.357ZM307.053 24.956H317.066V26.061H307.053V24.956ZM311.983 29.019H317.712V30.09H311.983V29.019ZM311.388 25.483H312.561V34.17L311.388 34V25.483ZM307.359 27.591L308.532 27.727C308.294 29.4383 307.897 30.94 307.342 32.232C306.787 33.5127 306.027 34.5723 305.064 35.411C305.007 35.343 304.922 35.258 304.809 35.156C304.696 35.0653 304.577 34.969 304.452 34.867C304.327 34.7763 304.22 34.7027 304.129 34.646C305.081 33.898 305.806 32.929 306.305 31.739C306.815 30.5377 307.166 29.155 307.359 27.591ZM308.005 29.801C308.311 30.685 308.702 31.399 309.178 31.943C309.665 32.487 310.226 32.9063 310.861 33.201C311.507 33.4843 312.215 33.6827 312.986 33.796C313.757 33.898 314.584 33.949 315.468 33.949C315.581 33.949 315.774 33.949 316.046 33.949C316.329 33.949 316.647 33.949 316.998 33.949C317.361 33.949 317.723 33.949 318.086 33.949C318.46 33.949 318.794 33.949 319.089 33.949C319.395 33.9377 319.622 33.932 319.769 33.932C319.712 34.0227 319.65 34.136 319.582 34.272C319.525 34.4193 319.474 34.561 319.429 34.697C319.395 34.8443 319.367 34.9747 319.344 35.088H318.494H315.417C314.397 35.088 313.456 35.02 312.595 34.884C311.734 34.7593 310.957 34.5213 310.266 34.17C309.575 33.8187 308.963 33.32 308.43 32.674C307.897 32.028 307.45 31.195 307.087 30.175L308.005 29.801ZM311.371 19.754H312.561V22.44H311.371V19.754ZM304.928 21.743H319.072V25.347H317.916V22.831H306.067V25.347H304.928V21.743Z" fill="#0872ED"/>
<path d="M162.736 21.464H170.752V22.536H162.736V21.464ZM162.064 24.568H171.424V25.656H162.064V24.568ZM162.144 27.464H171.264V28.536H162.144V27.464ZM166.096 19.544H167.28V25.24H166.096V19.544ZM168.208 25.48H169.392V32.856C169.392 33.1973 169.344 33.4587 169.248 33.64C169.152 33.832 168.981 33.9707 168.736 34.056C168.48 34.152 168.144 34.2107 167.728 34.232C167.312 34.2533 166.779 34.264 166.128 34.264C166.107 34.104 166.053 33.912 165.968 33.688C165.893 33.4747 165.813 33.288 165.728 33.128C166.219 33.1387 166.667 33.144 167.072 33.144C167.477 33.1547 167.744 33.1547 167.872 33.144C168 33.144 168.085 33.1227 168.128 33.08C168.181 33.0373 168.208 32.9573 168.208 32.84V25.48ZM163.12 29.656L164.08 29.096C164.347 29.3627 164.619 29.6613 164.896 29.992C165.173 30.3227 165.424 30.648 165.648 30.968C165.883 31.288 166.059 31.5813 166.176 31.848L165.152 32.472C165.035 32.2053 164.864 31.912 164.64 31.592C164.427 31.2613 164.187 30.9307 163.92 30.6C163.653 30.2587 163.387 29.944 163.12 29.656ZM157.792 20.6H161.792V31.128H157.792V30.04H160.656V21.704H157.792V20.6ZM157.84 25.256H161.184V26.344H157.84V25.256ZM157.216 20.6H158.336V32.44H157.216V20.6ZM177.568 29.368H182.416V30.296H177.568V29.368ZM177.504 26.952H182.96V32.792H177.504V31.848H181.84V27.896H177.504V26.952ZM176.992 26.952H178.08V33.608H176.992V26.952ZM174.032 22.52H178.48V23.4H174.032V22.52ZM181.408 22.52H185.952V23.4H181.408V22.52ZM185.44 20.248H186.656V32.696C186.656 33.0693 186.603 33.3627 186.496 33.576C186.4 33.7893 186.219 33.9493 185.952 34.056C185.696 34.1627 185.344 34.2267 184.896 34.248C184.459 34.2693 183.909 34.28 183.248 34.28C183.227 34.1627 183.195 34.0293 183.152 33.88C183.109 33.7307 183.056 33.5813 182.992 33.432C182.939 33.2827 182.885 33.1547 182.832 33.048C183.152 33.0587 183.461 33.064 183.76 33.064C184.069 33.064 184.341 33.064 184.576 33.064C184.811 33.064 184.976 33.064 185.072 33.064C185.211 33.0533 185.307 33.0213 185.36 32.968C185.413 32.9147 185.44 32.8187 185.44 32.68V20.248ZM174.128 20.248H179.248V25.736H174.128V24.824H178.128V21.176H174.128V20.248ZM186.048 20.248V21.176H181.84V24.84H186.048V25.768H180.704V20.248H186.048ZM173.44 20.248H174.64V34.296H173.44V20.248Z" fill="#646464"/>
<path d="M247.486 128.208C246.888 128.208 246.366 128.133 245.918 127.984C245.47 127.824 245.08 127.632 244.75 127.408C244.43 127.173 244.142 126.933 243.886 126.688L244.414 126.032C244.638 126.267 244.888 126.491 245.166 126.704C245.443 126.907 245.768 127.072 246.142 127.2C246.515 127.328 246.952 127.392 247.454 127.392C247.944 127.392 248.398 127.269 248.814 127.024C249.23 126.768 249.56 126.405 249.806 125.936C250.051 125.456 250.174 124.907 250.174 124.288C250.174 123.36 249.928 122.629 249.438 122.096C248.958 121.563 248.312 121.296 247.502 121.296C247.086 121.296 246.718 121.365 246.398 121.504C246.088 121.632 245.768 121.808 245.438 122.032L244.83 121.664L245.23 116.336H250.558V117.168H246.062L245.726 121.072C246.003 120.901 246.296 120.768 246.606 120.672C246.926 120.576 247.283 120.528 247.678 120.528C248.318 120.528 248.899 120.661 249.422 120.928C249.955 121.184 250.376 121.589 250.686 122.144C250.995 122.688 251.15 123.392 251.15 124.256C251.15 125.099 250.968 125.813 250.606 126.4C250.254 126.987 249.8 127.435 249.246 127.744C248.691 128.053 248.104 128.208 247.486 128.208ZM256.048 128.208C255.451 128.208 254.928 128.133 254.48 127.984C254.032 127.824 253.643 127.632 253.312 127.408C252.992 127.173 252.704 126.933 252.448 126.688L252.976 126.032C253.2 126.267 253.451 126.491 253.728 126.704C254.005 126.907 254.331 127.072 254.704 127.2C255.077 127.328 255.515 127.392 256.016 127.392C256.507 127.392 256.96 127.269 257.376 127.024C257.792 126.768 258.123 126.405 258.368 125.936C258.613 125.456 258.736 124.907 258.736 124.288C258.736 123.36 258.491 122.629 258 122.096C257.52 121.563 256.875 121.296 256.064 121.296C255.648 121.296 255.28 121.365 254.96 121.504C254.651 121.632 254.331 121.808 254 122.032L253.392 121.664L253.792 116.336H259.12V117.168H254.624L254.288 121.072C254.565 120.901 254.859 120.768 255.168 120.672C255.488 120.576 255.845 120.528 256.24 120.528C256.88 120.528 257.461 120.661 257.984 120.928C258.517 121.184 258.939 121.589 259.248 122.144C259.557 122.688 259.712 123.392 259.712 124.256C259.712 125.099 259.531 125.813 259.168 126.4C258.816 126.987 258.363 127.435 257.808 127.744C257.253 128.053 256.667 128.208 256.048 128.208Z" fill="#9A9A9A"/>
<path d="M86.9095 128V127.184H89.5655V117.712H87.5015V117.072C87.9815 116.987 88.4028 116.885 88.7655 116.768C89.1388 116.64 89.4642 116.496 89.7415 116.336H90.4935V127.184H92.9255V128H86.9095ZM94.72 128V127.424C96.0427 126.293 97.104 125.264 97.904 124.336C98.7147 123.397 99.3067 122.533 99.68 121.744C100.053 120.944 100.24 120.192 100.24 119.488C100.24 119.008 100.155 118.576 99.984 118.192C99.824 117.797 99.568 117.488 99.216 117.264C98.864 117.04 98.4107 116.928 97.856 116.928C97.3547 116.928 96.88 117.061 96.432 117.328C95.9947 117.595 95.6053 117.941 95.264 118.368L94.672 117.808C95.1093 117.317 95.5893 116.917 96.112 116.608C96.6347 116.288 97.248 116.128 97.952 116.128C98.6347 116.128 99.216 116.267 99.696 116.544C100.176 116.821 100.544 117.211 100.8 117.712C101.056 118.203 101.184 118.789 101.184 119.472C101.184 120.283 100.981 121.104 100.576 121.936C100.181 122.768 99.6107 123.621 98.864 124.496C98.1173 125.371 97.2267 126.293 96.192 127.264C96.512 127.243 96.832 127.221 97.152 127.2C97.4827 127.179 97.8027 127.168 98.112 127.168H101.76V128H94.72Z" fill="#9A9A9A"/>
<path d="M247.573 189.208C246.837 189.208 246.192 188.984 245.637 188.536C245.093 188.088 244.672 187.411 244.373 186.504C244.074 185.597 243.925 184.461 243.925 183.096C243.925 181.731 244.074 180.605 244.373 179.72C244.672 178.824 245.093 178.157 245.637 177.72C246.192 177.283 246.837 177.064 247.573 177.064C248.32 177.064 248.965 177.288 249.509 177.736C250.053 178.173 250.474 178.835 250.773 179.72C251.072 180.605 251.221 181.731 251.221 183.096C251.221 184.461 251.072 185.597 250.773 186.504C250.474 187.411 250.053 188.088 249.509 188.536C248.965 188.984 248.32 189.208 247.573 189.208ZM247.573 188.024C248.021 188.024 248.41 187.853 248.741 187.512C249.082 187.171 249.344 186.637 249.525 185.912C249.717 185.176 249.813 184.237 249.813 183.096C249.813 181.955 249.717 181.027 249.525 180.312C249.344 179.587 249.082 179.059 248.741 178.728C248.41 178.387 248.021 178.216 247.573 178.216C247.136 178.216 246.746 178.387 246.405 178.728C246.064 179.059 245.797 179.587 245.605 180.312C245.424 181.027 245.333 181.955 245.333 183.096C245.333 184.237 245.424 185.176 245.605 185.912C245.797 186.637 246.064 187.171 246.405 187.512C246.746 187.853 247.136 188.024 247.573 188.024ZM256.192 189.208C255.584 189.208 255.045 189.133 254.576 188.984C254.117 188.835 253.712 188.643 253.36 188.408C253.019 188.173 252.709 187.923 252.432 187.656L253.168 186.696C253.392 186.92 253.637 187.133 253.904 187.336C254.181 187.528 254.496 187.688 254.848 187.816C255.2 187.933 255.6 187.992 256.048 187.992C256.507 187.992 256.923 187.88 257.296 187.656C257.68 187.432 257.984 187.112 258.208 186.696C258.432 186.28 258.544 185.789 258.544 185.224C258.544 184.392 258.32 183.741 257.872 183.272C257.435 182.792 256.848 182.552 256.112 182.552C255.728 182.552 255.392 182.611 255.104 182.728C254.816 182.845 254.501 183.016 254.16 183.24L253.376 182.744L253.76 177.272H259.456V178.52H255.04L254.736 181.912C254.992 181.763 255.259 181.651 255.536 181.576C255.824 181.491 256.144 181.448 256.496 181.448C257.147 181.448 257.739 181.581 258.272 181.848C258.805 182.104 259.232 182.509 259.552 183.064C259.872 183.619 260.032 184.328 260.032 185.192C260.032 186.045 259.845 186.771 259.472 187.368C259.109 187.965 258.635 188.424 258.048 188.744C257.461 189.053 256.843 189.208 256.192 189.208Z" fill="#9A9A9A"/>
<path d="M86.533 189V187.784H89.157V179.032H87.061V178.104C87.5837 178.008 88.037 177.891 88.421 177.752C88.8157 177.613 89.173 177.453 89.493 177.272H90.613V187.784H92.965V189H86.533ZM99.44 189V181C99.44 180.712 99.4507 180.36 99.472 179.944C99.4933 179.528 99.5093 179.171 99.52 178.872H99.456C99.3067 179.149 99.152 179.437 98.992 179.736C98.8427 180.024 98.6827 180.312 98.512 180.6L95.84 184.6H102.384V185.768H94.32V184.808L99.2 177.272H100.816V189H99.44Z" fill="#9A9A9A"/>
<path d="M244.533 221V219.784H247.157V211.032H245.061V210.104C245.584 210.008 246.037 209.891 246.421 209.752C246.816 209.613 247.173 209.453 247.493 209.272H248.613V219.784H250.965V221H244.533ZM256.448 221.208C255.712 221.208 255.067 220.984 254.512 220.536C253.968 220.088 253.547 219.411 253.248 218.504C252.949 217.597 252.8 216.461 252.8 215.096C252.8 213.731 252.949 212.605 253.248 211.72C253.547 210.824 253.968 210.157 254.512 209.72C255.067 209.283 255.712 209.064 256.448 209.064C257.195 209.064 257.84 209.288 258.384 209.736C258.928 210.173 259.349 210.835 259.648 211.72C259.947 212.605 260.096 213.731 260.096 215.096C260.096 216.461 259.947 217.597 259.648 218.504C259.349 219.411 258.928 220.088 258.384 220.536C257.84 220.984 257.195 221.208 256.448 221.208ZM256.448 220.024C256.896 220.024 257.285 219.853 257.616 219.512C257.957 219.171 258.219 218.637 258.4 217.912C258.592 217.176 258.688 216.237 258.688 215.096C258.688 213.955 258.592 213.027 258.4 212.312C258.219 211.587 257.957 211.059 257.616 210.728C257.285 210.387 256.896 210.216 256.448 210.216C256.011 210.216 255.621 210.387 255.28 210.728C254.939 211.059 254.672 211.587 254.48 212.312C254.299 213.027 254.208 213.955 254.208 215.096C254.208 216.237 254.299 217.176 254.48 217.912C254.672 218.637 254.939 219.171 255.28 219.512C255.621 219.853 256.011 220.024 256.448 220.024Z" fill="#C8C8C8"/>
<path d="M86.533 221V219.784H89.157V211.032H87.061V210.104C87.5837 210.008 88.037 209.891 88.421 209.752C88.8157 209.613 89.173 209.453 89.493 209.272H90.613V219.784H92.965V221H86.533ZM98.192 221.208C97.584 221.208 97.0453 221.133 96.576 220.984C96.1173 220.835 95.712 220.643 95.36 220.408C95.0187 220.173 94.7093 219.923 94.432 219.656L95.168 218.696C95.392 218.92 95.6373 219.133 95.904 219.336C96.1813 219.528 96.496 219.688 96.848 219.816C97.2 219.933 97.6 219.992 98.048 219.992C98.5067 219.992 98.9227 219.88 99.296 219.656C99.68 219.432 99.984 219.112 100.208 218.696C100.432 218.28 100.544 217.789 100.544 217.224C100.544 216.392 100.32 215.741 99.872 215.272C99.4347 214.792 98.848 214.552 98.112 214.552C97.728 214.552 97.392 214.611 97.104 214.728C96.816 214.845 96.5013 215.016 96.16 215.24L95.376 214.744L95.76 209.272H101.456V210.52H97.04L96.736 213.912C96.992 213.763 97.2587 213.651 97.536 213.576C97.824 213.491 98.144 213.448 98.496 213.448C99.1467 213.448 99.7387 213.581 100.272 213.848C100.805 214.104 101.232 214.509 101.552 215.064C101.872 215.619 102.032 216.328 102.032 217.192C102.032 218.045 101.845 218.771 101.472 219.368C101.109 219.965 100.635 220.424 100.048 220.744C99.4613 221.053 98.8427 221.208 98.192 221.208Z" fill="#C8C8C8"/>
<path d="M247.486 97.208C246.888 97.208 246.366 97.1333 245.918 96.984C245.47 96.824 245.08 96.632 244.75 96.408C244.43 96.1733 244.142 95.9333 243.886 95.688L244.414 95.032C244.638 95.2667 244.888 95.4907 245.166 95.704C245.443 95.9067 245.768 96.072 246.142 96.2C246.515 96.328 246.952 96.392 247.454 96.392C247.944 96.392 248.398 96.2693 248.814 96.024C249.23 95.768 249.56 95.4053 249.806 94.936C250.051 94.456 250.174 93.9067 250.174 93.288C250.174 92.36 249.928 91.6293 249.438 91.096C248.958 90.5627 248.312 90.296 247.502 90.296C247.086 90.296 246.718 90.3653 246.398 90.504C246.088 90.632 245.768 90.808 245.438 91.032L244.83 90.664L245.23 85.336H250.558V86.168H246.062L245.726 90.072C246.003 89.9013 246.296 89.768 246.606 89.672C246.926 89.576 247.283 89.528 247.678 89.528C248.318 89.528 248.899 89.6613 249.422 89.928C249.955 90.184 250.376 90.5893 250.686 91.144C250.995 91.688 251.15 92.392 251.15 93.256C251.15 94.0987 250.968 94.8133 250.606 95.4C250.254 95.9867 249.8 96.4347 249.246 96.744C248.691 97.0533 248.104 97.208 247.486 97.208ZM256.288 97.208C255.584 97.208 254.971 96.9893 254.448 96.552C253.936 96.104 253.541 95.432 253.264 94.536C252.987 93.6293 252.848 92.4933 252.848 91.128C252.848 89.7733 252.987 88.6533 253.264 87.768C253.541 86.8827 253.936 86.2213 254.448 85.784C254.971 85.3467 255.584 85.128 256.288 85.128C256.992 85.128 257.6 85.3467 258.112 85.784C258.624 86.2213 259.019 86.8827 259.296 87.768C259.573 88.6533 259.712 89.7733 259.712 91.128C259.712 92.4933 259.573 93.6293 259.296 94.536C259.019 95.432 258.624 96.104 258.112 96.552C257.6 96.9893 256.992 97.208 256.288 97.208ZM256.288 96.408C256.789 96.408 257.227 96.216 257.6 95.832C257.984 95.4373 258.277 94.8507 258.48 94.072C258.683 93.2827 258.784 92.3013 258.784 91.128C258.784 89.976 258.683 89.0107 258.48 88.232C258.277 87.4533 257.984 86.872 257.6 86.488C257.227 86.104 256.789 85.912 256.288 85.912C255.787 85.912 255.344 86.104 254.96 86.488C254.587 86.872 254.293 87.4533 254.08 88.232C253.877 89.0107 253.776 89.976 253.776 91.128C253.776 92.3013 253.877 93.2827 254.08 94.072C254.293 94.8507 254.587 95.4373 254.96 95.832C255.344 96.216 255.787 96.408 256.288 96.408Z" fill="#C8C8C8"/>
<path d="M86.9095 97V96.184H89.5655V86.712H87.5015V86.072C87.9815 85.9867 88.4028 85.8853 88.7655 85.768C89.1388 85.64 89.4642 85.496 89.7415 85.336H90.4935V96.184H92.9255V97H86.9095ZM95.472 97V96.184H98.128V86.712H96.064V86.072C96.544 85.9867 96.9653 85.8853 97.328 85.768C97.7013 85.64 98.0267 85.496 98.304 85.336H99.056V96.184H101.488V97H95.472Z" fill="#C8C8C8"/>
<path d="M247.02 159.234C246.192 159.234 245.466 158.982 244.842 158.478C244.23 157.974 243.756 157.212 243.42 156.192C243.084 155.172 242.916 153.894 242.916 152.358C242.916 150.822 243.084 149.556 243.42 148.56C243.756 147.552 244.23 146.802 244.842 146.31C245.466 145.818 246.192 145.572 247.02 145.572C247.86 145.572 248.586 145.824 249.198 146.328C249.81 146.82 250.284 147.564 250.62 148.56C250.956 149.556 251.124 150.822 251.124 152.358C251.124 153.894 250.956 155.172 250.62 156.192C250.284 157.212 249.81 157.974 249.198 158.478C248.586 158.982 247.86 159.234 247.02 159.234ZM247.02 157.902C247.524 157.902 247.962 157.71 248.334 157.326C248.718 156.942 249.012 156.342 249.216 155.526C249.432 154.698 249.54 153.642 249.54 152.358C249.54 151.074 249.432 150.03 249.216 149.226C249.012 148.41 248.718 147.816 248.334 147.444C247.962 147.06 247.524 146.868 247.02 146.868C246.528 146.868 246.09 147.06 245.706 147.444C245.322 147.816 245.022 148.41 244.806 149.226C244.602 150.03 244.5 151.074 244.5 152.358C244.5 153.642 244.602 154.698 244.806 155.526C245.022 156.342 245.322 156.942 245.706 157.326C246.09 157.71 246.528 157.902 247.02 157.902ZM257.004 159.234C256.176 159.234 255.45 158.982 254.826 158.478C254.214 157.974 253.74 157.212 253.404 156.192C253.068 155.172 252.9 153.894 252.9 152.358C252.9 150.822 253.068 149.556 253.404 148.56C253.74 147.552 254.214 146.802 254.826 146.31C255.45 145.818 256.176 145.572 257.004 145.572C257.844 145.572 258.57 145.824 259.182 146.328C259.794 146.82 260.268 147.564 260.604 148.56C260.94 149.556 261.108 150.822 261.108 152.358C261.108 153.894 260.94 155.172 260.604 156.192C260.268 157.212 259.794 157.974 259.182 158.478C258.57 158.982 257.844 159.234 257.004 159.234ZM257.004 157.902C257.508 157.902 257.946 157.71 258.318 157.326C258.702 156.942 258.996 156.342 259.2 155.526C259.416 154.698 259.524 153.642 259.524 152.358C259.524 151.074 259.416 150.03 259.2 149.226C258.996 148.41 258.702 147.816 258.318 147.444C257.946 147.06 257.508 146.868 257.004 146.868C256.512 146.868 256.074 147.06 255.69 147.444C255.306 147.816 255.006 148.41 254.79 149.226C254.586 150.03 254.484 151.074 254.484 152.358C254.484 153.642 254.586 154.698 254.79 155.526C255.006 156.342 255.306 156.942 255.69 157.326C256.074 157.71 256.512 157.902 257.004 157.902Z" fill="black"/>
<path d="M85.5996 159V157.632H88.5516V147.786H86.1936V146.742C86.7816 146.634 87.2916 146.502 87.7236 146.346C88.1676 146.19 88.5696 146.01 88.9296 145.806H90.1896V157.632H92.8356V159H85.5996ZM98.734 159.234C98.05 159.234 97.444 159.15 96.916 158.982C96.4 158.814 95.944 158.592 95.548 158.316C95.152 158.04 94.81 157.74 94.522 157.416L95.368 156.354C95.752 156.75 96.202 157.104 96.718 157.416C97.246 157.716 97.882 157.866 98.626 157.866C99.154 157.866 99.616 157.77 100.012 157.578C100.42 157.374 100.738 157.092 100.966 156.732C101.194 156.36 101.308 155.922 101.308 155.418C101.308 154.89 101.176 154.428 100.912 154.032C100.66 153.636 100.234 153.33 99.634 153.114C99.034 152.886 98.224 152.772 97.204 152.772V151.512C98.116 151.512 98.836 151.404 99.364 151.188C99.892 150.96 100.27 150.654 100.498 150.27C100.738 149.886 100.858 149.46 100.858 148.992C100.858 148.356 100.66 147.852 100.264 147.48C99.868 147.096 99.322 146.904 98.626 146.904C98.098 146.904 97.6 147.024 97.132 147.264C96.676 147.504 96.262 147.81 95.89 148.182L95.008 147.138C95.512 146.682 96.058 146.31 96.646 146.022C97.246 145.722 97.924 145.572 98.68 145.572C99.424 145.572 100.084 145.704 100.66 145.968C101.248 146.22 101.704 146.592 102.028 147.084C102.364 147.576 102.532 148.17 102.532 148.866C102.532 149.67 102.316 150.336 101.884 150.864C101.452 151.392 100.888 151.782 100.192 152.034V152.124C100.708 152.244 101.176 152.454 101.596 152.754C102.016 153.054 102.352 153.432 102.604 153.888C102.856 154.344 102.982 154.872 102.982 155.472C102.982 156.252 102.79 156.924 102.406 157.488C102.022 158.052 101.512 158.484 100.876 158.784C100.24 159.084 99.526 159.234 98.734 159.234Z" fill="black"/>
<path d="M15.0136 136.14L166.514 136.14M15.0136 166.14L166.514 166.14M175.514 136.14L327.014 136.14M175.514 166.14L327.014 166.14" stroke="#C8C8C8" stroke-width="0.75"/>
</svg>
