<svg xmlns="http://www.w3.org/2000/svg" width="18.248" height="16.423" viewBox="0 0 18.248 16.423">
  <path id="support_agent_FILL0_wght400_GRAD0_opsz48" d="M88.211-823.577v-1.369h7.755v-6.934a5.94,5.94,0,0,0-.57-2.543,7.314,7.314,0,0,0-1.528-2.156,7.612,7.612,0,0,0-2.19-1.494,6.118,6.118,0,0,0-2.555-.559,6.118,6.118,0,0,0-2.555.559,7.613,7.613,0,0,0-2.19,1.494,7.314,7.314,0,0,0-1.528,2.156,5.94,5.94,0,0,0-.57,2.543v5.566h-.456a1.757,1.757,0,0,1-1.289-.536A1.757,1.757,0,0,1,80-828.139v-1.825a1.7,1.7,0,0,1,.251-.924,2,2,0,0,1,.661-.65l.068-1.209a8.276,8.276,0,0,1,.947-3.011,8.013,8.013,0,0,1,1.848-2.281,8.3,8.3,0,0,1,2.486-1.448A8.145,8.145,0,0,1,89.124-840a8.209,8.209,0,0,1,2.885.513,8.03,8.03,0,0,1,2.475,1.46,8.331,8.331,0,0,1,1.836,2.281,8.147,8.147,0,0,1,.947,2.977l.068,1.186a1.632,1.632,0,0,1,.661.6,1.617,1.617,0,0,1,.251.878v2.1a1.6,1.6,0,0,1-.251.89,1.658,1.658,0,0,1-.661.593v1.574a1.318,1.318,0,0,1-.4.967,1.318,1.318,0,0,1-.967.4Zm-1.825-6.615a.657.657,0,0,1-.479-.205.67.67,0,0,1-.205-.49.632.632,0,0,1,.205-.479.689.689,0,0,1,.49-.194.646.646,0,0,1,.479.2.667.667,0,0,1,.194.488.671.671,0,0,1-.2.479A.648.648,0,0,1,86.387-830.192Zm5.474,0a.657.657,0,0,1-.479-.205.67.67,0,0,1-.205-.49.632.632,0,0,1,.205-.479.689.689,0,0,1,.49-.194.646.646,0,0,1,.479.2.667.667,0,0,1,.194.488.671.671,0,0,1-.2.479A.648.648,0,0,1,91.861-830.192Zm-8.189-1.186a5.231,5.231,0,0,1,.376-2.441,5.646,5.646,0,0,1,1.255-1.859,5.521,5.521,0,0,1,1.813-1.175,5.491,5.491,0,0,1,2.053-.411,4.939,4.939,0,0,1,3.49,1.312,5.552,5.552,0,0,1,1.734,3.273,6.6,6.6,0,0,1-3.775-1.152,7.592,7.592,0,0,1-2.52-2.931,7.285,7.285,0,0,1-1.54,3.273A7.1,7.1,0,0,1,83.672-831.378Z" transform="translate(-80 840)" fill="#707070"/>
</svg>
