<svg xmlns="http://www.w3.org/2000/svg" width="18" height="17.777" viewBox="0 0 18 17.777">
  <g id="icon" transform="translate(-235 -128)">
    <path id="air_purifier_gen_FILL0_wght400_GRAD0_opsz48" d="M133.338-830.508a4.006,4.006,0,0,1-1.041-.135,6.907,6.907,0,0,1-.989-.347l.437-1.287a5.2,5.2,0,0,0,.816.287,3.177,3.177,0,0,0,.793.1,2,2,0,0,0,.628-.1,2.8,2.8,0,0,0,.636-.31,3.684,3.684,0,0,1,1.033-.483,3.659,3.659,0,0,1,.967-.138,4.211,4.211,0,0,1,1.047.138,9.465,9.465,0,0,1,1.021.322l-.46,1.31q-.469-.156-.867-.273a2.569,2.569,0,0,0-.719-.117,2.223,2.223,0,0,0-.677.114,2.782,2.782,0,0,0-.748.392,2.594,2.594,0,0,1-.931.425A4.39,4.39,0,0,1,133.338-830.508Zm.015-3.815a4.089,4.089,0,0,1-1.034-.138,7.136,7.136,0,0,1-1.011-.345l.437-1.31a9.22,9.22,0,0,0,.908.31,2.677,2.677,0,0,0,.7.1,2.223,2.223,0,0,0,.628-.092,2.131,2.131,0,0,0,.636-.322,3.639,3.639,0,0,1,1.046-.483,3.8,3.8,0,0,1,.977-.138,4.232,4.232,0,0,1,1,.124,8,8,0,0,1,1.049.335l-.437,1.31q-.529-.184-.908-.287a2.677,2.677,0,0,0-.7-.1,2.432,2.432,0,0,0-.678.1,2.573,2.573,0,0,0-.77.4,3.242,3.242,0,0,1-.87.391A3.487,3.487,0,0,1,133.353-834.323Zm0,7.631a4.1,4.1,0,0,1-1.043-.135,6.8,6.8,0,0,1-1-.348l.437-1.31a8.889,8.889,0,0,0,.864.3,2.74,2.74,0,0,0,.745.115,2.227,2.227,0,0,0,.628-.092,2.127,2.127,0,0,0,.636-.322,3.2,3.2,0,0,1,1.055-.481,4.17,4.17,0,0,1,.99-.139,4.006,4.006,0,0,1,1.011.138,9.76,9.76,0,0,1,1.011.322l-.437,1.31q-.529-.184-.928-.287a2.785,2.785,0,0,0-.681-.1,2.174,2.174,0,0,0-.716.126,3.084,3.084,0,0,0-.732.379,2.581,2.581,0,0,1-.832.391A3.679,3.679,0,0,1,133.353-826.693Z" transform="translate(-587.693 7.092) rotate(90)" fill="#707070"/>
    <g id="グループ_29796" data-name="グループ 29796" transform="translate(-113 11)">
      <g id="パス_181351" data-name="パス 181351" transform="translate(348 117)" fill="#fbfbfb">
        <path d="M 15.5 8.25 L 2.5 8.25 C 1.53505003452301 8.25 0.75 7.464950084686279 0.75 6.5 L 0.75 2.5 C 0.75 1.53505003452301 1.53505003452301 0.75 2.5 0.75 L 15.5 0.75 C 16.46495056152344 0.75 17.25 1.53505003452301 17.25 2.5 L 17.25 6.5 C 17.25 7.464950084686279 16.46495056152344 8.25 15.5 8.25 Z" stroke="none"/>
        <path d="M 2.5 1.5 C 1.948600769042969 1.5 1.5 1.948599815368652 1.5 2.5 L 1.5 6.5 C 1.5 7.051400184631348 1.948600769042969 7.5 2.5 7.5 L 15.5 7.5 C 16.05139923095703 7.5 16.5 7.051400184631348 16.5 6.5 L 16.5 2.5 C 16.5 1.948599815368652 16.05139923095703 1.5 15.5 1.5 L 2.5 1.5 M 2.5 0 L 15.5 0 C 16.88071060180664 0 18 1.119289875030518 18 2.5 L 18 6.5 C 18 7.880710124969482 16.88071060180664 9 15.5 9 L 2.5 9 C 1.119289398193359 9 0 7.880710124969482 0 6.5 L 0 2.5 C 0 1.119289875030518 1.119289398193359 0 2.5 0 Z" stroke="none" fill="#707070"/>
      </g>
      <g id="パス_181350" data-name="パス 181350" transform="translate(353 122)" fill="#fff">
        <path d="M 6.5 3.25 L 1.5 3.25 C 1.086449980735779 3.25 0.75 2.913549900054932 0.75 2.5 L 0.75 1.5 C 0.75 1.086449980735779 1.086449980735779 0.75 1.5 0.75 L 6.5 0.75 C 6.913549900054932 0.75 7.25 1.086449980735779 7.25 1.5 L 7.25 2.5 C 7.25 2.913549900054932 6.913549900054932 3.25 6.5 3.25 Z" stroke="none"/>
        <path d="M 1.5 1.5 L 1.5 2.5 L 6.5 2.5 L 6.5 1.5 L 1.5 1.5 M 1.5 0 L 6.5 0 C 7.32843017578125 0 8 0.6715700626373291 8 1.5 L 8 2.5 C 8 3.328429937362671 7.32843017578125 4 6.5 4 L 1.5 4 C 0.67156982421875 4 0 3.328429937362671 0 2.5 L 0 1.5 C 0 0.6715700626373291 0.67156982421875 0 1.5 0 Z" stroke="none" fill="#707070"/>
      </g>
    </g>
  </g>
</svg>
