<svg xmlns="http://www.w3.org/2000/svg" width="18.194" height="17.654" viewBox="0 0 18.194 17.654">
  <path id="person_apron_FILL0_wght400_GRAD0_opsz48" d="M169.1-772.471a4.118,4.118,0,0,1-3.028-1.237,4.118,4.118,0,0,1-1.237-3.028,4.118,4.118,0,0,1,1.237-3.028A4.118,4.118,0,0,1,169.1-781a4.118,4.118,0,0,1,3.028,1.237,4.118,4.118,0,0,1,1.237,3.028,4.118,4.118,0,0,1-1.237,3.028A4.118,4.118,0,0,1,169.1-772.471Zm-9.1,9.125v-2.672a3.311,3.311,0,0,1,.512-1.805,3.114,3.114,0,0,1,1.421-1.208,22.173,22.173,0,0,1,3.5-1.237,14.435,14.435,0,0,1,3.662-.469,13.86,13.86,0,0,1,3.653.483,25.752,25.752,0,0,1,3.482,1.222,3.2,3.2,0,0,1,1.436,1.208,3.245,3.245,0,0,1,.526,1.805v2.672Zm9.1-10.831a2.473,2.473,0,0,0,1.819-.739,2.473,2.473,0,0,0,.739-1.819,2.473,2.473,0,0,0-.739-1.819,2.472,2.472,0,0,0-1.819-.739,2.472,2.472,0,0,0-1.819.739,2.472,2.472,0,0,0-.739,1.819,2.473,2.473,0,0,0,.739,1.819A2.473,2.473,0,0,0,169.1-774.177Zm4.548,5.913v3.212h2.843v-.966a1.533,1.533,0,0,0-.256-.863,1.837,1.837,0,0,0-.682-.616q-.483-.227-.952-.412T173.646-768.264Zm-7.391-.5v1.718h5.686v-1.706q-.711-.142-1.407-.213a14.145,14.145,0,0,0-1.436-.071,14.145,14.145,0,0,0-1.436.071Q166.965-768.889,166.254-768.76Zm-4.549,3.708h2.843v-3.241q-.483.171-.967.37t-.967.426a1.725,1.725,0,0,0-.668.616,1.6,1.6,0,0,0-.242.863Zm11.94,0h0ZM169.1-776.736Z" transform="translate(-160 781)" fill="#707070"/>
</svg>
