<svg xmlns="http://www.w3.org/2000/svg" width="17.997" height="18.333" viewBox="0 0 17.997 18.333">
  <g id="icon" transform="translate(-10.651 -183.769)">
    <g id="グループ_29678" data-name="グループ 29678" transform="translate(11.001 184.119)">
      <g id="グループ_29625" data-name="グループ 29625" transform="translate(0)">
        <path id="パス_176750" data-name="パス 176750" d="M466.254,919.363H453.563A.363.363,0,0,1,453.2,919V905.695a.363.363,0,0,1,.106-.256l3.6-3.6a.363.363,0,0,1,.256-.106h9.089a.362.362,0,0,1,.362.363v3.639a.363.363,0,1,1-.725,0v-3.276h-8.576l-3.39,3.39v12.793h11.966v-4.261a.363.363,0,1,1,.725,0V919A.362.362,0,0,1,466.254,919.363Z" transform="translate(-453.2 -901.73)" fill="#707070" stroke="#707070" stroke-width="0.7"/>
        <path id="パス_176751" data-name="パス 176751" d="M457.165,906.057h-3.6a.363.363,0,0,1,0-.725h3.24v-3.239a.363.363,0,1,1,.725,0v3.6A.363.363,0,0,1,457.165,906.057Z" transform="translate(-453.2 -901.73)" fill="#707070" stroke="#707070" stroke-width="0.7"/>
      </g>
      <g id="グループ_29626" data-name="グループ 29626" transform="translate(5.289 3.902)">
        <path id="パス_176752" data-name="パス 176752" d="M508.328,952.18a.363.363,0,0,1-.256-.106l-1.609-1.609a.362.362,0,0,1,0-.513l7.441-7.441a.363.363,0,0,1,.513,0l1.609,1.609a.362.362,0,0,1,0,.513l-7.441,7.442A.362.362,0,0,1,508.328,952.18Zm-1.1-1.971,1.1,1.1,6.929-6.928-1.1-1.1Z" transform="translate(-505.22 -941.39)" fill="#707070" stroke="#707070" stroke-width="0.7"/>
        <path id="パス_176753" data-name="パス 176753" d="M569.882,937.356a.363.363,0,0,1-.256-.619l.835-.835a.252.252,0,0,0,0-.357l-.738-.739a.254.254,0,0,0-.358,0l-.836.835a.363.363,0,0,1-.513-.513l.835-.835a.979.979,0,0,1,1.383,0l.738.738a.979.979,0,0,1,0,1.383l-.836.835A.362.362,0,0,1,569.882,937.356Z" transform="translate(-559.333 -934.007)" fill="#707070" stroke="#707070" stroke-width="0.7"/>
        <path id="パス_176754" data-name="パス 176754" d="M497.315,1007.43a.363.363,0,0,1-.335-.5l1.137-2.745a.363.363,0,0,1,.67.278l-.8,1.937,1.937-.8a.363.363,0,1,1,.277.67l-2.745,1.137A.361.361,0,0,1,497.315,1007.43Z" transform="translate(-496.952 -995.503)" fill="#707070" stroke="#707070" stroke-width="0.7"/>
      </g>
    </g>
  </g>
</svg>
