<svg xmlns="http://www.w3.org/2000/svg" xmlns:xlink="http://www.w3.org/1999/xlink" width="16.705" height="14.281" viewBox="0 0 16.705 14.281">
  <defs>
    <clipPath id="clip-path">
      <rect id="長方形_91325" data-name="長方形 91325" width="16.705" height="14.281" fill="none"/>
    </clipPath>
  </defs>
  <g id="icon" transform="translate(0 0.001)">
    <g id="グループ_29859" data-name="グループ 29859" transform="translate(0 -0.001)" clip-path="url(#clip-path)">
      <path id="パス_181385" data-name="パス 181385" d="M8.353,14.28a.723.723,0,0,1-.454-.16c-.4-.326-.819-.652-1.258-1C3.6,10.732.145,8.023,0,4.791c0-.011,0-.021,0-.032A4.765,4.765,0,0,1,4.759,0,4.692,4.692,0,0,1,8.353,1.881,4.692,4.692,0,0,1,11.946,0a4.765,4.765,0,0,1,4.759,4.759c0,.019,0,.039,0,.058-.265,3.3-3.787,6.069-6.894,8.512-.341.268-.677.532-1,.794a.722.722,0,0,1-.452.158m-6.9-9.538C1.575,7.3,4.741,9.791,7.534,11.985c.282.221.553.435.82.646l.56-.441c2.864-2.251,6.108-4.8,6.343-7.461a3.316,3.316,0,0,0-3.311-3.283A3.605,3.605,0,0,0,9,3.527a.724.724,0,0,1-1.289,0,3.605,3.605,0,0,0-2.949-2.08,3.315,3.315,0,0,0-3.311,3.3m14.533.016h0Z" transform="translate(0 0.001)" fill="#222"/>
      <path id="パス_181386" data-name="パス 181386" d="M21334.758-24084.816a4.784,4.784,0,0,0,1.295,3.941c1.754,2.145,6.715,5.766,6.715,5.766l6.377-6.119,1.07-2.928s-.928-3.545-2.719-3.857a5.063,5.063,0,0,0-4.045,1.225,2.827,2.827,0,0,0-.684,1.617s-2.543-3.018-3.053-2.842-2.871.271-3.344.785A25.348,25.348,0,0,0,21334.758-24084.816Z" transform="translate(-21334 24088.699)" fill="#222"/>
    </g>
  </g>
</svg>
