<svg xmlns="http://www.w3.org/2000/svg" width="16.175" height="18.197" viewBox="0 0 16.175 18.197">
  <path id="food_bank_FILL0_wght400_GRAD0_opsz48" d="M160-821.8v-12.131L168.087-840l8.087,6.066V-821.8Zm1.516-1.516h13.142v-9.856l-6.571-4.928-6.571,4.928Zm4.549-1.516h1.011v-4.044a1.462,1.462,0,0,0,1.074-.442,1.462,1.462,0,0,0,.442-1.074v-3.033h-1.011v3.033h-.505v-3.033h-1.011v3.033h-.505v-3.033h-1.011v3.033a1.462,1.462,0,0,0,.442,1.074,1.462,1.462,0,0,0,1.074.442Zm4.044,0h1.011v-8.593a1.947,1.947,0,0,0-1.428.594,1.947,1.947,0,0,0-.594,1.428v3.033h1.011Zm-8.593,1.516h0Z" transform="translate(-160 840)" fill="#707070"/>
</svg>
