<svg id="icon" xmlns="http://www.w3.org/2000/svg" width="10" height="14" viewBox="0 0 10 14">
  <path id="パス_58868" data-name="パス 58868" d="M1241.934,149.222l-4.318,4.26-.016-6.8,3.861-5.9a.353.353,0,0,1,.647.175l.013,7.63A1.143,1.143,0,0,1,1241.934,149.222Z" transform="translate(-1232.648 -140.057)" fill="#222"/>
  <path id="パス_58869" data-name="パス 58869" d="M9.987.906A.88.88,0,0,0,9.114,0,.841.841,0,0,0,8.4.4L5,3.311,1.581.409A.841.841,0,0,0,.869.014.88.88,0,0,0,0,.924l.013,7.63A1.761,1.761,0,0,0,.3,9.516l4.3,4.245a.492.492,0,0,0,.844,0L9.716,9.5A1.761,1.761,0,0,0,10,8.536ZM.721,9.18a1.15,1.15,0,0,1-.189-.628L.52.923A.349.349,0,0,1,1.16.745L5,4.295l.016,9.131Z" transform="translate(0 0)" fill="#222"/>
</svg>
