<svg xmlns="http://www.w3.org/2000/svg" width="27" height="27.797" viewBox="0 0 27 27.797">
  <g id="グループ_29657" data-name="グループ 29657" transform="translate(-338 -136.203)">
    <text id="カート" transform="translate(338 163)" fill="#222" font-size="9" font-family="HiraginoSans-W3, Hiragino Sans"><tspan x="0" y="0">カート</tspan></text>
    <g id="icon" transform="translate(-207.867 -49.74)">
      <path id="パス_176760" data-name="パス 176760" d="M567.96,185.943h-2.923a.7.7,0,0,0-.675.514l-.659,2.382H552.789a.824.824,0,0,0-.795,1.043l1.329,4.826a.824.824,0,0,0,.794.605h7.8l-.455,1.645h-6.866a.7.7,0,1,0,0,1.4h7.4a.7.7,0,0,0,.675-.514l2.9-10.5h2.39a.7.7,0,1,0,0-1.4Z" transform="translate(0 0)" fill="#161717"/>
      <path id="パス_176761" data-name="パス 176761" d="M573.66,347.413a1.246,1.246,0,1,0,1.246,1.246A1.246,1.246,0,0,0,573.66,347.413Z" transform="translate(-18.764 -148.165)" fill="#161717"/>
      <path id="パス_176762" data-name="パス 176762" d="M653.8,347.413a1.246,1.246,0,1,0,1.246,1.246A1.246,1.246,0,0,0,653.8,347.413Z" transform="translate(-92.298 -148.165)" fill="#161717"/>
    </g>
  </g>
</svg>
