<svg xmlns="http://www.w3.org/2000/svg" width="90" height="36"><path d="M8.049 2.914a1 1 0 011.9 0l1.033 3.167a1 1 0 00.934.69l3.283.056a1 1 0 01.6 1.784l-2.699 2.14a1 1 0 00-.34 1.065l.975 3.339a1 1 0 01-1.554 1.085l-2.587-1.907a1 1 0 00-1.188 0L5.822 16.24a1 1 0 01-1.554-1.085l.975-3.339a1 1 0 00-.34-1.065L2.2 8.612a1 1 0 01.6-1.784l3.283-.056a1 1 0 00.934-.69z" fill="#eaeaea"/><path d="M8.049 20.914a1 1 0 011.9 0l1.033 3.167a1 1 0 00.934.69l3.283.056a1 1 0 01.6 1.784l-2.699 2.14a1 1 0 00-.34 1.065l.975 3.339a1 1 0 01-1.554 1.085l-2.587-1.907a1 1 0 00-1.188 0L5.822 34.24a1 1 0 01-1.554-1.085l.975-3.339a1 1 0 00-.34-1.065L2.2 26.612a1 1 0 01.6-1.784l3.283-.056a1 1 0 00.934-.69z" fill="#f5d139"/><path d="M26.049 2.914a1 1 0 011.9 0l1.033 3.167a1 1 0 00.934.69l3.283.056a1 1 0 01.6 1.784l-2.699 2.14a1 1 0 00-.34 1.065l.975 3.339a1 1 0 01-1.554 1.085l-2.587-1.907a1 1 0 00-1.188 0l-2.584 1.907a1 1 0 01-1.554-1.085l.975-3.339a1 1 0 00-.34-1.065L20.2 8.612a1 1 0 01.6-1.784l3.283-.056a1 1 0 00.934-.69z" fill="#eaeaea"/><path d="M26.049 20.914a1 1 0 011.9 0l1.033 3.167a1 1 0 00.934.69l3.283.056a1 1 0 01.6 1.784l-2.699 2.14a1 1 0 00-.34 1.065l.975 3.339a1 1 0 01-1.554 1.085l-2.587-1.907a1 1 0 00-1.188 0l-2.584 1.907a1 1 0 01-1.554-1.085l.975-3.339a1 1 0 00-.34-1.065L20.2 26.612a1 1 0 01.6-1.784l3.283-.056a1 1 0 00.934-.69z" fill="#f5d139"/><path d="M62.049 2.914a1 1 0 011.9 0l1.033 3.167a1 1 0 00.934.69l3.283.056a1 1 0 01.6 1.784l-2.699 2.14a1 1 0 00-.34 1.065l.975 3.339a1 1 0 01-1.554 1.085l-2.587-1.907a1 1 0 00-1.188 0l-2.584 1.907a1 1 0 01-1.554-1.085l.975-3.339a1 1 0 00-.34-1.065L56.2 8.612a1 1 0 01.6-1.784l3.283-.056a1 1 0 00.934-.69z" fill="#eaeaea"/><path d="M62.049 20.914a1 1 0 011.9 0l1.033 3.167a1 1 0 00.934.69l3.283.056a1 1 0 01.6 1.784l-2.699 2.14a1 1 0 00-.34 1.065l.975 3.339a1 1 0 01-1.554 1.085l-2.587-1.907a1 1 0 00-1.188 0l-2.584 1.907a1 1 0 01-1.554-1.085l.975-3.339a1 1 0 00-.34-1.065L56.2 26.612a1 1 0 01.6-1.784l3.283-.056a1 1 0 00.934-.69z" fill="#f5d139"/><path d="M44.049 2.914a1 1 0 011.9 0l1.033 3.167a1 1 0 00.934.69l3.283.056a1 1 0 01.6 1.784l-2.699 2.14a1 1 0 00-.34 1.065l.975 3.339a1 1 0 01-1.554 1.085l-2.587-1.907a1 1 0 00-1.188 0l-2.584 1.907a1 1 0 01-1.554-1.085l.975-3.339a1 1 0 00-.34-1.065L38.2 8.612a1 1 0 01.6-1.784l3.283-.056a1 1 0 00.934-.69z" fill="#eaeaea"/><path d="M44.049 20.914a1 1 0 011.9 0l1.033 3.167a1 1 0 00.934.69l3.283.056a1 1 0 01.6 1.784l-2.699 2.14a1 1 0 00-.34 1.065l.975 3.339a1 1 0 01-1.554 1.085l-2.587-1.907a1 1 0 00-1.188 0l-2.584 1.907a1 1 0 01-1.554-1.085l.975-3.339a1 1 0 00-.34-1.065L38.2 26.612a1 1 0 01.6-1.784l3.283-.056a1 1 0 00.934-.69z" fill="#f5d139"/><path d="M80.049 2.914a1 1 0 011.9 0l1.033 3.167a1 1 0 00.934.69l3.283.056a1 1 0 01.6 1.784l-2.699 2.14a1 1 0 00-.34 1.065l.975 3.339a1 1 0 01-1.554 1.085l-2.587-1.907a1 1 0 00-1.188 0l-2.584 1.907a1 1 0 01-1.554-1.085l.975-3.339a1 1 0 00-.34-1.065L74.2 8.612a1 1 0 01.6-1.784l3.283-.056a1 1 0 00.934-.69z" fill="#eaeaea"/><path d="M80.049 20.914a1 1 0 011.9 0l1.033 3.167a1 1 0 00.934.69l3.283.056a1 1 0 01.6 1.784l-2.699 2.14a1 1 0 00-.34 1.065l.975 3.339a1 1 0 01-1.554 1.085l-2.587-1.907a1 1 0 00-1.188 0l-2.584 1.907a1 1 0 01-1.554-1.085l.975-3.339a1 1 0 00-.34-1.065L74.2 26.612a1 1 0 01.6-1.784l3.283-.056a1 1 0 00.934-.69z" fill="#f5d139"/></svg>