<svg xmlns="http://www.w3.org/2000/svg" width="259.211" height="35"><defs><clipPath id="clip-path"><path id="長方形_31239" data-name="長方形 31239" fill="none" d="M0 0h97.442v35H0z"/></clipPath></defs><g id="グループ_2" data-name="グループ 2" transform="translate(-43 -151)"><g id="logo_2_" data-name="logo (2)" transform="translate(43 151)"><rect id="長方形_31501" data-name="長方形 31501" width="94" height="33" rx="3" transform="translate(.941 1.209)" fill="#fff"/><g id="グループ_26090" data-name="グループ 26090" clip-path="url(#clip-path)"><path id="パス_87821" data-name="パス 87821" d="M93.132 0H4.31A4.31 4.31 0 000 4.309v26.38A4.31 4.31 0 004.311 35h88.821a4.31 4.31 0 004.31-4.31V4.309A4.31 4.31 0 0093.133 0M2.032 30.69V4.309A2.285 2.285 0 014.31 2.026h38.05v30.946H4.31a2.285 2.285 0 01-2.282-2.283" transform="translate(-.001 .001)" fill="#1d2651"/><path id="パス_87822" data-name="パス 87822" d="M265.411 33.473h-5.15a.878.878 0 010-1.756h5.15a.878.878 0 010 1.756" transform="translate(-176.566 -21.59)" fill="#fff"/><path id="パス_87823" data-name="パス 87823" d="M268.326 30.559a.878.878 0 01-.878-.878v-5.15a.878.878 0 111.756 0v5.15a.878.878 0 01-.878.878" transform="translate(-182.056 -16.101)" fill="#fff"/><path id="パス_87824" data-name="パス 87824" d="M210.127 43.177a.878.878 0 01-.664-1.453c3.189-3.684 5.951-10.272 6.889-16.315h-4.3a11.9 11.9 0 01-2.413 4.647.878.878 0 01-1.343-1.132 10.347 10.347 0 002.113-4.146l.168-.52a.878.878 0 01.835-.606h5.944a.878.878 0 01.871.985c-.812 6.613-3.872 14.112-7.44 18.236a.876.876 0 01-.664.3" transform="translate(-141.653 -16.101)" fill="#fff"/><path id="パス_87825" data-name="パス 87825" d="M159.259 43.237a.878.878 0 01-.878-.878V24.6a.878.878 0 111.756 0v17.759a.878.878 0 01-.878.878" transform="translate(-107.812 -16.149)" fill="#fff"/><path id="パス_87826" data-name="パス 87826" d="M165 49.285h-5.74a.878.878 0 110-1.756H165a.878.878 0 110 1.756" transform="translate(-107.812 -32.354)" fill="#fff"/><path id="パス_87827" data-name="パス 87827" d="M103.254 25.247a1.038 1.038 0 111.038 1.062 1.05 1.05 0 01-1.038-1.062" transform="translate(-70.287 -16.463)" fill="#1d2651"/><path id="パス_87828" data-name="パス 87828" d="M88.313 43.24h-.826a.878.878 0 010-1.756h.826a3.238 3.238 0 000-6.476h-2.53V24.6a.878.878 0 111.756 0v8.652h.774a4.994 4.994 0 110 9.988" transform="translate(-58.394 -16.148)" fill="#1d2651"/><path id="パス_87829" data-name="パス 87829" d="M33.04 43.236a.877.877 0 01-.708-.358L25.441 33.5l6.889-9.432a.878.878 0 111.418 1.032l-6.13 8.4 6.128 8.337a.878.878 0 01-.707 1.4" transform="translate(-17.318 -16.142)" fill="#1d2651"/></g></g><g id="グループ_26220" data-name="グループ 26220" transform="translate(-546.559 -266.791)"><path id="パス_87874" data-name="パス 87874" d="M8.666-11.284a22.257 22.257 0 01-4.1 3.836 10.818 10.818 0 00-1.19.952 1.355 1.355 0 00-.406.938c0 .476.224.784 1.008 1.4 2.042 1.6 2.6 2.058 3.54 2.926A13.216 13.216 0 019.324.686l.882-.868a3.564 3.564 0 01-.392-.35 41.278 41.278 0 00-4.48-3.822c-1.134-.882-1.246-.98-1.246-1.232 0-.2.1-.308.616-.7a40.783 40.783 0 003.22-2.646c1.456-1.4 1.568-1.5 1.722-1.624zm9.786 1.134a15.593 15.593 0 002.142.882 21.594 21.594 0 002.73.8l.392-.98A16.879 16.879 0 0118.97-11zM17.29-8.638a4.709 4.709 0 01-.1.742C17-6.72 16.744-5.1 16.6-4.032c-.056.448-.07.574-.112.826l1.092.028a2.434 2.434 0 01.56-.574 6.783 6.783 0 013.92-1.218c1.708 0 2.716.672 2.716 1.82C24.78-1.722 23.31-.8 21-.8a9.943 9.943 0 01-3.57-.7 3.238 3.238 0 01.1.868 2.207 2.207 0 01-.014.266c.854.21.854.21 1.12.28a11.632 11.632 0 002.45.252 5.811 5.811 0 003.484-.922 2.993 2.993 0 001.26-2.408c0-1.638-1.47-2.7-3.752-2.7a6.93 6.93 0 00-4.046 1.2 3.921 3.921 0 00-.434.42l-.028-.014a1.687 1.687 0 00.056-.322c.042-.322.07-.42.406-2.45a11.717 11.717 0 01.322-1.54zm13.958-2.282a4.306 4.306 0 01.056.742c0 .224 0 .49-.014.91-.112 4.41-.126 4.76-.126 5.7a3.9 3.9 0 00.77 2.87 3.32 3.32 0 002.632.98 4.9 4.9 0 003.948-1.75 8.517 8.517 0 001.554-3.178 3.96 3.96 0 01-1.008-.674 8.317 8.317 0 01-.686 2.2 4.021 4.021 0 01-3.752 2.434 2.642 2.642 0 01-1.75-.546 2.2 2.2 0 01-.658-1.68q-.021-.42-.028-.84c0-.63.042-2.534.1-4.214a21.585 21.585 0 01.182-2.954zm15.344 7.728l2.66 2.674.672-.672-2.66-2.674 2.66-2.66-.672-.686-2.66 2.674-2.674-2.674-.672.686 2.66 2.66-2.646 2.646.672.672zM59.4-9.226a14.149 14.149 0 01-2.856.6v-1.342a8.006 8.006 0 01.07-1.3H55.58a9.3 9.3 0 01.07 1.33v1.386c-.42.028-.966.042-1.344.042a7.929 7.929 0 01-1.428-.1v.924h.574c.154.014.532.014.742.014.406 0 .644 0 .9-.014.434-.028.434-.028.56-.042v2.646a7.489 7.489 0 00-1.974 1.148 2.534 2.534 0 00-1.11 1.862 1.688 1.688 0 00.644 1.316 3.7 3.7 0 002.31.9c.686 0 1.022-.364 1.022-1.12v-3.5a9.446 9.446 0 012.968-.546c1.834 0 3 .854 3 2.226A1.858 1.858 0 0162-1.4a1.858 1.858 0 01-1.37.575c-1.022 0-1.442-.6-1.442-2.058a4.158 4.158 0 01.028-.546 3.034 3.034 0 01-.924.364 5.109 5.109 0 00.168 1.582A2.065 2.065 0 0060.62.1a2.833 2.833 0 002.042-.845 2.833 2.833 0 00.814-2.055 2.817 2.817 0 00-1.442-2.478 4.74 4.74 0 00-2.478-.588 9.918 9.918 0 00-3.01.5v-2.418a24.572 24.572 0 002.478-.42c.2-.042.252-.056.42-.084zM55.65-1.5c0 .6-.042.686-.322.686a2.615 2.615 0 01-1.246-.406c-.406-.266-.6-.546-.6-.84 0-.672.784-1.428 2.17-2.1zm8.414-5.92a11.764 11.764 0 00-2.828-2.66l-.728.546a11.466 11.466 0 012.828 2.744zM70.532.434a9.522 9.522 0 01-.07-1.484v-4.214a4.89 4.89 0 00-.056-.826l.028-.014a1.545 1.545 0 00.434.238 28.544 28.544 0 015.222 2.772l.6-1.036a34.721 34.721 0 00-6.23-2.954V-9.7a8.788 8.788 0 01.07-1.456h-1.2a8.3 8.3 0 01.084 1.428v8.694a9 9 0 01-.084 1.47zm14.6-11.844a6.349 6.349 0 01-.882 2.044 10.372 10.372 0 01-3.512 3.836 2.082 2.082 0 01.784.728 13.5 13.5 0 003.346-3.64l4.718-.084a12.864 12.864 0 01-2.408 4.69 11.908 11.908 0 01-4.942 3.542 2.111 2.111 0 01.7.826 13.709 13.709 0 004.872-3.5 14.811 14.811 0 002.8-5.264c.154-.5.154-.518.28-.686l-.6-.588a1.375 1.375 0 01-.728.1c-4.046.07-4.046.07-4.228.112a13.391 13.391 0 00.644-1.246 2.675 2.675 0 01.308-.574zm15.554 6.566h4.3v-.98h-4.3V-10H99.68v4.172h-4.3v.98h4.3V-.5h1.008zm11.354-3.388v-1.652a6.048 6.048 0 01.056-1.134h-1.134a8.11 8.11 0 01.056 1.176v1.61h-1.162a10.176 10.176 0 01-1.638-.084v1.064a12.887 12.887 0 011.624-.07h1.176v2.3a7.985 7.985 0 01-.056 1.176h1.138a7.7 7.7 0 01-.056-1.134v-2.342h4.256c-.014 1.134-.028 1.568-.056 2.016a4.555 4.555 0 01-1.5 3.5 6.191 6.191 0 01-2.674 1.372 2.508 2.508 0 01.63.882 10.394 10.394 0 001.624-.714 5.921 5.921 0 002.282-2.31c.518-1.008.658-1.9.686-4.746h1.232a12.887 12.887 0 011.624.07v-1.064a10.176 10.176 0 01-1.638.084h-1.2V-9.7a9.6 9.6 0 01.056-1.3h-1.1a9.306 9.306 0 01.042 1.414v1.358zm19.684-2.884a11.752 11.752 0 01-2.674 2.646 19.713 19.713 0 01-7.266 3.626 3.241 3.241 0 01.546.938 21.886 21.886 0 005.4-2.45v5.32a7.3 7.3 0 01-.078 1.456h1.218a9.3 9.3 0 01-.07-1.484v-5.964a24.658 24.658 0 003.276-2.814 3.169 3.169 0 01.616-.588zm8.388 11.55a9.518 9.518 0 01-.07-1.484v-4.214a4.889 4.889 0 00-.056-.826l.028-.014a1.545 1.545 0 00.434.238 28.545 28.545 0 015.222 2.772l.6-1.036a34.72 34.72 0 00-6.23-2.954V-9.7a8.786 8.786 0 01.07-1.456h-1.2a8.3 8.3 0 01.084 1.428v8.694a9 9 0 01-.084 1.47z" transform="translate(702.5 439.791)" fill="#222"/></g></g></svg>