<svg xmlns="http://www.w3.org/2000/svg" xmlns:xlink="http://www.w3.org/1999/xlink" width="187.48" height="27.298" viewBox="0 0 187.48 27.298">
  <defs>
    <clipPath id="clip-path">
      <rect id="長方形_31239" data-name="長方形 31239" width="76" height="27.298" transform="translate(0 0)" fill="none"/>
    </clipPath>
  </defs>
  <g id="グループ_26220" data-name="グループ 26220" transform="translate(24 -137.352)">
    <path id="パス_87865" data-name="パス 87865" d="M6.19-8.06A15.9,15.9,0,0,1,3.26-5.32a7.727,7.727,0,0,0-.85.68.968.968,0,0,0-.29.67c0,.34.16.56.72,1C4.3-1.83,4.7-1.5,5.37-.88A9.44,9.44,0,0,1,6.66.49l.63-.62a2.546,2.546,0,0,1-.28-.25,29.484,29.484,0,0,0-3.2-2.73c-.81-.63-.89-.7-.89-.88,0-.14.07-.22.44-.5a29.13,29.13,0,0,0,2.3-1.89c1.04-1,1.12-1.07,1.23-1.16Zm6.99.81a11.138,11.138,0,0,0,1.53.63,15.424,15.424,0,0,0,1.95.57l.28-.7a12.056,12.056,0,0,1-3.39-1.11Zm-.83,1.08a3.364,3.364,0,0,1-.07.53c-.14.84-.32,2-.42,2.76-.04.32-.05.41-.08.59l.78.02a1.739,1.739,0,0,1,.4-.41,4.845,4.845,0,0,1,2.8-.87c1.22,0,1.94.48,1.94,1.3,0,1.02-1.05,1.68-2.7,1.68a7.1,7.1,0,0,1-2.55-.5,2.313,2.313,0,0,1,.07.62,1.576,1.576,0,0,1-.01.19c.61.15.61.15.8.2a8.308,8.308,0,0,0,1.75.18,4.151,4.151,0,0,0,2.49-.66,2.138,2.138,0,0,0,.9-1.72c0-1.17-1.05-1.93-2.68-1.93a4.95,4.95,0,0,0-2.89.86,2.8,2.8,0,0,0-.31.3l-.02-.01a1.2,1.2,0,0,0,.04-.23c.03-.23.05-.3.29-1.75a8.369,8.369,0,0,1,.23-1.1ZM22.32-7.8a3.076,3.076,0,0,1,.04.53c0,.16,0,.35-.01.65-.08,3.15-.09,3.4-.09,4.07A2.786,2.786,0,0,0,22.81-.5a2.372,2.372,0,0,0,1.88.7,3.5,3.5,0,0,0,2.82-1.25,6.083,6.083,0,0,0,1.11-2.27,2.829,2.829,0,0,1-.72-.48,5.941,5.941,0,0,1-.49,1.57A2.872,2.872,0,0,1,24.73-.49a1.887,1.887,0,0,1-1.25-.39,1.574,1.574,0,0,1-.47-1.2c-.01-.23-.02-.48-.02-.6,0-.45.03-1.81.07-3.01a15.418,15.418,0,0,1,.13-2.11ZM33.28-2.28l1.9,1.91.48-.48-1.9-1.91,1.9-1.9-.48-.49-1.9,1.91L31.37-5.15l-.48.49,1.9,1.9L30.9-.87l.48.48Zm9.15-4.31a10.106,10.106,0,0,1-2.04.43v-.96a5.719,5.719,0,0,1,.05-.93H39.7a6.643,6.643,0,0,1,.05.95v.99c-.3.02-.69.03-.96.03a5.664,5.664,0,0,1-1.02-.07v.66h.41c.11.01.38.01.53.01.29,0,.46,0,.64-.01.31-.02.31-.02.4-.03v1.89a5.35,5.35,0,0,0-1.41.82,1.81,1.81,0,0,0-.79,1.33,1.206,1.206,0,0,0,.46.94A2.641,2.641,0,0,0,39.66.1c.49,0,.73-.26.73-.8V-3.2a6.747,6.747,0,0,1,2.12-.39c1.31,0,2.14.61,2.14,1.59A1.327,1.327,0,0,1,43.31-.59c-.73,0-1.03-.43-1.03-1.47a2.97,2.97,0,0,1,.02-.39,2.167,2.167,0,0,1-.66.26,3.649,3.649,0,0,0,.12,1.13A1.475,1.475,0,0,0,43.3.07,2.024,2.024,0,0,0,45.34-2a2.012,2.012,0,0,0-1.03-1.77,3.386,3.386,0,0,0-1.77-.42,7.085,7.085,0,0,0-2.15.36V-5.56a17.551,17.551,0,0,0,1.77-.3c.14-.03.18-.04.3-.06ZM39.75-1.07c0,.43-.03.49-.23.49a1.868,1.868,0,0,1-.89-.29c-.29-.19-.43-.39-.43-.6,0-.48.56-1.02,1.55-1.5ZM45.76-5.3a8.4,8.4,0,0,0-2.02-1.9l-.52.39a8.19,8.19,0,0,1,2.02,1.96ZM50.38.31a6.8,6.8,0,0,1-.05-1.06V-3.76a3.493,3.493,0,0,0-.04-.59l.02-.01a1.1,1.1,0,0,0,.31.17,20.389,20.389,0,0,1,3.73,1.98l.43-.74a24.8,24.8,0,0,0-4.45-2.11V-6.93a6.277,6.277,0,0,1,.05-1.04h-.86a5.929,5.929,0,0,1,.06,1.02V-.74A6.432,6.432,0,0,1,49.52.31ZM60.81-8.15a4.535,4.535,0,0,1-.63,1.46,7.409,7.409,0,0,1-2.51,2.74,1.487,1.487,0,0,1,.56.52,9.64,9.64,0,0,0,2.39-2.6l3.37-.06a9.188,9.188,0,0,1-1.72,3.35A8.506,8.506,0,0,1,58.74-.21a1.508,1.508,0,0,1,.5.59,9.792,9.792,0,0,0,3.48-2.5,10.579,10.579,0,0,0,2-3.76c.11-.36.11-.37.2-.49l-.43-.42a.982.982,0,0,1-.52.07c-2.89.05-2.89.05-3.02.08a9.565,9.565,0,0,0,.46-.89,1.91,1.91,0,0,1,.22-.41ZM71.92-3.46h3.07v-.7H71.92V-7.14H71.2v2.98H68.13v.7H71.2v3.1h.72Zm8.11-2.42V-7.06a4.321,4.321,0,0,1,.04-.81h-.81a5.791,5.791,0,0,1,.04.84v1.15h-.83a7.269,7.269,0,0,1-1.17-.06v.76a9.205,9.205,0,0,1,1.16-.05h.84v1.64a5.7,5.7,0,0,1-.04.84h.81a5.5,5.5,0,0,1-.04-.81V-5.23h3.04c-.01.81-.02,1.12-.04,1.44a3.254,3.254,0,0,1-1.07,2.5,4.422,4.422,0,0,1-1.91.98,1.791,1.791,0,0,1,.45.63,7.424,7.424,0,0,0,1.16-.51,4.229,4.229,0,0,0,1.63-1.65c.37-.72.47-1.36.49-3.39h.88a9.205,9.205,0,0,1,1.16.05v-.76a7.269,7.269,0,0,1-1.17.06h-.86V-6.93a6.857,6.857,0,0,1,.04-.93h-.78a6.647,6.647,0,0,1,.03,1.01v.97ZM94.09-7.94a8.394,8.394,0,0,1-1.91,1.89,14.081,14.081,0,0,1-5.19,2.59,2.315,2.315,0,0,1,.39.67,15.633,15.633,0,0,0,3.86-1.75v3.8A5.212,5.212,0,0,1,91.18.3h.87A6.643,6.643,0,0,1,92-.76V-5.02a17.613,17.613,0,0,0,2.34-2.01,2.264,2.264,0,0,1,.44-.42ZM100.08.31a6.8,6.8,0,0,1-.05-1.06V-3.76a3.493,3.493,0,0,0-.04-.59l.02-.01a1.1,1.1,0,0,0,.31.17,20.389,20.389,0,0,1,3.73,1.98l.43-.74a24.8,24.8,0,0,0-4.45-2.11V-6.93a6.277,6.277,0,0,1,.05-1.04h-.86a5.929,5.929,0,0,1,.06,1.02V-.74A6.432,6.432,0,0,1,99.22.31Z" transform="translate(59 154.852)" fill="#222"/>
    <g id="logo" transform="translate(-24 137.352)">
      <g id="グループ_26090" data-name="グループ 26090" clip-path="url(#clip-path)">
        <path id="パス_87821" data-name="パス 87821" d="M72.639,0H3.362A3.361,3.361,0,0,0,0,3.361V23.936A3.361,3.361,0,0,0,3.362,27.3H72.639A3.362,3.362,0,0,0,76,23.936V3.361A3.362,3.362,0,0,0,72.639,0M1.582,23.936V3.361a1.782,1.782,0,0,1,1.78-1.78H33.04V25.716H3.362a1.782,1.782,0,0,1-1.78-1.78" transform="translate(-0.001 0.001)" fill="#1d2651"/>
        <path id="パス_87822" data-name="パス 87822" d="M264.085,33.087h-4.017a.685.685,0,1,1,0-1.37h4.017a.685.685,0,1,1,0,1.37" transform="translate(-194.79 -23.819)" fill="#fff"/>
        <path id="パス_87823" data-name="パス 87823" d="M268.133,29.039a.685.685,0,0,1-.685-.685V24.338a.685.685,0,1,1,1.37,0v4.017a.685.685,0,0,1-.685.685" transform="translate(-200.846 -17.763)" fill="#fff"/>
        <path id="パス_87824" data-name="パス 87824" d="M209.68,38.881a.685.685,0,0,1-.518-1.133c2.487-2.874,4.642-8.011,5.373-12.725h-3.35a9.285,9.285,0,0,1-1.882,3.625.685.685,0,0,1-1.047-.883,8.07,8.07,0,0,0,1.648-3.234l.131-.406a.685.685,0,0,1,.651-.472h4.636a.685.685,0,0,1,.68.768c-.634,5.158-3.02,11.007-5.8,14.223a.684.684,0,0,1-.518.237" transform="translate(-156.273 -17.763)" fill="#fff"/>
        <path id="パス_87825" data-name="パス 87825" d="M159.066,38.943a.685.685,0,0,1-.685-.685V24.408a.685.685,0,0,1,1.37,0V38.258a.685.685,0,0,1-.685.685" transform="translate(-118.94 -17.815)" fill="#fff"/>
        <path id="パス_87826" data-name="パス 87826" d="M163.543,48.9h-4.477a.685.685,0,1,1,0-1.37h4.477a.685.685,0,1,1,0,1.37" transform="translate(-118.94 -35.693)" fill="#fff"/>
        <path id="パス_87827" data-name="パス 87827" d="M103.254,25.014a.81.81,0,1,1,.81.829.819.819,0,0,1-.81-.829" transform="translate(-77.541 -18.162)" fill="#1d2651"/>
        <path id="パス_87828" data-name="パス 87828" d="M87.756,38.945h-.644a.685.685,0,1,1,0-1.37h.644a2.525,2.525,0,0,0,0-5.051H85.783V24.407a.685.685,0,1,1,1.37,0v6.748h.6a3.9,3.9,0,0,1,0,7.79" transform="translate(-64.421 -17.815)" fill="#1d2651"/>
        <path id="パス_87829" data-name="パス 87829" d="M31.368,38.94a.684.684,0,0,1-.552-.279L25.441,31.35l5.373-7.356a.685.685,0,1,1,1.106.808l-4.781,6.545,4.78,6.5a.685.685,0,0,1-.551,1.09" transform="translate(-19.106 -17.808)" fill="#1d2651"/>
      </g>
    </g>
  </g>
</svg>
