<svg xmlns="http://www.w3.org/2000/svg" width="31.05" height="27.863"><defs><clipPath id="clip-path"><path id="パス_87971" data-name="パス 87971" d="M-1.671 0h22.052v27.863H-1.671z" fill="none"/></clipPath></defs><g id="icon" transform="translate(.25 -.134)"><g id="グループ_26345" data-name="グループ 26345" transform="translate(8)"><path id="パス_63095" data-name="パス 63095" d="M46.2 1.053a.617.617 0 00-.875-.873L42.86 2.645a.639.639 0 00-.134.2.612.612 0 000 .471.632.632 0 00.134.2l2.465 2.467a.617.617 0 10.872-.872L44.784 3.7h5.911a.617.617 0 100-1.233h-5.911z" transform="translate(-50.678 3.156)" fill="#202020"/><path id="パス_63095_-_アウトライン" data-name="パス 63095 - アウトライン" d="M45.762-.25a.867.867 0 01.867.867.861.861 0 01-.254.613l-.987.987h5.307a.867.867 0 110 1.733h-5.308l.987.988a.867.867 0 01-1.226 1.225L42.683 3.7a.877.877 0 01-.188-.282.866.866 0 010-.664.9.9 0 01.188-.281L45.148 0a.866.866 0 01.614-.25zm4.933 3.7a.367.367 0 100-.733H44.18L46.021.876a.367.367 0 00-.26-.626.369.369 0 00-.261.108l-2.464 2.464a.39.39 0 00-.081.122.362.362 0 000 .277.384.384 0 00.081.122L45.5 5.81a.367.367 0 00.518-.518L44.18 3.45z" transform="translate(-50.678 3.156)" fill="#202020"/><g id="グループ_26348" data-name="グループ 26348" transform="translate(3.419 -2)"><g id="マスクグループ_49" data-name="マスクグループ 49" transform="translate(-1 2.134)" clip-path="url(#clip-path)"><path id="パス_87968" data-name="パス 87968" d="M38.165 54.61a1.8 1.8 0 01.709 1.477l.01 2.878h8.438l-.007-2.859a2.009 2.009 0 01.649-1.407 5.761 5.761 0 001.3-4.232l-.567-7.4a.829.829 0 00-.83-.751h-.009a.841.841 0 00-.818.75c0 .024 0 .047-.008.071v.013c0 .005 0 .023-.006.034s0 .022-.007.033-.006.022-.009.033l-.01.032-.012.03-.014.032-.014.028-.017.031-.015.025-.021.03-.017.023-.024.029-.019.021-.026.026-.021.019-.028.023-.023.018-.029.02-.025.016-.03.017-.027.014-.038.016-.028.012-.034.012-.028.009-.039.009-.025.006-.049.007h-.198l-.038-.007-.033-.008-.037-.011-.032-.011-.034-.014L46 43.69l-.03-.016-.031-.018-.028-.018-.03-.021-.025-.021-.028-.024-.024-.023-.025-.026-.022-.026-.021-.027-.02-.029-.018-.028-.017-.031-.015-.03-.014-.033-.012-.031c0-.011-.007-.023-.011-.034l-.01-.034-.007-.034c-.002-.011 0-.024-.006-.036s0-.022 0-.033v-.125c0-.027 0-.053.008-.08a.91.91 0 00-.741-1 .923.923 0 00-1.057.719v.01c0 .015-.007.029-.011.043l-.007.025c0 .015-.01.03-.016.044l-.008.021a.682.682 0 01-.023.047l-.007.014q-.016.029-.035.056l-.018.024-.022.029-.022.025-.023.024-.024.023-.024.022-.026.021-.027.02-.027.018-.03.018-.028.015-.032.015-.028.012-.035.012-.028.009-.037.009-.029.007-.049.006h-.257l-.038-.01-.032-.01-.036-.013-.031-.013-.033-.016-.031-.016-.03-.018-.03-.02-.027-.02-.028-.023-.024-.023-.026-.025-.022-.025-.023-.027-.02-.028-.019-.028-.018-.031-.016-.029-.016-.033-.013-.03c0-.011-.008-.023-.012-.034l-.01-.032-.009-.035-.007-.034c-.002-.012 0-.023-.005-.034s0-.024 0-.036v-.159a.877.877 0 00-1.237-.916.908.908 0 00-.53.746v.053c0 .013 0 .022-.005.033s-.005.025-.008.038l-.008.032-.012.035-.012.032-.014.033-.015.031-.017.031-.018.029-.02.029-.02.027-.024.028-.021.024-.028.027-.022.02-.031.025-.023.017-.034.022-.024.015-.036.019-.026.012-.037.015-.029.01-.037.011-.032.008-.036.007-.036.005h-.186l-.033-.005-.038-.008-.032-.008-.035-.011-.032-.012-.032-.014-.032-.016-.029-.017-.031-.019-.027-.019-.029-.022-.026-.022-.026-.024-.024-.025-.023-.025-.022-.028-.02-.027-.02-.03-.017-.028-.017-.032-.014-.03-.013-.033c0-.011-.008-.022-.012-.033l-.01-.033-.009-.036c-.003-.012 0-.022-.006-.033s0-.025-.006-.038 0-.022 0-.034v-.053l.021-7.348a.834.834 0 10-1.668 0l-.022 12.253a1.305 1.305 0 01-1.125 1.277.72.72 0 01-.334-1.4v-1.067a4.747 4.747 0 00-.827-.064 1.257 1.257 0 00-1.233 1.426 11.339 11.339 0 004.156 7.351" transform="translate(-32.557 -32.546)" fill="#fff"/><path id="パス_87969" data-name="パス 87969" d="M.024 308.413a12.889 12.889 0 00.467 2.11V306.5a2.7 2.7 0 00-.467 1.912" transform="translate(0 -293.509)" fill="#222"/><path id="パス_87970" data-name="パス 87970" d="M15.821 23.2h.005l.021.015.037.026.008.005a.491.491 0 01.083.295l.01 2.93a1.388 1.388 0 001.387 1.382h8.547a1.389 1.389 0 001.387-1.387l-.006-2.905c0-.08.028-.189.237-.4l.008-.008.008-.008a7.19 7.19 0 001.69-5.305v-.018l-.572-7.422v-.008a2.272 2.272 0 00-3.6-1.615 2.329 2.329 0 00-1.413-.828 2.354 2.354 0 00-1.74.385 2.317 2.317 0 00-2.746-.749l.015-5.3a2.275 2.275 0 10-4.551 0l-.022 9.615a6.187 6.187 0 00-.844-.049 2.69 2.69 0 00-2.18 1.147v4.023a12.779 12.779 0 004.231 6.179m-3.269-8.488a1.257 1.257 0 011.233-1.426 4.738 4.738 0 01.827.064v1.067a.72.72 0 00.334 1.4 1.305 1.305 0 001.107-1.284l.022-12.253a.834.834 0 111.668 0l-.023 7.344v.087c0 .012 0 .025.006.038s0 .022.006.033.006.024.009.036l.01.033.012.033.013.033.014.03.017.032.017.028.02.03.02.027.022.028.023.025.024.025.026.024.026.022.029.022.027.019.031.019.029.017.032.016.032.014.032.012.035.011.033.008.038.008.033.005h.186l.036-.005.036-.007.032-.008.037-.011.029-.01.037-.015.026-.012.036-.019.024-.015.034-.022.023-.017.031-.025.022-.02.028-.027.021-.024.026-.027.02-.027.02-.029.018-.029.017-.031.015-.031.014-.033.012-.032c0-.012.008-.023.012-.035l.008-.032.008-.038c.002-.013 0-.022.005-.033s0-.026 0-.039v-.014a.908.908 0 01.53-.746.877.877 0 011.237.916v.195c0 .012 0 .023.005.035s0 .023.007.034.006.023.009.035l.01.032.012.034.013.03.016.033.016.029.018.031.019.028.02.028.023.027.022.025.026.025.024.023.028.023.027.02.03.02.03.018.031.016.033.016.031.013.036.013.032.01.038.01h.254l.039-.006.029-.007.037-.009.029-.009.035-.012.028-.012.032-.015.028-.015.03-.018.027-.018.027-.02.026-.021.025-.022.024-.023.023-.024.035-.014.022-.029.018-.024q.019-.027.035-.056l.007-.014.023-.047.008-.021.016-.044.007-.025c0-.014.008-.029.011-.043v-.01a.923.923 0 011.053-.721.91.91 0 01.741 1c0 .026-.006.053-.008.08v.158c0 .011 0 .024.006.036s0 .023.007.034.006.022.009.034l.011.034.012.031.014.033.015.03.017.031.018.028.02.029.021.027.022.026.025.026.023.023.028.024.025.021.03.021.028.018.031.018.03.016.032.015.034.014.032.011.037.011.033.008.038.007h.207l.049-.007.025-.006.039-.009.027-.009.034-.012.028-.012.032-.014.027-.014.03-.017.025-.016.029-.02.023-.018.028-.023.021-.019.026-.026.019-.021.024-.029.017-.023.021-.03.015-.025.017-.031.014-.028.014-.032.012-.03c0-.011.007-.021.01-.032l.009-.033.007-.033c.002-.011 0-.022.006-.034s0-.008 0-.013c0-.024.006-.047.008-.071a.841.841 0 01.818-.75h.009a.829.829 0 01.83.751l.567 7.4a5.761 5.761 0 01-1.3 4.232 2.009 2.009 0 00-.649 1.407l.007 2.859h-8.43l-.01-2.878a1.8 1.8 0 00-.709-1.477 11.339 11.339 0 01-4.156-7.351" transform="translate(-11.099)" fill="#222"/></g></g></g></g></svg>